{"glyphs":{"0":{"ha":848,"x_min":5,"x_max":818,"o":"m 419 -26 l 419 -26 q 146 96 227 -26 l 146 96 q 82 397 82 194 l 82 397 q 146 701 82 602 l 146 701 q 419 822 226 822 l 419 822 q 694 701 614 822 l 694 701 q 758 397 758 602 l 758 397 q 692 95 758 194 l 692 95 q 419 -26 612 -26 z m 28 153 l 28 153 l 818 833 q 778 730 778 770 l 778 730 l 785 704 l 798 694 l 5 -14 q 50 102 50 57 l 50 102 q 28 153 50 135 z m 419 119 l 419 119 q 551 214 524 119 l 551 214 q 564 397 564 255 l 564 397 l 564 456 q 541 608 564 559 l 541 608 q 419 676 509 676 l 419 676 q 292 583 309 676 l 292 583 q 277 489 288 562 l 277 489 q 264 353 264 410 l 264 353 q 419 119 264 119 z "},"1":{"ha":509,"x_min":26,"x_max":490,"o":"m 408 800 l 408 800 l 408 83 q 490 0 408 37 l 490 0 l 147 0 q 228 83 228 41 l 228 83 l 228 538 l 26 496 q 408 800 227 599 z "},"2":{"ha":776,"x_min":-22,"x_max":714,"o":"m 502 285 l 349 183 l 524 186 q 565 186 545 186 l 565 186 q 688 183 627 186 l 688 183 l 686 -171 q 632 -61 671 -130 l 632 -61 q 543 0 578 0 l 543 0 l 41 0 q 183 255 59 155 l 183 255 l 403 391 q 517 554 517 462 l 517 554 q 382 682 517 682 l 382 682 q 273 637 312 682 l 273 637 q 237 524 237 594 l 237 524 q 244 461 237 493 l 244 461 l -22 684 q 26 667 -7 667 l 26 667 q 94 679 62 667 l 94 679 q 378 807 170 807 l 378 807 q 602 757 511 807 l 602 757 q 714 570 714 694 l 714 570 q 649 408 714 484 l 649 408 q 502 285 600 351 l 502 285 z m 443 542 l 443 542 q 424 491 443 511 q 374 471 404 471 l 374 471 q 325 492 345 471 q 304 542 304 513 l 304 542 q 325 590 304 570 q 374 610 345 610 l 374 610 q 423 591 404 610 q 443 542 443 572 z "},"3":{"ha":807,"x_min":7,"x_max":782,"o":"m 557 581 l 557 581 q 504 656 557 625 l 504 656 q 410 684 458 684 l 410 684 q 267 526 267 684 l 267 526 q 273 463 267 496 l 273 463 l 7 685 q 56 668 22 668 l 56 668 q 123 681 87 668 l 123 681 q 406 808 199 808 l 406 808 q 631 758 541 808 l 631 758 q 743 571 743 696 l 743 571 q 703 509 743 548 l 703 509 q 642 460 671 477 l 642 460 q 750 368 719 417 l 750 368 q 782 229 782 316 l 782 229 q 665 39 782 105 l 665 39 q 436 -16 570 -16 l 436 -16 q 203 48 286 -16 l 203 48 q 105 175 159 82 l 105 175 q 12 268 60 252 l 12 268 l 355 268 q 273 191 287 241 l 273 191 l 271 193 l 269 187 q 315 123 269 148 l 315 123 q 396 103 353 103 l 396 103 q 524 133 472 103 l 524 133 q 586 240 586 170 l 586 240 q 409 380 586 380 l 409 380 q 368 378 389 380 l 368 378 l 368 494 q 484 509 435 494 l 484 509 q 557 581 557 532 z m 513 236 l 441 158 l 374 236 l 441 315 l 513 236 z "},"4":{"ha":822,"x_min":5,"x_max":818,"o":"m 428 322 l 428 650 l 172 322 l 428 322 z m 428 174 l 50 174 q 61 222 61 202 l 61 222 l 52 258 q 5 293 24 281 l 5 293 l 396 810 l 623 810 l 623 322 l 818 322 q 724 174 724 289 l 724 174 l 623 174 l 624 -161 l 621 -171 l 555 -48 q 431 0 519 0 l 431 0 q 428 0 429 0 l 428 0 l 428 174 z m 278 378 l 389 522 l 389 378 l 278 378 z "},"5":{"ha":779,"x_min":8,"x_max":766,"o":"m 8 268 l 8 268 l 351 268 q 271 191 284 241 l 271 191 q 416 106 285 106 l 416 106 q 529 147 488 106 q 570 261 570 189 l 570 261 q 414 412 570 412 l 414 412 q 292 354 327 412 l 292 354 l 115 354 l 204 810 l 557 810 q 623 718 563 760 l 623 718 q 729 669 669 687 l 729 669 l 323 669 l 290 492 q 461 536 380 536 l 461 536 q 675 467 589 536 l 675 467 q 766 268 766 393 l 766 268 q 657 43 766 123 l 657 43 q 410 -26 561 -26 l 410 -26 q 174 40 250 -26 l 174 40 q 93 172 136 74 l 93 172 q 8 268 58 252 z m 358 203 l 358 203 q 435 279 435 216 l 435 279 q 416 346 435 321 l 416 346 q 476 321 452 346 q 500 261 500 296 l 500 261 q 475 202 500 227 q 416 178 451 178 l 416 178 q 358 203 383 178 z "},"6":{"ha":816,"x_min":43,"x_max":810,"o":"m 232 254 l 232 254 q 269 151 232 193 l 269 151 q 368 106 309 106 l 368 106 q 490 147 443 106 l 490 147 q 539 264 539 191 l 539 264 q 382 406 539 406 l 382 406 q 275 362 317 406 q 232 254 232 319 z m 810 534 l 810 534 q 705 572 798 543 l 705 572 q 477 667 610 602 l 477 667 q 463 671 469 671 l 463 671 q 460 669 460 670 l 460 669 q 461 668 460 669 l 461 668 q 385 688 435 688 l 385 688 q 271 632 312 688 l 271 632 q 233 507 233 583 l 233 507 q 240 467 233 490 l 240 467 q 416 528 323 528 l 416 528 q 630 467 549 528 l 630 467 q 721 271 721 399 l 721 271 q 623 50 721 132 l 623 50 q 390 -26 531 -26 l 390 -26 q 43 395 43 -26 l 43 395 q 123 684 43 570 l 123 684 q 382 812 214 812 l 382 812 q 494 791 463 812 l 494 791 q 583 709 529 768 l 583 709 q 669 621 642 643 l 669 621 q 740 577 691 603 q 810 534 789 551 z m 456 253 l 385 175 l 317 253 l 385 332 l 456 253 z "},"7":{"ha":705,"x_min":-41,"x_max":652,"o":"m 204 339 l 204 339 l 109 339 q 119 367 119 349 l 119 367 q 58 444 119 403 l 58 444 l 267 444 q 446 656 349 553 l 446 656 l -41 656 q 80 710 42 686 l 80 710 q 164 808 142 749 l 164 808 l 652 808 l 652 675 q 454 444 529 555 l 454 444 l 575 444 q 561 411 561 425 l 561 411 q 637 339 561 374 l 637 339 l 393 339 q 297 0 315 194 l 297 0 q 285 1 294 1 l 285 1 q 92 -171 189 1 l 92 -171 q 204 339 92 114 z "},"8":{"ha":754,"x_min":31,"x_max":729,"o":"m 367 -26 l 367 -26 q 140 37 236 -26 l 140 37 q 31 233 31 109 l 31 233 q 182 440 31 375 l 182 440 q 64 602 64 519 l 64 602 q 165 768 64 705 l 165 768 q 359 822 252 822 l 359 822 q 585 773 494 822 l 585 773 q 700 587 700 711 l 700 587 q 658 494 700 535 l 658 494 q 567 441 620 456 l 567 441 l 567 440 q 684 373 640 422 l 684 373 q 729 248 729 321 l 729 248 q 607 41 729 120 l 607 41 q 367 -26 501 -26 z m 519 249 l 519 249 q 479 340 519 304 q 382 376 439 376 l 382 376 q 232 243 232 376 l 232 243 q 269 143 232 181 q 368 106 307 106 l 368 106 q 519 249 519 106 z m 443 239 l 443 239 q 423 190 443 210 q 374 170 403 170 l 374 170 q 325 190 346 170 q 304 239 304 211 l 304 239 q 325 288 304 267 q 374 309 345 309 l 374 309 q 423 288 403 309 q 443 239 443 268 z m 407 699 l 407 699 l 379 782 l 351 699 q 273 668 306 694 l 273 668 q 236 596 236 639 l 236 596 q 270 521 236 553 l 270 521 q 345 484 301 490 l 345 484 l 345 433 l 414 433 l 414 486 q 494 525 460 494 l 494 525 q 532 604 532 559 l 532 604 q 407 699 532 684 z m 400 621 l 456 621 l 456 593 l 400 593 l 400 452 l 358 452 l 358 593 l 302 593 l 302 621 l 358 621 l 379 749 l 400 621 z "},"9":{"ha":784,"x_min":-32,"x_max":734,"o":"m 546 551 l 546 551 q 509 655 546 613 l 509 655 q 410 700 470 700 l 410 700 q 288 659 334 700 l 288 659 q 239 542 239 616 l 239 542 q 389 401 239 401 l 389 401 q 502 443 458 401 q 546 551 546 484 z m 40 230 l -32 271 q 150 208 45 264 l 150 208 q 318 135 265 145 l 318 135 l 317 139 q 393 119 343 119 l 393 119 q 507 175 466 119 l 507 175 q 545 300 545 224 l 545 300 q 538 339 545 317 l 538 339 q 361 279 456 279 l 361 279 q 149 340 229 279 l 149 340 q 57 534 57 408 l 57 534 q 155 755 57 673 l 155 755 q 387 832 247 832 l 387 832 q 734 412 734 832 l 734 412 q 655 123 734 237 l 655 123 q 396 -5 565 -5 l 396 -5 q 235 56 299 -5 l 235 56 q 109 184 213 78 l 109 184 q 40 230 82 206 l 40 230 z m 322 554 l 393 632 l 463 554 l 393 475 l 322 554 z "},"\b":{"ha":494,"x_min":null,"x_max":null,"o":""},"\u001a":{"ha":494,"x_min":null,"x_max":null,"o":""},"\u001b":{"ha":1042,"x_min":174,"x_max":868,"o":"m 868 0 l 174 0 l 174 868 l 868 868 l 868 0 z m 195 22 l 846 22 l 846 846 l 195 846 l 195 22 z "},"\u001d":{"ha":494,"x_min":null,"x_max":null,"o":""}," ":{"ha":494,"x_min":null,"x_max":null,"o":""},"!":{"ha":456,"x_min":155,"x_max":367,"o":"m 364 721 l 302 250 q 272 318 285 300 l 272 318 q 211 355 249 351 l 211 355 l 155 721 l 155 807 l 364 807 l 364 721 z m 367 106 l 269 -3 l 172 106 l 269 216 l 367 106 z m 309 679 l 278 679 l 261 747 l 245 679 l 214 679 l 214 650 l 245 650 l 245 538 l 278 538 l 278 650 l 309 650 l 309 679 z "},"\"":{"ha":592,"x_min":66,"x_max":536,"o":"m 282 770 l 66 514 q 122 672 122 600 l 122 672 q 87 770 122 732 l 87 770 l 183 880 l 282 770 z m 536 770 l 321 514 q 376 672 376 600 l 376 672 q 343 770 376 733 l 343 770 l 439 880 l 536 770 z "},"#":{"ha":810,"x_min":4,"x_max":768,"o":"m 486 432 l 342 432 l 309 292 l 450 292 l 486 432 z m 372 -33 l 372 -33 l 418 163 l 278 163 q 248 67 269 131 l 248 67 q 194 -12 226 7 l 194 -12 q 85 -33 159 -33 l 85 -33 l 131 163 l 4 163 l 4 292 l 161 292 l 195 432 l 61 432 l 61 561 l 224 561 l 272 710 q 425 793 409 710 l 425 793 l 371 561 l 511 562 l 558 710 q 711 793 695 710 l 711 793 l 657 561 l 768 561 l 768 432 l 632 432 l 599 292 l 729 292 l 729 163 l 566 163 q 535 67 556 131 l 535 67 q 481 -12 513 7 l 481 -12 q 372 -33 447 -33 z "},"$":{"ha":805,"x_min":-131,"x_max":786,"o":"m 406 765 l 406 765 l 406 829 q 467 899 437 846 l 467 899 l 467 758 q 572 727 489 754 l 572 727 q 671 704 643 704 l 671 704 q 726 711 690 704 q 782 718 763 718 l 782 718 l 786 717 l 782 711 l 553 510 q 532 577 551 556 q 467 610 513 598 l 467 610 l 467 458 q 661 397 632 413 l 661 397 q 760 235 760 345 l 760 235 q 467 -31 760 -10 l 467 -31 l 467 -102 q 406 -171 433 -102 l 406 -171 l 406 -32 q 240 -9 250 -9 l 240 -9 q 58 -70 189 -9 l 58 -70 l -131 -157 q 92 9 -15 -89 l 92 9 q 269 221 208 116 l 269 221 q 406 119 300 131 l 406 119 l 406 288 q 272 323 368 297 l 272 323 q 106 510 106 371 l 106 510 q 195 705 106 635 l 195 705 q 395 765 274 765 l 395 765 q 406 765 400 765 z m 406 475 l 406 618 q 293 543 293 614 l 293 543 q 339 493 293 506 l 339 493 l 406 475 z m 467 269 l 467 115 q 558 193 558 124 l 558 193 q 530 249 558 233 l 530 249 q 467 269 524 252 l 467 269 z "},"%":{"ha":1201,"x_min":31,"x_max":1197,"o":"m 690 193 l 690 193 q 773 347 690 286 l 773 347 q 945 403 849 403 l 945 403 q 1116 348 1042 403 l 1116 348 q 1197 193 1197 287 l 1197 193 q 1116 39 1197 99 l 1116 39 q 945 -16 1042 -16 l 945 -16 q 773 39 848 -16 l 773 39 q 690 193 690 100 z m 829 193 l 829 193 q 867 124 829 152 l 867 124 q 945 98 902 98 l 945 98 q 1022 123 989 98 l 1022 123 q 1059 193 1059 151 l 1059 193 q 1023 264 1059 237 l 1023 264 q 945 289 991 289 l 945 289 q 866 264 899 289 l 866 264 q 829 193 829 237 z m 31 593 l 31 593 q 113 747 31 686 l 113 747 q 285 802 189 802 l 285 802 q 456 747 381 802 l 456 747 q 539 593 539 686 l 539 593 q 456 439 539 500 l 456 439 q 285 385 381 385 l 285 385 q 114 439 189 385 l 114 439 q 31 593 31 500 z m 170 593 l 170 593 q 207 523 170 550 l 207 523 q 285 498 240 498 l 285 498 q 363 523 330 498 l 363 523 q 400 593 400 550 l 400 593 q 363 663 400 635 l 363 663 q 285 688 329 688 l 285 688 q 206 664 239 688 l 206 664 q 170 593 170 637 z m 1008 694 l 1008 694 l 218 -14 q 261 102 261 55 l 261 102 q 239 153 261 135 l 239 153 l 1029 833 q 987 730 987 770 l 987 730 q 1008 694 987 707 z "},"&":{"ha":939,"x_min":77,"x_max":965,"o":"m 441 538 l 441 538 q 505 577 489 558 l 505 577 q 525 647 525 602 l 525 647 q 446 703 525 703 l 446 703 q 364 642 364 703 l 364 642 q 441 538 364 612 z m 570 174 l 570 174 l 382 363 q 294 317 313 332 l 294 317 q 253 232 253 284 l 253 232 q 302 144 253 183 l 302 144 q 397 107 347 107 l 397 107 q 570 174 474 107 z m 679 293 l 888 428 q 785 183 888 283 l 785 183 l 965 -205 q 671 69 864 -117 l 671 69 q 401 -24 543 -24 l 401 -24 q 184 33 275 -24 l 184 33 q 77 218 77 99 l 77 218 q 141 374 77 319 l 141 374 q 293 458 166 395 l 293 458 q 218 535 236 511 l 218 535 q 180 632 180 583 l 180 632 q 272 785 180 731 l 272 785 q 454 831 349 831 l 454 831 q 614 789 549 831 l 614 789 q 692 652 692 741 l 692 652 q 528 447 692 538 l 528 447 l 679 293 z "},"'":{"ha":337,"x_min":66,"x_max":281,"o":"m 281 770 l 66 514 q 122 672 122 600 l 122 672 q 87 770 122 732 l 87 770 l 183 880 l 281 770 z "},"(":{"ha":410,"x_min":56,"x_max":421,"o":"m 421 -281 l 421 -281 q 358 -224 397 -253 l 358 -224 q 290 -174 339 -211 l 290 -174 q 56 378 56 12 l 56 378 q 111 688 56 548 l 111 688 q 301 935 175 848 l 301 935 q 421 1013 344 958 l 421 1013 q 229 427 229 682 l 229 427 q 279 60 229 247 l 279 60 q 421 -281 330 -136 z "},")":{"ha":450,"x_min":31,"x_max":396,"o":"m 31 -281 l 31 -281 q 173 60 121 -137 l 173 60 q 222 427 222 247 l 222 427 q 31 1013 222 694 l 31 1013 q 83 972 49 994 l 83 972 l 140 936 q 396 376 396 774 l 396 376 q 310 -6 396 148 q 31 -281 224 -161 z "},"*":{"ha":511,"x_min":32,"x_max":494,"o":"m 260 549 l 167 437 q 77 500 167 494 l 77 500 l 183 610 l 32 692 l 210 692 l 265 832 l 318 692 l 494 692 l 345 610 l 452 500 q 393 484 408 491 l 393 484 q 363 437 363 470 l 363 437 l 260 549 z "},"+":{"ha":705,"x_min":77,"x_max":703,"o":"m 389 49 l 368 121 l 252 121 q 317 174 317 148 l 317 174 l 317 260 l 199 260 q 149 195 165 260 l 149 195 l 149 315 l 77 335 l 149 354 l 149 468 q 199 404 170 404 l 199 404 l 317 404 l 317 533 q 253 583 317 567 l 253 583 l 371 583 l 389 656 l 408 583 l 526 583 q 461 533 461 563 l 461 533 l 463 404 l 558 404 q 611 468 591 404 l 611 468 l 611 359 l 703 335 l 611 311 l 611 195 q 558 260 587 260 l 558 260 l 461 260 l 461 174 q 525 121 461 144 l 525 121 l 410 121 l 389 49 z "},",":{"ha":290,"x_min":39,"x_max":253,"o":"m 253 106 l 39 -150 q 94 8 94 -64 l 94 8 q 60 106 94 68 l 60 106 l 157 216 l 253 106 z "},"-":{"ha":553,"x_min":-1,"x_max":524,"o":"m 367 336 l 367 336 l -1 336 q 155 447 155 372 l 155 447 q 154 458 155 456 l 154 458 l 522 458 q 524 447 524 454 l 524 447 q 464 370 524 408 l 464 370 q 367 336 410 336 z "},".":{"ha":304,"x_min":60,"x_max":253,"o":"m 253 106 l 157 -3 l 60 106 l 157 216 l 253 106 z "},"/":{"ha":477,"x_min":-1,"x_max":431,"o":"m 431 791 l 58 -100 q -1 -21 58 -32 l -1 -21 l 383 916 q 431 791 383 806 l 431 791 z "},":":{"ha":280,"x_min":60,"x_max":253,"o":"m 60 387 l 157 498 l 253 387 l 157 279 q 60 387 125 316 l 60 387 z m 60 113 l 157 224 l 253 113 l 157 5 q 60 113 125 42 l 60 113 z "},";":{"ha":275,"x_min":39,"x_max":253,"o":"m 253 106 l 39 -150 q 94 8 94 -64 l 94 8 q 60 106 94 68 l 60 106 l 157 216 l 253 106 z m 60 387 l 157 498 l 253 387 l 157 279 q 60 387 125 316 l 60 387 z "},"<":{"ha":719,"x_min":132,"x_max":633,"o":"m 633 85 l 132 404 l 633 725 l 633 568 l 293 404 l 633 241 l 633 85 z "},"=":{"ha":692,"x_min":26,"x_max":684,"o":"m 486 195 l 486 195 l 26 195 q 226 307 226 230 l 226 307 q 222 317 226 313 l 222 317 l 682 317 l 684 306 q 604 225 684 261 l 604 225 q 486 195 537 195 z m 486 390 l 486 390 l 26 390 q 227 503 227 424 l 227 503 q 222 513 227 509 l 222 513 l 682 513 l 684 501 q 604 420 684 456 l 604 420 q 486 390 537 390 z "},">":{"ha":619,"x_min":131,"x_max":632,"o":"m 131 725 l 632 406 l 131 85 l 131 241 l 471 406 l 131 568 l 131 725 z "},"?":{"ha":797,"x_min":17,"x_max":772,"o":"m 336 106 l 433 216 l 530 106 l 433 -3 q 336 106 401 34 l 336 106 z m 339 211 l 339 211 q 332 249 332 231 l 332 249 q 393 363 332 316 l 393 363 q 508 449 425 387 l 508 449 q 570 557 570 496 l 570 557 q 524 639 570 608 l 524 639 q 429 665 484 665 l 429 665 q 345 644 388 665 l 345 644 q 294 582 294 619 l 294 582 q 300 545 294 569 l 300 545 q 306 509 305 519 l 306 509 l 17 583 q 134 628 98 606 l 134 628 q 192 695 151 639 q 262 771 233 752 l 262 771 q 418 810 322 810 l 418 810 q 652 754 553 810 l 652 754 q 772 561 772 686 l 772 561 q 671 378 772 440 l 671 378 q 474 304 634 356 l 474 304 q 339 211 359 267 z "},"@":{"ha":1323,"x_min":37,"x_max":1315,"o":"m 593 155 l 593 155 q 760 229 692 155 l 760 229 q 825 400 825 299 l 825 400 q 790 478 825 448 q 705 509 754 509 l 705 509 q 558 439 626 509 q 490 289 490 369 l 490 289 q 517 202 490 243 l 517 202 q 593 155 549 155 z m 1018 579 l 1018 579 l 901 236 q 901 230 901 234 l 901 230 q 907 186 901 218 l 907 186 l 932 161 l 962 155 q 1125 245 1054 155 l 1125 245 q 1192 422 1192 329 l 1192 422 q 1015 676 1192 582 l 1015 676 q 696 754 869 754 l 696 754 q 341 623 500 754 l 341 623 q 172 292 172 484 l 172 292 q 347 24 172 123 l 347 24 q 675 -58 493 -58 l 675 -58 q 848 -117 711 -117 l 848 -117 q 999 -104 901 -117 l 999 -104 q 668 -155 880 -155 l 668 -155 q 260 -55 444 -155 l 260 -55 q 37 275 37 66 l 37 275 q 258 694 37 524 l 258 694 q 718 850 462 850 l 718 850 q 1112 739 936 850 l 1112 739 q 1315 407 1315 611 l 1315 407 q 1211 168 1315 270 q 970 65 1107 65 l 970 65 q 791 143 848 65 l 791 143 q 585 61 677 61 l 585 61 q 429 117 497 61 l 429 117 q 357 261 357 175 l 357 261 q 472 492 357 390 l 472 492 q 714 591 583 591 l 714 591 q 814 566 772 591 l 814 566 q 869 519 836 553 l 869 519 q 907 494 894 494 l 907 494 q 1018 579 956 494 z "},"A":{"ha":812,"x_min":-123,"x_max":809,"o":"m 538 29 l 538 29 l 515 109 q 510 112 514 112 l 510 112 q 466 112 510 112 q 377 112 421 112 l 377 112 l 332 112 q 332 111 332 112 l 332 111 l 308 26 q 308 24 307 25 l 308 24 q 313 12 311 18 l 313 12 q 317 -2 314 6 l 317 -2 q 334 -18 320 -8 l 334 -18 q 353 -29 342 -24 l 353 -29 q 354 -31 353 -29 l 354 -31 q 354 -31 354 -31 l 354 -31 q 353 -32 353 -32 l 353 -32 q 274 -36 305 -31 l 274 -36 q 86 -123 169 -56 l 86 -123 q 26 -170 52 -151 l 26 -170 q 23 -172 25 -171 q 20 -174 21 -173 l 20 -174 q -122 -287 14 -178 l -122 -287 q -122 -287 -122 -287 q -123 -286 -123 -286 l -123 -286 q -111 -273 -115 -279 l -111 -273 q -100 -259 -102 -262 l -100 -259 q 20 -119 -36 -187 l 20 -119 q 52 -77 41 -94 l 52 -77 q 81 -32 56 -69 l 81 -32 q 82 -29 82 -31 l 82 -29 q 82 -28 82 -29 l 82 -28 q 82 -27 82 -28 l 82 -27 q 121 45 104 4 l 121 45 q 146 110 134 75 l 146 110 q 148 115 148 113 q 149 119 149 117 l 149 119 q 168 178 157 144 l 168 178 q 251 437 199 273 l 251 437 q 286 557 271 504 l 286 557 q 305 635 293 583 l 305 635 q 319 728 316 682 l 319 728 q 296 799 321 773 l 296 799 q 294 800 296 800 l 294 800 q 292 802 292 800 q 292 803 291 803 l 292 803 l 545 803 q 546 800 550 803 l 546 800 q 532 784 538 795 q 524 764 526 773 l 524 764 q 521 710 518 739 l 521 710 q 540 602 526 657 l 540 602 q 563 520 552 556 l 563 520 q 597 414 579 466 l 597 414 q 692 134 611 374 l 692 134 q 709 90 697 117 l 709 90 q 762 8 730 43 l 762 8 q 800 -26 772 -3 l 800 -26 q 802 -26 800 -26 l 802 -26 l 802 -26 q 804 -26 804 -25 l 804 -26 l 804 -28 q 805 -28 804 -28 l 805 -28 q 807 -28 806 -28 l 807 -28 q 808 -29 808 -28 l 808 -29 l 808 -30 l 808 -31 q 807 -32 808 -32 l 807 -32 l 494 -32 q 493 -28 487 -32 l 493 -28 q 512 -16 506 -22 l 512 -16 q 538 26 530 1 l 538 26 q 538 29 538 28 z m 450 214 l 415 353 l 380 214 l 450 214 z "},"B":{"ha":814,"x_min":-155,"x_max":712,"o":"m 64 795 l 64 795 q 58 795 62 796 l 58 795 q 57 796 57 795 l 57 796 l 56 798 q 57 799 56 799 l 57 799 q 511 799 254 799 l 511 799 q 530 798 522 799 l 530 798 q 554 791 550 793 l 554 791 q 608 758 585 779 l 608 758 q 660 680 641 724 q 682 590 680 637 l 682 590 q 673 507 683 546 l 673 507 q 655 465 668 487 l 655 465 q 596 414 633 431 l 596 414 q 595 412 595 413 l 595 412 q 595 412 594 412 l 595 412 q 595 410 595 411 l 595 410 q 600 409 598 410 l 600 409 q 674 354 650 383 l 674 354 q 704 288 696 326 l 704 288 q 709 253 707 268 l 709 253 q 711 210 709 252 l 711 210 q 711 188 711 205 l 711 188 q 623 14 706 72 l 623 14 q 521 -28 577 -19 l 521 -28 q 471 -33 496 -33 l 471 -33 q 304 -33 463 -33 l 304 -33 q 303 -34 304 -33 q 302 -34 302 -34 l 302 -34 q 121 -81 210 -35 l 121 -81 q 41 -136 83 -102 l 41 -136 q -7 -174 7 -164 l -7 -174 q -12 -177 -9 -176 l -12 -177 q -155 -291 -20 -183 l -155 -291 q -155 -291 -155 -291 q -155 -291 -155 -291 q -155 -290 -155 -290 l -155 -290 q -143 -277 -147 -283 l -143 -277 q -132 -264 -134 -266 l -132 -264 q -11 -121 -73 -196 l -11 -121 q 18 -82 5 -102 l 18 -82 q 46 -41 28 -68 l 46 -41 q 54 -26 50 -34 l 54 -26 q 87 42 68 0 l 87 42 q 123 186 117 109 l 123 186 q 131 324 131 279 l 131 324 q 131 705 131 557 l 131 705 q 100 771 131 745 l 100 771 q 71 791 84 785 l 71 791 q 69 793 71 791 l 69 793 q 65 793 67 793 l 65 793 q 65 793 65 793 l 65 793 q 64 793 64 793 l 64 793 q 64 793 64 793 l 64 793 l 64 794 q 64 795 64 795 z m 303 594 l 303 594 l 304 466 q 304 465 304 465 l 304 465 l 442 466 q 498 484 475 466 l 498 484 q 521 528 521 502 l 521 528 l 521 534 q 498 577 521 559 l 498 577 q 442 595 475 595 l 442 595 l 304 595 q 303 594 303 595 z m 532 183 l 532 183 q 506 237 532 215 q 447 258 479 258 l 447 258 l 296 258 l 296 109 l 447 109 q 506 130 480 109 q 532 183 532 151 z "},"C":{"ha":699,"x_min":-193,"x_max":676,"o":"m 522 -224 l 522 -224 l 521 -223 q 521 -222 521 -223 l 521 -222 q 516 -172 521 -222 l 516 -172 q 502 -77 511 -122 l 502 -77 q 488 -40 498 -60 l 488 -40 q 486 -35 488 -37 q 483 -32 485 -33 q 481 -30 481 -31 q 477 -28 480 -28 q 474 -27 475 -27 q 470 -26 473 -26 q 466 -26 467 -26 q 461 -26 465 -26 q 456 -26 457 -26 l 456 -26 q 285 -26 292 -26 l 285 -26 q 255 -26 279 -26 l 255 -26 q 226 -27 239 -26 l 226 -27 q 47 -94 128 -40 l 47 -94 q -4 -133 31 -105 q -48 -167 -39 -161 l -48 -167 q -54 -172 -54 -171 l -54 -172 q -193 -281 -123 -227 l -193 -281 q -193 -281 -193 -281 l -193 -281 l -193 -281 q -193 -281 -193 -281 l -193 -281 q -180 -267 -186 -275 l -180 -267 q -168 -252 -171 -255 l -168 -252 q -37 -97 -106 -181 l -37 -97 q -5 -56 -15 -71 l -5 -56 q 69 78 43 12 l 69 78 q 99 183 85 116 l 99 183 q 101 205 102 197 l 101 205 q 96 229 101 211 l 96 229 q 78 321 84 274 l 78 321 q 75 366 75 345 l 75 366 q 73 368 75 366 l 73 368 q 73 370 73 370 l 73 370 q 73 450 73 431 l 73 450 q 73 452 73 450 q 74 454 74 453 l 74 454 q 127 654 81 557 l 127 654 q 248 789 175 754 l 248 789 q 288 801 264 795 l 288 801 q 329 803 301 804 l 329 803 q 532 803 355 803 l 532 803 q 537 802 535 803 q 539 798 538 800 l 539 798 q 545 780 539 797 l 545 780 q 626 513 583 654 l 626 513 q 627 512 627 513 l 627 512 q 629 509 629 511 l 629 509 q 630 500 627 503 l 630 500 q 629 498 631 498 l 629 498 q 625 503 625 500 l 625 503 q 624 505 625 505 l 624 505 q 622 509 623 506 q 620 512 621 511 l 620 512 q 571 553 596 537 l 571 553 q 505 572 541 573 l 505 572 q 363 572 501 572 l 363 572 q 330 564 346 572 q 302 539 315 555 q 283 510 290 523 q 267 478 275 496 l 267 478 q 253 433 257 458 l 253 433 q 250 387 249 414 l 250 387 q 264 298 252 340 l 264 298 q 275 273 266 290 l 275 273 q 289 250 282 258 l 289 250 q 345 215 310 224 l 345 215 q 413 203 382 204 l 413 203 q 425 201 418 202 l 425 201 q 464 199 441 199 l 464 199 l 464 199 q 465 199 465 199 l 465 199 l 465 199 l 465 197 q 465 197 465 197 l 465 197 q 529 197 497 197 l 529 197 q 571 202 541 197 l 571 202 q 622 218 598 207 l 622 218 q 669 256 651 233 l 669 256 q 672 254 675 266 l 672 254 q 529 -224 549 -160 l 529 -224 q 528 -227 529 -224 l 528 -227 q 527 -231 528 -230 l 527 -231 q 526 -233 526 -232 l 526 -233 l 526 -237 q 525 -239 526 -238 l 525 -239 q 522 -240 524 -239 q 521 -239 520 -241 l 521 -239 q 522 -238 521 -239 q 523 -236 523 -237 l 523 -236 l 523 -225 q 522 -224 523 -224 z "},"D":{"ha":720,"x_min":-208,"x_max":643,"o":"m 26 797 l 26 797 q 18 799 22 800 l 18 799 q 17 800 17 799 l 17 800 l 17 802 q 18 802 17 802 l 18 802 q 387 802 245 802 l 387 802 q 429 799 414 802 l 429 799 q 568 677 513 780 l 568 677 q 616 564 597 622 l 616 564 q 628 518 621 551 l 628 518 q 639 458 636 484 l 639 458 q 641 437 640 445 l 641 437 q 642 416 642 425 l 642 416 q 642 355 642 365 l 642 355 q 641 351 642 353 q 641 348 641 349 l 641 348 q 590 128 633 231 l 590 128 q 547 51 574 89 l 547 51 q 483 -7 521 15 q 403 -30 445 -28 l 403 -30 q 252 -30 384 -30 l 252 -30 q 251 -30 252 -30 q 250 -31 250 -31 l 250 -31 q 116 -57 181 -32 q -3 -126 51 -82 l -3 -126 q -55 -168 -41 -157 l -55 -168 q -61 -172 -57 -170 q -67 -176 -65 -174 l -67 -176 q -207 -288 -81 -187 l -207 -288 q -207 -287 -207 -288 q -208 -287 -208 -287 l -208 -287 q -195 -274 -199 -279 l -195 -274 q -184 -260 -186 -262 l -184 -260 q -50 -102 -117 -184 l -50 -102 q -19 -61 -30 -77 l -19 -61 q 90 218 77 76 l 90 218 q 92 269 92 232 l 92 269 q 92 691 92 479 l 92 691 q 89 727 92 719 l 89 727 q 41 786 81 760 l 41 786 q 26 797 28 794 z m 375 559 l 375 559 l 275 559 l 275 147 l 380 147 q 407 161 387 150 l 407 161 q 501 370 501 216 l 501 370 q 465 486 501 421 l 465 486 q 375 559 422 559 z "},"E":{"ha":755,"x_min":-151,"x_max":748,"o":"m 556 -201 l 556 -201 q 556 -204 555 -202 l 556 -204 q 555 -205 556 -205 l 555 -205 q 552 -208 553 -206 l 552 -208 q 551 -208 551 -208 l 551 -208 l 551 -208 q 551 -206 550 -207 l 551 -206 q 552 -203 552 -205 q 553 -198 553 -201 q 553 -194 553 -195 l 553 -194 q 551 -193 553 -193 l 551 -193 l 551 -193 q 550 -192 550 -193 l 550 -192 q 543 -117 551 -159 l 543 -117 q 519 -62 536 -85 l 519 -62 q 484 -35 507 -43 l 484 -35 q 441 -32 473 -31 l 441 -32 q 309 -32 437 -32 l 309 -32 q 308 -32 309 -32 l 308 -32 q 307 -33 307 -33 l 307 -33 q 173 -59 238 -34 q 54 -128 109 -84 l 54 -128 q 2 -170 16 -159 l 2 -170 q -4 -174 0 -172 q -10 -178 -8 -176 l -10 -178 q -150 -290 -26 -191 l -150 -290 l -151 -290 q -151 -289 -151 -290 q -151 -289 -151 -289 l -151 -289 q -138 -276 -142 -281 l -138 -276 q -127 -262 -130 -264 l -127 -262 q 22 -85 -47 -170 l 22 -85 q 85 13 51 -50 l 85 13 q 142 180 127 90 l 142 180 q 152 248 149 218 l 152 248 q 153 298 153 267 l 153 298 q 153 683 153 381 l 153 683 q 150 727 153 715 l 150 727 q 85 797 138 767 l 85 797 q 80 797 84 798 l 80 797 q 79 798 79 797 l 79 798 l 79 800 q 80 800 79 800 l 80 800 l 644 800 q 646 800 646 800 l 646 800 l 646 545 q 645 545 646 545 l 645 545 q 644 545 644 543 l 644 545 q 609 576 636 555 l 609 576 q 524 612 572 606 l 524 612 q 472 613 513 612 l 472 613 q 322 613 414 613 l 322 613 q 321 612 321 613 l 321 612 l 321 477 q 321 475 321 475 l 321 475 q 487 475 435 475 l 487 475 q 543 493 516 476 l 543 493 q 570 513 551 498 l 570 513 q 574 512 573 515 l 574 512 q 574 507 574 510 l 574 507 q 574 282 574 394 l 574 282 q 572 281 574 279 l 572 281 q 511 316 542 310 l 511 316 q 479 319 500 319 l 479 319 q 322 319 340 319 l 322 319 q 321 317 321 319 l 321 317 l 321 193 q 322 191 321 191 l 322 191 q 534 192 494 191 l 534 192 q 541 193 536 192 l 541 193 q 548 193 545 193 l 548 193 q 663 222 608 199 l 663 222 q 743 274 714 243 l 743 274 q 746 273 748 278 l 746 273 q 745 269 745 272 l 745 269 q 671 84 734 242 l 671 84 q 559 -193 611 -64 l 559 -193 q 558 -199 558 -197 l 558 -199 q 558 -200 559 -200 q 557 -201 558 -201 l 557 -201 q 556 -201 556 -200 z "},"F":{"ha":699,"x_min":-195,"x_max":601,"o":"m 276 319 l 276 319 q 276 66 276 177 l 276 66 q 277 54 276 59 l 277 54 q 283 37 282 38 l 283 37 q 338 -22 299 3 l 338 -22 q 343 -26 340 -23 l 343 -26 q 345 -26 344 -26 l 345 -26 q 350 -28 349 -26 l 350 -28 q 349 -30 351 -30 l 349 -30 q 265 -30 321 -30 l 265 -30 q 263 -30 264 -30 q 260 -31 261 -31 l 260 -31 q 208 -35 234 -31 l 208 -35 q 9 -126 98 -54 l 9 -126 q -43 -168 -28 -157 l -43 -168 q -49 -172 -45 -170 q -55 -176 -53 -174 l -55 -176 q -195 -288 -64 -183 l -195 -288 q -195 -288 -195 -288 q -195 -287 -195 -288 q -195 -287 -195 -287 l -195 -287 q -183 -274 -187 -279 l -183 -274 q -172 -260 -174 -262 l -172 -260 q -23 -83 -90 -167 l -23 -83 q 40 16 6 -47 l 40 16 q 98 183 82 92 l 98 183 q 107 250 104 220 l 107 250 q 109 300 109 269 l 109 300 q 109 685 109 384 l 109 685 q 105 729 109 717 l 105 729 q 41 799 93 769 l 41 799 q 35 799 39 800 l 35 799 q 35 800 35 799 l 35 800 l 35 802 q 35 802 35 802 l 35 802 l 600 802 q 601 802 601 802 l 601 802 l 601 548 q 600 546 601 547 l 600 546 q 599 546 600 546 q 598 547 598 546 l 598 547 q 595 552 596 551 l 595 552 q 559 583 583 565 l 559 583 q 494 611 530 604 l 494 611 q 453 614 475 614 l 453 614 q 277 615 433 615 l 277 615 q 276 614 276 615 l 276 614 l 276 479 q 277 477 276 477 l 277 477 q 444 477 437 477 l 444 477 q 486 488 467 478 l 486 488 q 526 515 507 500 l 526 515 q 528 515 527 515 l 528 515 q 529 513 529 515 l 529 513 l 529 281 q 528 280 529 280 l 528 280 q 527 280 528 280 q 527 281 527 280 l 527 281 q 513 295 523 288 l 513 295 q 471 317 492 311 l 471 317 q 434 321 458 321 l 434 321 q 277 321 433 321 l 277 321 q 276 319 276 321 z "},"G":{"ha":735,"x_min":-205,"x_max":609,"o":"m 263 614 l 263 614 l 263 410 q 264 409 263 409 l 264 409 q 266 404 266 408 l 266 404 q 266 193 266 245 l 266 193 q 267 191 266 191 l 267 191 q 368 191 353 191 l 368 191 q 378 196 374 191 l 378 196 q 423 254 406 221 l 423 254 q 440 307 438 281 l 440 307 q 429 380 444 345 l 429 380 q 380 455 411 424 l 380 455 q 380 456 380 456 l 380 456 q 381 457 380 457 l 381 457 l 605 457 q 606 456 606 457 l 606 456 l 606 -220 q 605 -221 606 -221 l 605 -221 l 604 -221 q 602 -220 602 -221 l 602 -220 l 602 -214 q 601 -212 602 -212 l 601 -212 q 600 -209 600 -211 l 600 -209 q 600 -207 600 -208 l 600 -207 q 560 -116 585 -163 l 560 -116 q 519 -56 543 -84 l 519 -56 q 503 -41 514 -49 l 503 -41 q 486 -33 494 -35 q 472 -30 477 -31 q 451 -30 466 -30 l 451 -30 q 254 -30 353 -30 l 254 -30 q 253 -30 254 -30 l 253 -30 q 252 -31 252 -31 l 252 -31 q 203 -35 224 -31 l 203 -35 q -1 -126 90 -53 l -1 -126 q -53 -168 -39 -157 l -53 -168 q -59 -172 -55 -170 q -65 -176 -63 -174 l -65 -176 q -205 -288 -85 -192 l -205 -288 q -205 -287 -205 -288 q -205 -287 -205 -287 l -205 -287 q -193 -274 -197 -279 l -193 -274 q -182 -260 -184 -262 l -182 -260 q -33 -83 -100 -167 l -33 -83 q 30 16 -4 -47 l 30 16 q 87 183 72 92 l 87 183 q 97 250 94 220 l 97 250 q 98 300 98 269 l 98 300 q 98 685 98 384 l 98 685 q 95 729 98 717 l 95 729 q 31 799 83 770 l 31 799 q 25 799 29 800 l 25 799 q 24 800 24 799 l 24 800 l 24 802 q 25 802 24 802 l 25 802 l 608 802 q 608 802 608 802 l 608 802 l 608 544 q 607 543 608 543 l 607 543 q 606 543 607 543 q 606 544 606 543 l 606 544 q 602 550 604 548 l 602 550 q 509 607 561 593 l 509 607 q 446 614 479 614 l 446 614 q 264 615 387 615 l 264 615 q 263 614 263 615 z "},"H":{"ha":916,"x_min":-60,"x_max":981,"o":"m 134 -187 l -60 -399 q 195 -219 68 -305 q 479 -134 321 -134 l 479 -134 q 399 -40 399 -86 l 399 -40 l 399 326 l 648 326 l 648 -5 q 568 -100 648 -62 l 568 -100 l 911 -100 q 831 -7 831 -51 l 831 -7 l 831 717 q 886 784 831 763 l 886 784 q 981 804 906 791 l 981 804 l 568 804 q 648 717 648 770 l 648 717 l 648 501 l 399 501 l 399 717 q 425 770 399 748 l 425 770 l 477 804 l 65 804 q 200 757 112 792 l 200 757 q 216 717 216 730 l 216 717 l 216 -45 q 182 -117 216 -59 l 182 -117 q 134 -187 149 -171 l 134 -187 z "},"I":{"ha":369,"x_min":-219,"x_max":335,"o":"m 90 722 q 89 724 90 723 q 88 724 88 724 l 88 724 q 71 762 84 745 l 71 762 q 29 795 56 781 l 29 795 q 25 798 28 796 q 21 801 23 800 q 16 801 19 802 l 16 801 q 16 802 16 801 l 16 802 l 16 804 q 16 804 16 804 l 16 804 l 328 804 q 329 802 334 804 l 329 802 q 291 779 309 793 l 291 779 q 254 708 254 749 l 254 708 q 254 83 254 375 l 254 83 q 257 52 254 62 l 257 52 q 292 -1 264 23 l 292 -1 q 325 -24 302 -9 l 325 -24 q 327 -24 326 -24 l 327 -24 q 331 -26 330 -24 l 331 -26 q 330 -28 332 -28 l 330 -28 q 256 -28 319 -28 l 256 -28 q 237 -28 244 -28 l 237 -28 q 225 -29 233 -28 q 212 -30 217 -29 l 212 -30 q -8 -120 88 -43 l -8 -120 q -66 -165 -54 -156 l -66 -165 q -73 -170 -68 -168 q -79 -174 -77 -172 l -79 -174 q -218 -286 -193 -265 l -218 -286 q -219 -286 -218 -286 q -219 -285 -219 -286 q -219 -285 -219 -285 l -219 -285 q -207 -272 -212 -277 l -207 -272 q -196 -258 -198 -260 l -196 -258 q -47 -81 -98 -145 l -47 -81 q 37 60 1 -20 l 37 60 q 46 81 42 70 q 53 101 50 92 q 60 123 56 110 q 65 143 63 136 q 70 165 67 150 q 74 185 73 180 q 78 208 75 191 q 81 229 80 225 q 84 253 81 233 q 87 275 87 273 l 87 275 q 90 312 90 294 l 90 312 q 90 715 90 618 l 90 715 q 90 722 90 720 l 90 722 z "},"J":{"ha":712,"x_min":18,"x_max":696,"o":"m 119 -294 l 119 -294 l 18 240 q 93 165 68 182 l 93 165 q 193 140 131 140 l 193 140 l 314 140 q 409 229 375 140 l 409 229 q 435 366 435 296 l 435 366 l 433 701 q 353 804 433 763 l 353 804 l 696 804 q 618 702 630 769 l 618 702 q 615 561 615 687 l 615 561 l 615 515 q 585 134 615 258 l 585 134 q 390 -94 534 -71 l 390 -94 q 192 -100 356 -100 l 192 -100 q 119 -294 119 -152 z "},"K":{"ha":812,"x_min":-170,"x_max":768,"o":"m 295 281 l 295 281 q 294 280 294 281 l 294 280 q 294 62 294 235 l 294 62 q 296 49 294 55 l 296 49 q 300 37 298 41 l 300 37 q 355 -25 312 1 l 355 -25 q 357 -25 355 -25 l 357 -25 l 357 -25 q 358 -26 357 -25 l 358 -26 q 359 -28 358 -28 l 359 -28 q 362 -28 361 -28 l 362 -28 l 368 -34 q 368 -35 368 -34 l 368 -35 q 368 -36 368 -36 l 368 -36 q 365 -35 366 -36 q 363 -34 364 -34 l 363 -34 q 325 -34 355 -34 l 325 -34 q 288 -35 305 -34 l 288 -35 q 243 -41 254 -39 l 243 -41 q 94 -92 163 -52 l 94 -92 q 9 -155 62 -110 l 9 -155 q -16 -174 -4 -165 l -16 -174 q -41 -192 -31 -184 l -41 -192 q -169 -294 -81 -224 l -169 -294 q -169 -294 -169 -294 q -169 -294 -169 -294 l -169 -294 q -157 -280 -162 -288 l -157 -280 q -146 -266 -148 -269 l -146 -266 q 5 -87 -64 -174 l 5 -87 q 71 16 35 -50 l 71 16 q 116 138 100 71 l 116 138 q 127 220 127 182 l 127 220 q 127 694 127 374 l 127 694 q 124 725 127 715 l 124 725 q 79 781 114 758 l 79 781 q 60 793 72 787 l 60 793 q 54 795 58 795 l 54 795 q 53 795 53 795 l 53 795 l 53 798 q 53 798 53 798 l 53 798 l 293 798 q 294 798 294 798 l 294 798 l 294 475 q 294 474 294 475 l 294 474 q 296 474 295 473 l 296 474 q 296 475 296 474 l 296 475 l 296 476 q 297 478 296 477 l 297 478 q 304 487 300 481 q 311 495 309 492 l 311 495 q 321 507 312 496 l 321 507 q 396 602 338 528 l 396 602 q 451 679 429 644 l 451 679 q 471 719 465 701 l 471 719 q 465 787 483 748 l 465 787 q 462 794 464 790 q 458 800 460 798 l 458 800 q 461 802 456 805 l 461 802 q 476 785 467 796 q 489 771 486 774 l 489 771 q 547 713 514 746 l 547 713 q 561 698 551 709 q 576 682 570 688 l 576 682 q 641 614 630 627 l 641 614 q 656 597 649 606 l 656 597 q 656 597 657 597 l 656 597 l 656 596 q 655 596 656 596 l 655 596 q 651 598 653 598 l 651 598 q 649 599 650 598 l 649 599 q 642 600 647 601 l 642 600 q 640 601 641 600 l 640 601 q 606 597 627 606 l 606 597 q 590 587 595 594 l 590 587 q 585 581 589 585 q 581 575 582 577 l 581 575 q 444 395 513 486 l 444 395 q 443 391 443 393 q 444 387 443 389 l 444 387 q 471 347 450 378 l 471 347 q 589 172 549 225 l 589 172 q 644 102 618 131 l 644 102 q 692 62 663 81 l 692 62 q 761 57 726 39 l 761 57 q 763 55 768 60 l 763 55 l 536 -210 q 534 -208 531 -216 l 534 -208 q 544 -140 543 -179 l 544 -140 q 524 -25 546 -80 l 524 -25 q 450 94 498 34 l 450 94 q 311 261 434 114 l 311 261 q 307 266 308 264 l 307 266 q 303 271 304 268 l 303 271 q 295 281 301 276 z "},"L":{"ha":688,"x_min":-192,"x_max":612,"o":"m 605 -217 l 605 -217 l 604 -217 q 603 -216 603 -217 l 603 -216 q 602 -210 604 -211 l 602 -210 q 601 -208 601 -209 q 600 -205 601 -206 l 600 -205 q 600 -203 600 -203 l 600 -203 q 555 -96 563 -112 l 555 -96 q 475 -28 522 -28 l 475 -28 q 275 -28 461 -28 l 275 -28 q 269 -29 273 -28 q 262 -31 264 -31 l 262 -31 q 50 -99 142 -38 l 50 -99 q -14 -149 22 -119 l -14 -149 q -39 -168 -22 -156 q -62 -185 -56 -180 l -62 -185 q -191 -288 -114 -227 l -191 -288 q -191 -288 -191 -288 q -191 -288 -191 -288 q -191 -288 -191 -288 l -191 -288 q -180 -275 -185 -281 l -180 -275 q -169 -261 -171 -263 l -169 -261 q -35 -102 -100 -182 l -35 -102 q -3 -62 -13 -77 l -3 -62 q 92 140 67 39 l 92 140 q 104 226 104 187 l 104 226 q 104 686 105 410 l 104 686 q 101 732 104 719 l 101 732 q 37 801 90 771 l 37 801 q 31 801 35 802 l 31 801 q 31 802 31 801 l 31 802 l 31 804 q 31 804 31 804 l 31 804 l 348 804 q 349 804 349 804 l 349 804 q 348 803 349 803 q 348 802 348 803 l 348 802 q 339 799 342 801 l 339 799 q 278 732 290 770 l 278 732 q 274 685 274 720 l 274 685 q 274 195 274 487 l 274 195 q 275 193 274 193 l 275 193 l 611 193 q 612 192 612 193 l 612 192 l 612 -228 q 611 -229 612 -229 l 611 -229 l 610 -229 q 608 -228 608 -229 l 608 -228 l 608 -223 q 608 -222 608 -222 l 608 -222 l 606 -222 q 606 -221 605 -222 l 606 -221 q 606 -219 606 -220 l 606 -219 q 605 -217 606 -217 z "},"M":{"ha":872,"x_min":-165,"x_max":935,"o":"m -165 -395 l -165 -395 q -23 -241 -85 -311 l -23 -241 q 110 -54 110 -95 l 110 -54 l 109 717 q 52 783 109 762 l 52 783 l -41 804 l 322 804 q 277 751 290 788 l 277 751 q 352 571 292 681 l 352 571 l 447 396 l 543 571 q 618 751 601 678 l 618 751 l 600 787 l 571 804 l 935 804 l 867 784 q 802 755 827 772 l 802 755 l 785 717 l 785 -7 q 865 -100 785 -62 l 865 -100 l 521 -100 q 603 -7 603 -55 l 603 -7 l 603 257 l 446 -109 l 292 257 l 292 -54 q 321 -104 292 -81 l 321 -104 q 372 -134 330 -109 l 372 -134 q 82 -219 203 -136 l 82 -219 q -165 -395 14 -268 z "},"N":{"ha":988,"x_min":-137,"x_max":798,"o":"m 785 -24 l 785 -24 l 787 -24 q 789 -26 788 -24 l 789 -26 q 791 -27 790 -27 l 791 -27 q 793 -27 793 -26 l 793 -27 l 797 -31 q 797 -31 798 -31 l 797 -31 l 796 -32 q 796 -32 796 -32 l 796 -32 l 793 -30 q 791 -29 793 -29 l 791 -29 q 489 -29 640 -29 l 489 -29 q 481 -31 484 -29 l 481 -31 q 481 -31 481 -31 l 481 -31 q 480 -31 480 -31 l 480 -31 q 480 -30 480 -31 l 480 -30 q 481 -28 481 -30 l 481 -28 q 484 -27 482 -28 l 484 -27 q 494 -22 488 -26 l 494 -22 q 514 -9 502 -17 l 514 -9 q 519 -4 515 -8 q 526 1 524 0 l 526 1 q 535 9 528 2 l 535 9 q 540 16 538 12 l 540 16 q 545 22 542 19 l 545 22 q 547 24 547 22 l 547 24 q 548 26 547 26 l 548 26 q 549 28 549 27 l 549 28 l 549 28 q 551 32 549 31 l 551 32 q 552 34 552 33 l 552 34 q 553 37 551 36 l 553 37 q 554 39 554 38 l 554 39 q 556 45 554 43 l 556 45 q 557 47 557 46 l 557 47 q 555 75 557 72 l 555 75 q 330 365 422 245 l 330 365 q 328 367 328 367 l 328 367 q 326 369 326 368 l 326 369 q 323 374 326 372 l 323 374 q 321 374 321 375 l 321 374 l 321 51 q 322 49 321 50 l 322 49 q 324 43 323 47 q 326 39 325 40 l 326 39 q 337 16 332 22 l 337 16 q 378 -18 356 -7 l 378 -18 q 388 -26 387 -23 l 388 -26 q 390 -26 389 -26 l 390 -26 q 395 -31 393 -26 l 395 -31 q 394 -32 395 -32 l 394 -32 q 392 -31 393 -31 q 390 -30 391 -30 l 390 -30 q 342 -30 364 -30 l 342 -30 q 269 -38 323 -30 l 269 -38 q 127 -88 194 -50 l 127 -88 q 41 -150 95 -106 l 41 -150 q 16 -170 28 -161 l 16 -170 q -9 -189 1 -180 l -9 -189 q -136 -290 -47 -219 l -136 -290 q -136 -290 -136 -290 q -136 -290 -136 -290 q -136 -290 -136 -290 l -136 -290 q -125 -277 -130 -283 l -125 -277 q -113 -262 -115 -265 l -113 -262 q 20 -104 -46 -186 l 20 -104 q 52 -64 41 -80 l 52 -64 q 151 152 129 46 l 151 152 q 155 186 155 171 l 155 186 q 155 707 155 330 l 155 707 q 152 730 155 722 l 152 730 q 141 751 149 743 l 141 751 q 94 793 123 775 l 94 793 q 90 796 94 793 l 90 796 q 81 799 85 800 l 81 799 q 80 800 80 799 l 80 800 l 80 802 q 81 802 80 802 l 81 802 l 395 802 q 396 801 396 802 l 396 801 q 392 799 395 799 l 392 799 q 390 798 391 799 l 390 798 q 358 778 370 788 l 358 778 q 321 709 327 751 l 321 709 q 325 693 320 700 l 325 693 q 330 687 326 692 l 330 687 q 539 417 452 528 l 539 417 q 543 410 539 417 l 543 410 q 547 407 545 409 q 550 403 549 405 q 551 399 552 401 l 551 399 q 553 398 551 398 l 553 398 l 553 398 q 553 399 553 398 l 553 399 q 553 706 553 605 l 553 706 q 535 760 553 739 l 535 760 q 486 798 513 783 l 486 798 q 482 799 484 800 l 482 799 q 481 800 481 799 l 481 800 l 481 802 q 482 802 481 802 l 482 802 l 797 802 q 798 802 798 802 l 798 802 l 798 800 l 798 800 q 797 800 798 800 l 797 800 q 787 798 788 798 l 787 798 q 764 784 770 788 l 764 784 q 723 735 732 763 l 723 735 q 720 709 720 727 l 720 709 q 720 80 721 413 l 720 80 q 721 74 720 78 q 722 68 722 71 l 722 68 q 723 45 722 55 l 723 45 q 724 43 723 43 l 724 43 q 726 38 726 40 l 726 38 q 726 35 725 37 l 726 35 q 728 29 729 33 l 728 29 q 728 28 728 28 l 728 28 q 729 27 728 27 l 729 27 q 731 24 731 26 l 731 24 q 732 22 730 23 l 732 22 l 735 18 q 736 17 736 18 l 736 17 q 736 16 736 16 l 736 16 q 738 13 736 15 l 738 13 q 755 -5 747 3 l 755 -5 q 760 -8 755 -5 l 760 -8 q 766 -14 764 -9 l 766 -14 q 768 -14 767 -14 l 768 -14 q 771 -16 770 -14 l 771 -16 q 772 -17 771 -17 l 772 -17 q 779 -21 777 -17 l 779 -21 q 781 -22 779 -22 l 781 -22 q 784 -24 783 -22 l 784 -24 q 785 -24 785 -24 z "},"O":{"ha":762,"x_min":-157,"x_max":688,"o":"m 62 334 l 62 334 q 61 335 62 334 l 61 335 q 60 336 60 335 l 60 336 l 60 447 q 62 448 60 448 l 62 448 l 62 449 q 62 449 62 449 l 62 449 q 92 612 66 538 l 92 612 q 156 716 115 673 l 156 716 q 231 769 186 747 l 231 769 q 337 795 275 789 l 337 795 q 339 795 338 795 l 339 795 q 342 796 341 796 l 342 796 q 406 796 385 796 l 406 796 q 409 795 407 796 q 412 794 410 794 l 412 794 q 498 777 454 793 l 498 777 q 614 692 570 751 l 614 692 q 636 656 625 676 l 636 656 q 653 619 645 641 l 653 619 q 682 503 674 565 l 682 503 q 686 448 686 464 l 686 448 q 687 446 686 446 l 687 446 q 688 439 688 444 l 688 439 q 688 341 688 391 l 688 341 q 687 338 688 339 l 687 338 q 686 335 686 336 l 686 335 q 686 311 686 321 l 686 311 q 677 237 685 290 l 677 237 q 652 133 670 184 l 652 133 q 487 -31 608 8 l 487 -31 q 437 -42 465 -38 l 437 -42 q 330 -44 386 -50 l 330 -44 q 295 -41 313 -42 l 295 -41 q 243 -45 271 -40 l 243 -45 q 56 -130 137 -64 l 56 -130 q -5 -177 22 -156 l -5 -177 q -14 -184 -12 -182 l -14 -184 q -156 -296 -32 -197 l -156 -296 q -156 -296 -156 -296 q -156 -296 -156 -296 q -156 -296 -156 -296 l -156 -296 q -144 -283 -149 -290 l -144 -283 q -133 -269 -135 -271 l -133 -269 q -12 -127 -71 -197 l -12 -127 q 18 -86 8 -102 l 18 -86 q 90 115 77 9 l 90 115 q 92 134 92 127 l 92 134 q 90 152 92 141 l 90 152 q 80 193 88 159 l 80 193 q 68 254 70 238 l 68 254 q 68 264 68 263 l 68 264 q 66 276 66 273 l 66 276 q 64 294 66 284 l 64 294 q 63 313 63 304 l 63 313 q 62 334 63 318 l 62 334 q 62 334 62 334 z m 379 65 l 379 65 q 501 144 468 65 l 501 144 q 524 305 524 198 l 524 305 l 524 343 q 524 343 524 343 l 524 343 q 524 364 524 343 l 524 364 q 524 378 524 364 l 524 378 q 508 555 524 507 l 508 555 q 379 648 478 648 l 379 648 q 257 576 290 648 l 257 576 q 235 427 235 527 l 235 427 l 235 366 q 247 173 235 219 l 247 173 q 379 65 275 65 z m 282 361 l 379 505 l 476 361 l 379 220 q 282 361 347 267 l 282 361 z "},"P":{"ha":738,"x_min":-178,"x_max":671,"o":"m 283 301 l 283 301 q 283 77 283 288 l 283 77 q 288 45 283 59 l 288 45 q 355 -25 300 8 l 355 -25 q 355 -28 361 -28 l 355 -28 q 229 -36 291 -26 l 229 -36 q 86 -86 153 -48 l 86 -86 q 0 -149 54 -104 l 0 -149 q -24 -167 -13 -159 l -24 -167 q -47 -185 -39 -178 l -47 -185 q -177 -288 -98 -225 l -177 -288 q -177 -288 -177 -288 q -177 -288 -177 -288 q -177 -288 -177 -288 l -177 -288 q -165 -275 -171 -281 l -165 -275 q -155 -261 -157 -263 l -155 -261 q -20 -102 -91 -189 l -20 -102 q 12 -62 1 -76 l 12 -62 q 67 32 43 -16 l 67 32 q 106 138 92 80 l 106 138 q 119 226 119 186 l 119 226 q 119 701 119 254 l 119 701 q 115 732 119 722 l 115 732 q 71 788 104 766 l 71 788 q 52 800 65 792 l 52 800 q 45 801 50 801 l 45 801 q 45 802 45 801 l 45 802 l 45 804 q 45 804 45 804 l 45 804 q 504 804 421 804 l 504 804 q 522 802 506 804 l 522 802 q 564 785 543 798 l 564 785 q 594 758 582 772 l 594 758 q 635 695 617 732 l 635 695 q 669 559 665 631 l 669 559 q 665 477 671 522 l 665 477 q 607 359 652 397 l 607 359 q 418 304 541 302 l 418 304 q 414 303 416 304 q 410 302 412 302 l 410 302 q 285 302 351 302 l 285 302 q 283 301 283 302 z m 532 528 l 532 528 q 506 583 532 561 q 447 606 481 606 l 447 606 l 296 606 l 296 449 l 447 449 q 507 471 481 449 q 532 528 532 494 z "},"Q":{"ha":988,"x_min":-190,"x_max":829,"o":"m 279 -114 l 312 -69 q 490 -110 397 -110 l 490 -110 q 770 39 690 -110 l 770 39 q 829 371 829 150 l 829 371 q 490 806 829 806 l 490 806 q 151 371 151 806 l 151 371 q 208 42 151 147 l 208 42 q 33 -218 122 -90 l 33 -218 q -190 -428 -18 -292 l -190 -428 q -3 -345 -109 -404 l -3 -345 q 159 -261 115 -279 l 159 -261 q 359 -222 255 -222 l 359 -222 q 279 -114 295 -177 l 279 -114 z m 433 363 l 355 251 q 351 377 351 304 l 351 377 q 366 557 351 510 l 366 557 q 496 650 396 650 l 496 650 q 625 557 595 650 l 625 557 q 640 377 640 510 l 640 377 q 629 177 640 222 l 629 177 q 496 63 602 63 l 496 63 q 425 80 458 63 l 425 80 q 530 218 459 123 l 530 218 l 433 363 z "},"R":{"ha":1028,"x_min":-182,"x_max":801,"o":"m 114 717 l 114 717 q 113 717 113 717 l 113 717 q 113 717 113 717 l 113 717 q 96 751 109 736 l 96 751 q 49 793 76 777 l 49 793 q 47 794 48 794 q 46 795 46 794 l 46 795 q 45 797 45 796 q 43 797 45 797 l 43 797 q 41 796 42 796 l 41 796 q 40 797 40 796 l 40 797 l 40 802 q 41 802 40 802 l 41 802 l 511 802 q 512 802 512 802 l 512 802 l 512 800 q 513 800 512 800 l 513 800 l 524 800 l 524 800 q 525 799 526 800 l 525 799 l 525 798 q 526 798 525 798 l 526 798 q 526 798 526 798 l 526 798 l 532 798 q 533 795 533 798 l 533 795 q 533 795 533 795 q 534 795 534 795 l 534 795 l 538 795 q 541 793 540 795 l 541 793 q 544 792 541 791 l 544 792 q 544 792 544 792 l 544 792 q 546 791 545 792 l 546 791 q 548 789 547 790 l 548 789 q 550 789 549 789 l 550 789 q 570 775 561 783 l 570 775 q 572 774 570 774 l 572 774 q 574 772 572 774 l 574 772 q 599 746 592 755 l 599 746 q 640 672 625 712 l 640 672 q 660 605 653 640 l 660 605 q 661 597 660 605 l 661 597 q 663 591 661 593 l 663 591 q 663 589 663 589 l 663 589 q 664 575 663 580 l 664 575 q 665 562 665 565 l 665 562 q 655 449 668 503 l 655 449 q 629 388 647 416 l 629 388 q 595 350 617 368 l 595 350 q 532 309 565 324 l 532 309 q 532 307 531 308 l 532 307 q 685 118 617 201 l 685 118 q 715 73 703 96 l 715 73 q 729 48 726 53 l 729 48 q 792 -23 756 8 l 792 -23 q 793 -24 793 -24 l 793 -24 q 795 -24 794 -24 l 795 -24 q 795 -24 795 -24 l 795 -24 q 800 -30 796 -26 l 800 -30 q 801 -31 801 -30 l 801 -31 l 801 -31 q 800 -32 801 -33 l 800 -32 l 798 -31 q 795 -30 797 -30 l 795 -30 l 471 -30 q 469 -31 470 -30 q 467 -31 468 -31 l 467 -31 q 466 -31 465 -32 l 466 -31 q 471 -26 469 -26 l 471 -26 q 473 -25 472 -26 l 473 -25 q 486 -16 477 -22 q 498 -7 494 -10 l 498 -7 q 523 16 508 1 l 523 16 q 538 43 541 35 l 538 43 q 526 62 535 50 l 526 62 q 428 186 475 127 l 428 186 q 388 235 418 197 q 342 291 358 273 l 342 291 q 332 298 337 298 l 332 298 q 281 298 302 298 l 281 298 q 279 296 279 298 l 279 296 l 279 56 q 280 56 279 56 l 280 56 l 281 56 q 282 55 282 56 l 282 55 l 282 47 q 283 45 282 46 l 283 45 q 284 45 284 45 l 284 45 q 285 44 285 45 l 285 44 l 285 39 q 286 38 285 39 l 286 38 q 288 35 288 37 l 288 35 q 287 35 287 35 l 287 35 q 288 33 287 34 l 288 33 q 290 30 290 32 l 290 30 q 291 28 290 28 l 291 28 q 295 23 293 26 q 298 18 296 20 l 298 18 q 302 12 301 15 l 302 12 q 316 -3 306 6 l 316 -3 q 317 -3 317 -3 l 317 -3 q 319 -4 318 -3 l 319 -4 l 336 -18 q 338 -19 337 -18 l 338 -19 q 343 -23 340 -19 l 343 -23 q 345 -24 344 -24 l 345 -24 q 347 -24 346 -24 l 347 -24 q 349 -25 349 -23 l 349 -25 q 349 -26 349 -25 l 349 -26 l 349 -26 q 350 -26 349 -26 l 350 -26 q 353 -26 351 -26 q 354 -27 354 -25 l 354 -27 q 352 -30 354 -28 l 352 -30 q 351 -31 351 -30 l 351 -31 q 352 -31 352 -31 q 353 -32 353 -31 l 353 -32 q 353 -34 353 -33 l 353 -34 q 351 -34 353 -35 l 351 -34 l 349 -33 q 349 -33 349 -33 l 349 -33 l 300 -33 q 269 -33 284 -33 l 269 -33 q 83 -87 169 -39 l 83 -87 q -3 -150 51 -106 l -3 -150 q -28 -170 -16 -161 l -28 -170 q -54 -189 -43 -180 l -54 -189 q -181 -290 -92 -218 l -181 -290 q -181 -290 -181 -290 q -181 -290 -181 -290 q -181 -290 -181 -290 l -181 -290 q -169 -276 -174 -283 l -169 -276 q -157 -262 -158 -262 l -157 -262 q -8 -84 -55 -144 l -8 -84 q 68 40 35 -29 l 68 40 q 109 168 95 97 l 109 168 q 115 229 115 194 l 115 229 q 115 716 115 531 l 115 716 q 114 717 115 717 z m 532 528 l 532 528 q 506 583 532 561 q 447 606 481 606 l 447 606 l 296 606 l 296 449 l 447 449 q 507 471 481 449 q 532 528 532 494 z "},"S":{"ha":814,"x_min":-131,"x_max":786,"o":"m 408 -154 l 408 -154 q 324 -140 380 -154 q 240 -126 269 -126 l 240 -126 q 58 -206 194 -126 l 58 -206 l -131 -317 q 97 -94 -14 -229 l 97 -94 q 269 174 211 45 l 269 174 q 331 73 285 112 q 439 35 376 35 l 439 35 q 558 139 558 35 l 558 139 q 457 248 558 213 l 457 248 q 258 315 401 266 l 258 315 q 121 443 146 355 l 121 443 l 121 441 l 118 453 l 115 472 q 402 804 115 804 l 402 804 q 548 764 452 804 q 671 724 644 724 l 671 724 q 726 733 690 724 q 782 742 763 742 l 782 742 l 786 741 l 782 734 l 553 472 q 408 612 549 612 l 408 612 q 328 589 359 612 l 328 589 q 293 515 293 562 l 293 515 q 414 425 293 452 l 414 425 q 639 363 600 382 l 639 363 q 760 151 760 301 l 760 151 q 659 -83 760 -5 l 659 -83 q 408 -154 569 -154 z "},"T":{"ha":725,"x_min":-29,"x_max":673,"o":"m 434 608 l 434 608 q 434 73 434 138 l 434 73 q 437 45 434 55 l 437 45 q 503 -28 450 4 l 503 -28 q 508 -29 506 -29 l 508 -29 q 509 -30 509 -29 l 509 -30 l 509 -32 q 508 -33 509 -33 l 508 -33 q 395 -35 423 -32 l 395 -35 q 212 -102 294 -47 l 212 -102 q 171 -133 196 -113 l 171 -133 q 121 -172 133 -163 l 121 -172 q 117 -175 119 -174 q 112 -178 114 -176 l 112 -178 q -28 -290 71 -211 l -28 -290 l -28 -290 l -28 -290 l -28 -290 q -15 -275 -23 -283 l -15 -275 q -13 -272 -14 -274 q -12 -269 -12 -270 l -12 -269 q 128 -104 60 -188 l 128 -104 q 159 -64 149 -79 l 159 -64 q 220 40 193 -16 l 220 40 q 256 140 241 84 l 256 140 q 267 223 267 185 l 267 223 q 267 609 267 245 l 267 609 q 267 610 267 610 l 267 610 q 156 610 162 610 l 156 610 q 101 592 126 609 l 101 592 q 65 562 80 578 l 65 562 q 33 518 48 543 l 33 518 q 29 516 32 517 l 29 516 q 28 517 28 515 l 28 517 l 77 798 q 80 800 78 800 l 80 800 l 623 800 q 623 799 623 800 l 623 799 q 624 792 623 794 l 624 792 q 672 519 665 552 l 672 519 q 671 513 672 517 l 671 513 q 671 513 671 513 l 671 513 q 670 513 671 513 l 670 513 q 665 522 667 518 l 665 522 q 650 538 665 522 l 650 538 q 640 549 641 549 l 640 549 q 583 595 612 578 l 583 595 q 528 610 558 609 l 528 610 q 435 610 518 610 l 435 610 q 434 608 434 610 z "},"U":{"ha":844,"x_min":-151,"x_max":791,"o":"m 120 397 l 120 397 l 120 470 q 121 471 120 471 l 121 471 q 122 470 121 470 q 122 471 122 471 l 122 471 q 122 595 122 581 l 122 595 q 121 605 122 598 q 120 616 120 612 l 120 616 q 105 705 117 662 l 105 705 q 81 760 97 735 l 81 760 q 51 793 71 775 l 51 793 q 41 797 47 796 l 41 797 q 41 798 41 797 l 41 798 l 41 800 q 41 800 41 800 l 41 800 l 353 800 q 353 798 359 800 l 353 798 q 332 785 343 793 l 332 785 q 285 727 296 760 l 285 727 q 281 707 281 719 l 281 707 q 281 321 281 694 l 281 321 q 282 320 281 321 l 282 320 l 283 319 q 284 317 284 319 l 284 317 q 290 238 283 281 l 290 238 q 320 163 296 195 q 384 123 344 131 l 384 123 q 473 133 434 113 l 473 133 q 524 191 507 150 l 524 191 q 535 222 532 208 l 535 222 q 541 251 537 229 l 541 251 q 545 294 543 262 l 545 294 q 547 336 547 313 l 547 336 q 547 608 547 453 l 547 608 q 548 608 547 609 l 548 608 q 549 608 549 608 l 549 608 q 549 609 549 608 l 549 609 q 549 675 549 629 l 549 675 q 541 724 549 700 l 541 724 q 498 782 530 758 l 498 782 q 480 796 484 793 l 480 796 q 477 797 479 797 l 477 797 l 473 797 q 473 798 473 797 l 473 798 l 473 800 q 473 800 473 800 l 473 800 l 787 800 q 787 799 790 800 l 787 799 q 745 764 763 787 l 745 764 q 717 708 726 736 l 717 708 q 704 617 704 666 l 704 617 q 704 549 704 580 l 704 549 q 705 538 704 543 l 705 538 q 707 528 707 532 l 707 528 q 707 504 706 515 l 707 504 q 709 485 709 488 l 709 485 q 710 466 709 475 l 710 466 q 711 445 711 456 l 711 445 q 711 424 711 439 l 711 424 q 713 422 711 422 l 713 422 q 713 421 713 422 l 713 421 q 714 420 714 421 l 714 420 q 714 320 714 370 l 714 320 q 712 316 714 317 l 712 316 q 711 314 711 315 l 711 314 q 711 279 711 292 l 711 279 q 702 205 708 241 l 702 205 q 683 127 695 163 l 683 127 q 639 48 668 83 q 570 -5 610 14 l 570 -5 q 492 -31 533 -23 l 492 -31 q 362 -35 436 -41 l 362 -35 q 323 -32 332 -32 l 323 -32 q 256 -40 302 -33 l 256 -40 q 113 -90 178 -52 l 113 -90 q 26 -153 80 -109 l 26 -153 q 3 -171 14 -163 l 3 -171 q -21 -189 -12 -182 l -21 -189 q -151 -292 -72 -229 l -151 -292 q -151 -292 -151 -292 q -151 -292 -151 -292 q -151 -292 -151 -292 l -151 -292 q -139 -279 -144 -286 l -139 -279 q -128 -265 -130 -267 l -128 -265 q 6 -106 -61 -189 l 6 -106 q 38 -66 26 -83 l 38 -66 q 93 27 65 -27 l 93 27 q 132 132 118 75 l 132 132 q 134 159 136 149 l 134 159 q 130 178 130 178 l 130 178 q 121 243 124 208 l 121 243 q 119 274 119 259 l 119 274 q 119 274 119 274 l 119 274 l 119 275 q 117 277 117 275 l 117 277 l 117 396 q 118 397 117 397 l 118 397 q 119 396 119 396 q 120 397 120 397 z m 325 359 l 422 504 l 519 359 l 422 220 q 325 359 391 267 l 325 359 z "},"V":{"ha":876,"x_min":-34,"x_max":833,"o":"m 187 326 l 187 326 q 188 331 186 328 l 188 331 q 188 333 189 332 l 188 333 q 188 340 186 336 l 188 340 q 188 342 189 341 l 188 342 q 188 346 186 345 l 188 346 q 187 348 189 347 l 187 348 q 189 354 185 351 l 189 354 q 189 355 189 355 l 189 355 q 188 356 188 356 l 188 356 q 186 357 186 357 l 186 357 q 189 362 187 359 l 189 362 q 189 365 189 363 l 189 365 q 188 365 189 365 l 188 365 q 187 368 186 366 l 187 368 q 188 374 190 371 l 188 374 q 188 377 187 376 l 188 377 q 189 382 190 380 l 189 382 q 189 385 188 383 l 189 385 q 189 391 190 389 l 189 391 q 189 393 189 392 l 189 393 q 189 396 190 395 q 188 398 188 397 l 188 398 l 189 402 q 189 404 189 404 l 189 404 q 189 410 188 407 l 189 410 q 189 413 191 412 l 189 413 q 189 415 189 414 l 189 415 l 190 418 q 189 421 190 420 l 189 421 q 189 425 189 422 l 189 425 q 190 426 190 425 l 190 426 l 186 457 q 184 458 185 458 l 184 458 q 184 463 184 460 l 184 463 q 184 468 185 465 l 184 468 q 183 470 183 469 l 183 470 q 183 474 184 473 l 183 474 q 182 476 182 475 l 182 476 l 178 510 q 177 512 178 511 q 177 515 177 513 q 177 518 176 516 q 177 520 177 519 l 177 520 q 170 569 174 551 l 170 569 q 155 631 161 604 l 155 631 q 149 651 153 636 q 143 675 145 667 l 143 675 q 132 708 135 700 l 132 708 q 94 783 117 749 l 94 783 q 83 798 89 791 l 83 798 q 82 798 82 798 l 82 798 q 83 800 82 800 l 83 800 q 83 800 83 800 l 83 800 l 333 800 q 334 798 334 800 l 334 798 q 326 790 331 794 l 326 790 q 307 780 315 783 l 307 780 q 302 772 304 779 l 302 772 q 298 764 300 766 l 298 764 q 288 740 294 755 l 288 740 q 288 737 287 739 l 288 737 q 289 726 288 734 q 290 715 290 719 l 290 715 q 298 670 298 678 l 298 670 q 311 587 304 621 l 311 587 q 319 553 318 555 l 319 553 q 323 522 321 543 q 325 499 325 500 l 325 499 q 330 451 325 499 l 330 451 q 334 402 333 423 l 334 402 q 332 304 336 351 l 332 304 q 335 303 331 298 l 335 303 q 473 490 407 394 l 473 490 q 566 646 525 565 l 566 646 q 599 739 587 690 l 599 739 q 599 745 600 742 l 599 745 q 592 768 596 756 l 592 768 q 590 772 591 768 q 588 777 589 776 q 586 781 587 779 q 582 785 585 783 l 582 785 q 565 795 574 789 l 565 795 q 561 797 563 796 l 561 797 q 559 798 559 797 l 559 798 l 560 799 q 561 800 560 800 l 561 800 l 831 800 q 832 798 833 800 l 832 798 q 829 797 831 797 l 829 797 q 826 795 827 797 l 826 795 q 812 787 819 791 l 812 787 q 787 766 805 784 l 787 766 q 779 753 782 761 l 779 753 q 766 732 778 752 l 766 732 q 743 672 763 724 l 743 672 q 735 657 741 667 q 728 642 730 647 l 728 642 q 686 551 706 588 l 686 551 q 638 467 671 524 l 638 467 q 583 382 611 420 l 583 382 q 553 340 565 357 l 553 340 q 495 260 527 300 l 495 260 q 401 147 431 181 l 401 147 q 332 71 349 90 l 332 71 q 210 -56 283 18 l 210 -56 q -4 -271 130 -139 l -4 -271 q -32 -298 -22 -289 l -32 -298 q -33 -298 -32 -298 l -33 -298 q -33 -297 -34 -298 l -33 -297 l -22 -279 q -22 -279 -22 -279 l -22 -279 q -20 -273 -22 -278 l -20 -273 q 80 -73 33 -179 l 80 -73 q 104 -16 99 -31 l 104 -16 q 107 -8 107 -10 l 107 -8 q 109 -6 108 -7 l 109 -6 q 110 -3 110 -5 l 110 -3 q 111 -1 110 -1 l 111 -1 q 116 13 114 5 l 116 13 q 119 22 118 20 q 121 28 121 24 l 121 28 q 123 32 121 29 l 123 32 q 125 34 124 33 l 125 34 q 127 45 125 37 l 127 45 q 129 47 127 46 l 129 47 q 130 52 130 49 q 132 56 130 54 l 132 56 q 133 58 133 57 l 133 58 q 134 64 132 61 l 134 64 q 136 66 136 64 l 136 66 q 140 76 138 73 l 140 76 q 140 79 141 77 l 140 79 q 141 83 140 81 l 141 83 q 142 85 142 83 l 142 85 l 149 109 q 149 111 149 110 l 149 111 q 149 113 148 112 l 149 113 q 150 114 150 113 l 150 114 l 161 151 q 161 153 161 152 l 161 153 q 162 159 160 156 l 162 159 q 163 161 163 160 l 163 161 q 165 169 163 165 l 165 169 q 165 170 165 170 l 165 170 l 164 170 q 164 171 164 171 l 164 171 q 166 176 165 172 l 166 176 q 167 180 166 176 l 167 180 q 168 184 167 182 l 168 184 q 169 187 169 186 l 169 187 q 171 199 169 194 l 171 199 q 172 201 172 200 l 172 201 q 174 208 171 205 l 174 208 q 174 211 174 210 l 174 211 q 175 216 173 214 l 175 216 q 176 219 175 218 l 176 219 l 180 251 q 180 252 180 252 l 180 252 q 181 257 179 254 l 181 257 q 181 259 182 258 l 181 259 q 182 267 180 263 l 182 267 q 182 269 183 269 l 182 269 q 184 274 181 271 l 184 274 q 184 277 184 275 l 184 277 q 186 284 183 281 l 186 284 q 186 287 186 286 l 186 287 q 186 292 184 289 l 186 292 q 186 294 187 293 l 186 294 q 186 300 185 297 l 186 300 q 186 301 187 300 l 186 301 q 186 302 186 302 l 186 302 q 186 302 185 302 l 186 302 q 186 309 187 307 l 186 309 q 187 315 186 312 l 187 315 q 187 318 187 317 l 187 318 q 187 323 186 321 l 187 323 q 187 326 188 325 z "},"W":{"ha":1124,"x_min":25,"x_max":1068,"o":"m 484 168 l 484 168 q 481 169 484 174 l 481 169 q 440 108 460 137 l 440 108 q 377 26 427 87 l 377 26 q 345 -12 362 8 l 345 -12 q 241 -121 284 -80 l 241 -121 q 147 -205 168 -189 l 147 -205 q 65 -273 72 -267 l 65 -273 q 64 -271 60 -277 l 64 -271 q 71 -261 67 -268 q 76 -252 75 -254 l 76 -252 q 174 -58 136 -161 l 174 -58 q 192 0 177 -48 l 192 0 q 201 37 198 19 l 201 37 q 210 76 208 66 l 210 76 q 215 115 214 95 l 215 115 q 217 135 216 122 q 220 154 219 148 l 220 154 q 222 203 220 167 l 222 203 q 221 250 222 229 l 221 250 q 218 298 220 274 l 218 298 q 212 338 218 313 l 212 338 q 200 414 208 354 l 200 414 q 193 449 197 435 l 193 449 q 188 470 191 456 q 181 494 184 484 l 181 494 q 169 538 176 511 l 169 538 q 145 612 165 551 l 145 612 q 102 736 113 707 l 102 736 q 86 770 98 744 l 86 770 q 69 792 82 781 l 69 792 q 31 821 50 809 l 31 821 q 31 825 25 825 l 31 825 l 1066 825 q 1067 823 1067 825 l 1067 823 q 1063 821 1065 822 l 1063 821 q 1061 821 1063 821 l 1061 821 q 1037 804 1046 812 l 1037 804 q 1005 762 1016 788 l 1005 762 q 987 710 994 734 l 987 710 q 977 684 983 701 q 968 658 971 667 l 968 658 q 958 628 964 646 l 958 628 q 951 609 956 622 q 944 589 947 596 l 944 589 q 913 506 939 576 l 913 506 q 883 425 905 483 l 883 425 q 864 378 871 394 l 864 378 q 834 308 846 336 l 834 308 q 783 204 825 285 l 783 204 q 736 117 768 174 l 736 117 q 701 58 710 73 l 701 58 q 617 -56 663 3 l 617 -56 q 597 -80 609 -67 l 597 -80 q 577 -103 580 -100 l 577 -103 q 503 -182 528 -159 l 503 -182 q 447 -235 456 -227 l 447 -235 q 445 -235 446 -235 l 445 -235 q 444 -234 443 -236 l 444 -234 q 446 -229 446 -232 q 446 -223 446 -227 q 447 -218 446 -220 l 447 -218 q 457 -155 449 -208 l 457 -155 q 461 -122 460 -140 l 461 -122 q 466 -88 463 -108 l 466 -88 q 467 -80 467 -85 q 467 -71 467 -74 l 467 -71 q 471 -43 471 -53 l 471 -43 q 473 -16 472 -24 l 473 -16 q 482 90 479 31 l 482 90 q 484 168 484 137 z m 385 319 l 385 319 q 386 317 386 317 q 386 315 386 316 q 386 313 386 313 l 386 313 q 388 313 386 309 l 388 313 l 454 441 q 454 446 455 444 l 454 446 q 446 483 452 459 q 439 511 440 506 l 439 511 q 426 569 429 556 q 408 623 422 581 l 408 623 q 393 671 405 632 l 393 671 q 361 758 379 715 l 361 758 q 334 795 349 783 l 334 795 q 302 819 317 810 l 302 819 q 294 819 298 823 l 294 819 q 282 810 292 819 l 282 810 q 273 800 276 806 l 273 800 q 260 766 270 794 l 260 766 q 259 761 258 764 l 259 761 q 309 592 279 675 l 309 592 q 326 543 320 563 l 326 543 q 355 452 332 522 l 355 452 q 359 440 356 448 q 363 427 362 431 l 363 427 q 369 401 365 419 q 376 371 373 383 l 376 371 q 381 340 380 355 l 381 340 q 385 319 382 336 z m 657 333 l 657 333 q 658 328 656 330 l 658 328 q 660 328 659 327 l 660 328 q 715 434 707 416 l 715 434 q 766 546 739 487 l 766 546 q 814 671 792 604 l 814 671 q 838 766 829 716 l 838 766 q 838 768 839 767 l 838 768 q 825 800 826 798 l 825 800 q 821 806 824 803 q 816 810 818 809 q 808 815 814 812 q 801 820 802 819 l 801 820 q 791 820 796 823 l 791 820 q 759 796 772 808 q 739 766 747 784 l 739 766 q 723 720 732 751 q 710 679 713 689 l 710 679 q 690 621 702 657 l 690 621 q 657 530 673 569 l 657 530 q 647 504 654 522 q 635 475 640 485 l 635 475 q 626 449 633 468 l 626 449 q 626 446 625 448 l 626 446 l 657 334 q 657 333 657 334 q 657 333 657 333 z m 570 755 l 570 755 q 572 768 572 765 l 572 768 q 553 806 564 788 l 553 806 q 548 808 551 810 l 548 808 q 526 763 539 804 l 526 763 q 526 761 526 762 l 526 761 l 547 682 q 548 682 547 680 l 548 682 q 555 699 553 695 l 555 699 q 570 755 566 742 z "},"X":{"ha":949,"x_min":-145,"x_max":878,"o":"m 388 393 l 388 393 l 193 62 q -45 -237 85 -120 l -45 -237 q -145 -309 -81 -258 l -145 -309 q 32 -224 -84 -286 q 210 -140 148 -163 l 210 -140 q 402 -102 311 -102 l 402 -102 q 321 6 348 -66 l 321 6 l 474 245 q 616 -1 616 4 l 616 -1 q 534 -102 616 -56 l 534 -102 l 878 -102 q 700 144 806 -53 l 700 144 q 569 394 664 214 l 569 394 q 689 608 629 503 l 689 608 q 842 802 774 758 l 842 802 l 549 802 l 578 781 l 596 740 q 547 640 594 713 l 547 640 q 483 541 539 628 l 483 541 q 385 713 434 618 l 385 713 q 469 802 401 758 l 469 802 l 127 802 q 281 597 186 772 l 281 597 q 388 393 303 556 z "},"Y":{"ha":852,"x_min":-1,"x_max":785,"o":"m 395 500 l 395 500 q 396 500 396 500 l 396 500 q 499 647 479 618 l 499 647 q 543 722 527 688 l 543 722 q 543 775 558 753 l 543 775 q 516 800 534 788 l 516 800 q 509 802 514 801 l 509 802 q 508 803 508 802 l 508 803 l 508 804 q 509 805 508 805 l 509 805 q 779 805 644 805 l 779 805 q 781 805 781 805 l 781 805 q 781 803 784 804 l 781 803 q 741 774 759 793 l 741 774 q 728 751 735 767 l 728 751 q 686 677 712 717 l 686 677 q 591 533 656 633 l 591 533 q 564 494 569 500 l 564 494 q 492 386 537 453 l 492 386 q 475 340 475 361 l 475 340 q 475 74 475 327 l 475 74 q 495 18 475 44 l 495 18 q 545 -24 510 -3 l 545 -24 q 547 -24 545 -24 q 548 -24 548 -24 l 548 -24 q 547 -27 552 -27 l 547 -27 q 471 -27 504 -27 l 471 -27 q 234 -101 339 -29 l 234 -101 q 191 -134 219 -111 q 150 -167 163 -157 l 150 -167 q 131 -180 138 -175 l 131 -180 q 0 -285 74 -226 l 0 -285 l 0 -285 q 14 -269 12 -272 l 14 -269 q 15 -267 14 -268 q 17 -264 16 -265 l 17 -264 q 173 -79 110 -158 l 173 -79 q 233 14 203 -41 l 233 14 q 292 180 277 95 l 292 180 q 305 272 296 205 l 305 272 q 309 315 309 294 l 309 315 q 309 359 309 353 l 309 359 q 300 386 308 373 l 300 386 q 253 464 284 412 q 196 558 222 515 q 150 634 170 601 l 150 634 q 107 697 139 651 l 107 697 q 61 758 81 735 l 61 758 q 28 791 52 768 l 28 791 q 22 796 26 793 q 16 801 18 799 l 16 801 q 14 802 16 802 l 14 802 l 10 802 q 9 803 9 802 l 9 803 l 9 804 q 10 805 9 805 l 10 805 l 283 805 q 283 804 283 805 l 283 804 l 283 803 q 283 802 283 802 l 283 802 q 277 800 279 802 l 277 800 q 252 778 264 792 l 252 778 q 244 766 248 774 q 240 754 240 758 l 240 754 q 243 729 241 735 l 243 729 q 265 685 254 703 l 265 685 q 303 627 286 651 l 303 627 q 380 519 328 591 l 380 519 q 395 500 391 507 z "},"Z":{"ha":837,"x_min":-181,"x_max":802,"o":"m 303 194 l 303 194 q 303 193 303 194 l 303 193 q 304 193 303 193 l 304 193 q 563 193 418 193 l 563 193 q 589 194 580 193 l 589 194 q 625 197 619 197 l 625 197 q 728 229 678 206 l 728 229 q 798 279 769 247 l 798 279 q 800 279 799 280 l 800 279 l 801 279 q 801 278 801 279 l 801 278 q 799 273 800 276 l 799 273 q 798 269 798 271 l 798 269 q 612 -195 705 37 l 612 -195 q 610 -197 612 -195 l 610 -197 q 610 -203 609 -200 l 610 -203 q 609 -204 610 -204 l 609 -204 q 608 -204 609 -204 l 608 -204 q 607 -205 607 -204 l 607 -205 l 607 -208 q 606 -209 607 -209 l 606 -209 l 605 -209 q 604 -208 604 -209 l 604 -208 q 595 -110 605 -151 l 595 -110 q 555 -42 583 -62 l 555 -42 q 506 -31 538 -31 l 506 -31 q 148 -31 483 -31 l 148 -31 q 122 -37 135 -31 l 122 -37 q 39 -93 77 -59 l 39 -93 q 11 -117 33 -98 q -22 -146 -11 -136 l -22 -146 q -75 -190 -47 -166 l -75 -190 q -180 -284 -170 -275 l -180 -284 q -181 -284 -180 -285 q -180 -283 -181 -284 l -180 -283 q -167 -267 -174 -275 l -167 -267 q -164 -262 -165 -265 q -161 -258 -162 -260 l -161 -258 q -22 -78 -90 -170 l -22 -78 q 7 -36 -3 -51 l 7 -36 q 52 44 31 1 l 52 44 q 56 68 56 53 l 56 68 q 56 150 56 142 l 56 150 q 58 163 56 158 l 58 163 q 66 176 61 170 l 66 176 q 366 570 330 524 l 366 570 q 399 613 382 591 l 399 613 q 399 614 399 614 l 399 614 q 398 614 399 614 l 398 614 q 240 614 301 614 l 240 614 q 193 610 224 614 l 193 610 q 115 567 142 604 l 115 567 q 106 555 110 559 l 106 555 q 106 553 106 553 l 106 553 q 106 552 106 553 l 106 552 q 106 551 106 552 l 106 551 l 100 547 q 98 548 98 545 l 98 548 q 99 549 98 548 l 99 549 q 100 551 100 549 l 100 551 l 100 801 q 101 802 100 802 l 101 802 l 619 802 q 620 801 620 802 l 620 801 q 620 648 620 746 l 620 648 q 620 637 620 646 q 621 624 621 628 q 619 612 621 619 q 614 601 617 606 l 614 601 q 602 584 608 591 l 602 584 q 335 235 522 479 l 335 235 q 328 226 334 233 q 317 213 321 219 q 309 202 312 206 l 309 202 q 303 194 307 197 z "},"[":{"ha":429,"x_min":92,"x_max":428,"o":"m 273 -102 l 358 -102 q 428 -220 358 -176 l 428 -220 l 92 -220 l 92 842 l 428 842 q 358 728 358 815 l 358 728 l 273 726 l 273 -102 z "},"\\":{"ha":461,"x_min":-17,"x_max":401,"o":"m 121 791 l 401 -98 q 271 -20 363 -20 l 271 -20 l -17 916 q 37 834 21 852 l 37 834 q 121 791 75 791 l 121 791 z "},"]":{"ha":482,"x_min":47,"x_max":383,"o":"m 201 722 l 117 722 q 47 840 117 798 l 47 840 l 383 839 l 383 -220 l 47 -220 q 117 -106 108 -196 l 117 -106 l 201 -107 l 201 722 z "},"^":{"ha":736,"x_min":85,"x_max":725,"o":"m 85 309 l 404 811 l 725 309 l 568 309 l 404 648 l 241 309 l 85 309 z "},"_":{"ha":747,"x_min":4,"x_max":800,"o":"m 604 -288 l 604 -288 l 4 -288 q 116 -257 59 -278 l 116 -257 q 205 -184 205 -224 l 205 -184 q 200 -165 205 -175 l 200 -165 l 799 -165 l 800 -176 q 721 -256 800 -220 l 721 -256 q 604 -288 653 -288 z "},"`":{"ha":1025,"x_min":3,"x_max":1050,"o":"m 528 411 l 528 411 l 536 411 l 539 416 l 545 419 q 550 428 548 422 l 550 428 l 550 450 l 547 453 l 525 453 l 519 450 q 518 451 519 451 l 518 451 q 514 447 515 451 l 514 447 l 514 431 q 519 416 517 425 l 519 416 q 519 416 519 416 l 519 416 q 524 414 521 416 l 524 414 q 528 411 526 411 z m 539 428 l 524 428 l 524 439 l 528 441 l 539 441 l 542 439 l 542 431 l 539 428 z m 644 517 l 644 517 q 606 536 631 524 l 606 536 l 591 536 l 586 539 l 581 539 q 568 536 577 539 l 568 536 q 556 532 562 533 l 556 532 q 553 533 554 532 l 553 533 q 526 522 543 527 l 526 522 q 536 472 528 504 l 536 472 l 542 467 l 547 467 q 551 461 551 464 l 551 461 q 561 453 555 458 l 561 453 l 564 447 l 564 425 l 561 419 l 554 414 l 551 408 l 547 406 l 547 361 q 552 332 547 352 l 552 332 q 555 305 555 315 l 555 305 q 555 302 555 304 l 555 302 l 561 297 l 561 292 l 564 289 q 608 297 578 290 l 608 297 q 708 372 629 306 l 708 372 q 742 439 722 395 l 742 439 q 766 536 751 484 l 766 536 l 766 547 q 761 564 763 553 l 761 564 q 672 550 731 557 l 672 550 q 644 517 665 538 z m 612 554 l 612 554 l 628 558 l 627 566 l 623 571 q 612 554 619 566 z m 633 545 l 614 542 l 636 526 l 636 538 l 633 545 z m 653 559 l 635 574 l 637 558 l 653 559 z m 661 550 l 640 546 l 647 528 q 661 550 653 543 l 661 550 z m 504 669 l 504 669 l 519 686 q 528 676 522 684 l 528 676 l 513 660 l 538 664 l 538 654 q 511 650 529 652 l 511 650 l 532 644 l 529 635 l 509 640 q 522 542 513 608 l 522 542 l 533 542 q 597 553 541 543 l 597 553 q 628 583 604 564 l 628 583 q 664 561 646 578 l 664 561 q 747 575 692 568 l 747 575 q 757 581 749 579 l 757 581 l 757 591 l 754 597 q 754 600 754 599 l 754 600 q 753 614 754 606 l 753 614 q 739 642 749 623 l 739 642 l 739 656 q 722 661 724 656 l 722 661 l 722 677 q 700 692 712 692 l 700 692 l 697 700 q 675 725 690 709 l 675 725 q 628 758 659 735 l 628 758 q 572 778 622 759 l 572 778 q 533 781 538 778 l 533 781 q 500 774 514 774 l 500 774 q 493 775 496 774 l 493 775 q 504 669 500 739 z m 484 918 l 478 918 l 482 904 q 515 945 493 918 l 515 945 l 476 939 l 476 937 l 478 926 l 486 937 l 489 932 l 481 925 l 489 922 l 489 920 l 488 916 l 484 918 z m 467 900 l 467 917 l 463 911 l 457 917 l 467 924 l 452 929 l 454 933 l 465 926 l 465 937 l 433 933 l 467 900 z m 83 479 l 66 492 q 69 464 69 482 l 69 464 l 83 479 z m 410 568 l 450 528 q 505 536 469 530 l 505 536 l 505 586 q 505 585 505 585 l 505 585 q 498 636 504 585 l 498 636 q 486 616 492 630 l 486 616 q 473 625 483 621 l 473 625 l 492 646 l 463 640 l 461 652 l 492 656 l 461 663 q 463 669 463 667 l 463 669 q 463 672 463 671 l 463 672 q 494 667 477 671 l 494 667 l 481 772 q 392 755 452 766 l 392 755 q 300 664 336 711 l 300 664 l 300 659 l 297 653 l 297 647 l 293 644 q 283 631 289 636 l 283 631 q 271 580 282 621 l 271 580 q 262 530 262 547 l 262 530 l 262 522 q 269 511 264 517 l 269 511 l 319 511 q 319 511 319 511 l 319 511 q 389 525 319 513 l 389 525 q 410 568 392 530 l 410 568 z m 443 513 l 412 555 l 396 504 l 443 513 z m 974 606 l 974 606 l 1031 612 q 1008 619 1018 619 l 1008 619 q 974 606 993 619 z m 1028 606 l 978 600 q 1006 591 993 591 l 1006 591 q 1028 606 1017 591 l 1028 606 z m 461 975 l 454 1025 q 441 994 450 1015 l 441 994 q 461 975 456 986 l 461 975 z m 461 1025 l 461 1025 q 468 979 467 998 l 468 979 q 478 1004 468 990 l 478 1004 q 461 1025 471 1008 z m 469 972 l 475 949 q 531 956 531 954 l 531 956 q 530 956 531 956 l 530 956 l 530 942 q 509 914 519 934 l 509 914 q 481 889 504 910 l 481 889 l 481 847 l 484 842 l 484 831 l 486 825 q 486 821 486 823 l 486 821 q 489 808 486 814 l 489 808 q 597 794 494 808 l 597 794 q 653 761 606 783 l 653 761 q 708 708 656 749 l 708 708 q 730 677 717 698 l 730 677 l 730 664 l 739 661 q 747 656 743 661 l 747 656 l 747 650 l 750 647 q 753 636 750 644 l 753 636 q 757 630 755 630 l 757 630 q 758 631 758 630 l 758 631 q 775 581 762 612 l 775 581 q 878 595 800 585 l 878 595 l 880 600 l 884 603 q 889 611 886 609 l 889 611 q 889 612 889 612 l 889 612 q 897 656 889 620 l 897 656 l 905 656 l 905 647 l 908 642 q 905 628 905 635 l 905 628 q 905 623 905 625 l 905 623 l 899 616 l 899 611 l 897 608 l 897 603 l 914 603 q 936 650 921 621 l 936 650 l 936 659 l 945 659 q 926 603 941 639 l 926 603 l 945 603 q 966 656 951 621 l 966 656 q 970 656 968 656 l 970 656 q 976 657 975 656 l 976 657 q 975 659 976 658 l 975 659 l 975 647 q 960 606 969 633 l 960 606 q 972 614 966 612 l 972 614 q 981 623 978 619 l 981 623 q 984 623 982 623 l 984 623 q 998 624 989 623 l 998 624 q 1014 625 1009 625 l 1014 625 l 1025 625 l 1031 623 l 1036 623 q 1050 616 1041 618 l 1050 616 l 1050 611 l 1046 608 q 1036 602 1040 608 q 1031 595 1031 595 l 1031 595 l 1028 589 q 1024 589 1026 589 l 1024 589 q 1017 583 1019 589 l 1017 583 l 1008 583 q 996 585 1004 583 l 996 585 q 985 586 989 586 l 985 586 q 981 586 983 586 l 981 586 l 966 595 l 956 595 q 933 542 947 573 l 933 542 l 926 542 l 926 553 l 929 558 l 933 561 l 936 567 l 936 578 l 933 583 l 933 589 l 930 589 q 920 586 922 586 l 920 586 q 905 542 913 570 l 905 542 l 897 542 q 901 581 897 557 l 901 581 l 889 581 q 872 547 884 567 l 872 547 l 872 545 l 869 539 l 869 533 l 861 533 l 861 545 q 865 564 861 551 q 869 581 869 576 l 869 581 q 781 567 840 575 l 781 567 q 779 541 781 559 l 779 541 q 778 522 778 530 l 778 522 q 778 514 778 517 l 778 514 q 755 452 767 500 l 755 452 q 733 381 743 399 l 733 381 q 665 319 711 341 l 665 319 l 661 314 l 656 311 q 643 308 643 311 l 643 308 q 644 306 643 307 l 644 306 l 640 302 l 640 300 q 610 289 630 296 l 610 289 l 608 286 q 567 275 595 283 l 567 275 l 567 250 q 567 250 567 250 l 567 250 q 582 146 568 250 l 582 146 l 602 167 l 604 160 q 582 139 596 154 l 582 139 l 586 126 l 607 146 l 607 138 l 585 114 l 587 100 l 612 122 l 612 115 q 587 93 603 109 l 587 93 l 590 81 l 614 98 q 615 87 615 95 l 615 87 l 591 69 l 597 43 l 610 50 l 612 43 l 597 33 l 621 40 l 621 33 l 602 29 l 619 20 l 615 16 q 599 25 607 22 l 599 25 l 602 4 l 593 4 l 589 22 l 579 7 q 576 11 578 9 l 576 11 q 586 26 581 16 l 586 26 l 570 21 q 568 26 568 24 l 568 26 q 568 29 568 28 l 568 29 q 585 33 575 31 l 585 33 l 568 40 l 570 47 l 586 40 l 581 65 l 545 87 l 545 100 l 579 79 l 579 90 l 541 111 l 543 118 l 578 98 l 576 113 q 542 134 567 119 l 542 134 q 541 144 541 137 l 541 144 l 576 122 l 574 136 q 536 161 561 144 l 536 161 l 539 168 q 570 149 557 155 l 570 149 q 547 269 570 155 l 547 269 q 535 269 542 269 l 535 269 q 483 273 515 269 l 483 273 q 422 289 436 279 l 422 289 l 419 289 l 414 292 l 407 292 q 336 342 355 324 l 336 342 q 286 411 307 370 l 286 411 l 289 411 q 292 408 290 408 l 292 408 q 293 408 292 408 l 293 408 q 383 319 317 367 l 383 319 l 383 314 q 500 281 471 281 l 500 281 q 545 286 526 281 l 545 286 l 545 300 q 533 389 545 350 l 533 389 q 503 414 530 393 l 503 414 l 503 416 l 500 422 l 496 425 l 496 444 l 509 464 q 519 467 519 467 l 519 467 l 519 481 q 511 525 519 509 l 511 525 l 511 528 l 454 519 q 464 510 460 516 l 464 510 l 428 503 l 431 493 l 443 496 l 443 490 l 431 488 l 431 479 l 424 475 l 422 486 l 412 484 l 410 489 l 418 492 l 421 490 l 420 491 l 420 494 l 419 501 l 376 493 l 385 513 q 300 500 328 500 l 300 500 q 293 500 296 500 l 293 500 l 283 494 l 278 494 l 272 489 l 272 461 q 286 425 277 450 l 286 425 l 281 425 l 272 439 q 258 472 271 456 l 258 472 l 258 492 q 170 484 195 484 l 170 484 q 164 484 167 484 l 164 484 q 139 472 155 480 l 139 472 l 139 461 l 136 458 l 136 453 l 139 439 q 149 433 143 436 l 149 433 l 149 441 l 144 444 l 142 443 l 147 449 l 154 444 l 158 437 l 153 428 l 144 425 q 127 441 134 436 l 127 441 l 122 453 l 122 472 l 94 472 q 81 464 89 470 l 81 464 l 81 439 l 92 431 l 92 436 q 94 441 94 437 q 100 444 95 444 l 100 444 q 106 441 104 444 l 106 441 l 106 433 q 102 429 103 432 l 102 429 q 103 428 102 429 l 103 428 l 100 422 l 89 422 l 86 419 l 81 419 q 64 450 75 429 l 64 450 l 64 467 l 62 469 l 40 468 l 47 460 l 43 457 l 31 465 q 34 452 33 459 l 34 452 q 33 447 34 450 l 33 447 l 28 450 l 28 467 l 16 452 l 11 457 l 17 468 l 3 467 l 3 475 l 18 478 l 7 489 q 12 492 12 490 l 12 492 l 25 481 l 24 498 l 29 498 l 33 478 l 45 493 l 49 490 q 39 479 45 484 l 39 479 l 60 481 q 61 502 60 481 l 61 502 q 61 512 61 507 l 61 512 q 61 522 62 517 l 61 522 q 72 536 64 527 l 72 536 l 75 533 q 89 530 87 533 l 89 530 l 90 525 q 97 519 97 521 l 97 519 l 94 517 l 94 503 l 89 503 q 83 505 85 503 l 83 505 l 83 522 l 81 522 l 75 519 q 69 511 69 519 l 69 511 l 69 509 q 92 486 73 496 l 92 486 l 109 486 q 125 489 119 486 l 125 489 q 124 490 124 490 l 124 490 q 128 493 126 491 l 128 493 q 127 494 128 494 l 127 494 l 121 500 q 114 519 114 517 l 114 519 q 127 542 114 528 l 127 542 l 142 542 q 155 536 147 538 l 155 536 l 158 533 l 158 525 q 150 518 158 518 l 150 518 q 147 532 149 520 l 147 532 l 139 534 q 122 528 128 531 l 122 528 l 125 517 q 147 497 132 509 l 147 497 l 189 497 q 253 505 230 497 l 253 505 q 258 575 256 528 l 258 575 q 275 633 263 581 l 275 633 q 289 659 279 642 l 289 659 l 290 667 q 314 692 298 677 l 314 692 l 314 700 q 349 745 326 715 l 349 745 q 382 772 372 755 l 382 772 q 472 806 412 783 l 472 806 l 472 822 q 453 897 472 873 l 453 897 q 419 928 442 907 l 419 928 q 416 936 419 935 l 416 936 l 422 939 l 431 939 q 463 947 437 943 l 463 947 q 459 965 460 958 l 459 965 q 460 970 459 968 l 460 970 q 444 983 456 978 l 444 983 l 431 983 l 433 981 l 433 975 q 435 970 435 973 l 435 970 q 434 964 435 968 q 433 958 433 960 l 433 958 l 425 958 q 419 961 421 958 l 419 961 l 419 966 l 416 970 l 416 981 q 421 990 416 984 l 421 990 q 427 994 425 994 l 427 994 q 428 994 427 994 l 428 994 l 433 997 q 453 1034 441 1020 l 453 1034 l 461 1034 l 484 1011 l 493 1011 l 500 1008 l 505 1008 q 514 983 514 1002 l 514 983 l 514 972 l 511 966 q 497 964 498 966 l 497 964 l 494 970 q 493 969 494 969 l 493 969 q 492 970 492 969 q 491 971 491 970 l 491 971 q 492 972 491 972 l 492 972 l 489 978 q 492 977 490 977 l 492 977 q 498 979 494 977 l 498 979 q 505 981 504 981 l 505 981 l 505 991 q 494 994 504 994 l 494 994 l 486 994 l 481 991 q 469 972 478 987 l 469 972 z "},"a":{"ha":879,"x_min":-8,"x_max":817,"o":"m 434 268 l 399 387 l 364 268 l 434 268 z m 817 0 l 817 0 l 471 0 q 524 52 506 9 l 524 52 l 498 132 l 299 132 l 273 52 q 321 0 278 9 l 321 0 l -8 0 q 110 158 68 52 l 110 158 q 211 415 138 229 l 211 415 q 286 665 286 608 l 286 665 q 257 726 286 704 l 257 726 l 534 726 q 503 661 503 704 l 503 661 q 578 410 503 584 l 578 410 q 688 158 609 340 l 688 158 q 735 64 718 87 l 735 64 q 817 0 763 28 z "},"b":{"ha":784,"x_min":33,"x_max":746,"o":"m 532 513 l 532 513 q 503 558 532 541 l 503 558 q 447 572 477 572 l 447 572 l 296 572 l 296 452 l 447 452 q 503 467 478 452 l 503 467 q 532 513 532 484 z m 532 235 l 532 235 q 447 294 532 294 l 447 294 l 296 294 l 296 174 l 447 174 q 502 190 475 174 l 502 190 q 532 235 532 208 z m 615 396 l 615 396 q 716 330 686 373 q 746 212 746 288 l 746 212 q 660 47 746 103 l 660 47 q 472 0 587 0 l 472 0 l 33 0 q 115 83 115 41 l 115 83 l 115 646 q 35 725 115 696 l 35 725 l 526 725 q 656 669 599 725 q 714 541 714 613 l 714 541 q 615 396 714 426 z "},"c":{"ha":698,"x_min":35,"x_max":694,"o":"m 304 724 l 541 724 l 642 473 q 515 533 576 533 l 515 533 l 347 533 q 256 473 292 533 l 256 473 q 227 364 227 422 l 227 364 q 313 203 227 237 l 313 203 q 515 184 356 186 l 515 184 q 519 184 517 184 l 519 184 q 615 199 566 184 l 615 199 q 694 252 680 219 l 694 252 l 526 -150 q 509 -68 522 -127 l 509 -68 q 475 0 494 0 l 475 0 q 150 67 245 0 l 150 67 q 35 368 35 149 l 35 368 q 99 605 35 504 l 99 605 q 304 724 174 724 l 304 724 z "},"d":{"ha":719,"x_min":12,"x_max":693,"o":"m 375 538 l 375 538 l 275 538 l 275 191 l 380 191 q 407 201 382 192 l 407 201 q 501 361 501 239 l 501 361 q 406 528 501 489 l 406 528 q 375 538 380 538 z m 424 0 l 424 0 l 12 0 q 93 83 93 41 l 93 83 l 93 646 q 65 695 93 674 l 65 695 q 14 725 56 702 l 14 725 l 424 725 q 628 597 551 725 l 628 597 q 693 355 693 489 l 693 355 q 629 119 693 221 l 629 119 q 424 0 553 0 z "},"e":{"ha":739,"x_min":12,"x_max":742,"o":"m 428 0 l 12 0 q 93 83 93 41 l 93 83 l 93 646 q 14 725 93 694 l 14 725 l 628 726 l 628 513 q 476 572 553 572 l 476 572 l 275 572 l 275 452 l 460 452 q 549 486 500 452 l 549 486 l 549 261 q 460 293 510 293 l 460 293 l 275 293 l 275 184 l 494 184 q 626 203 559 184 l 626 203 q 742 262 707 225 l 742 262 l 526 -150 q 428 0 526 0 l 428 0 z "},"f":{"ha":682,"x_min":12,"x_max":628,"o":"m 355 0 l 355 0 l 12 0 q 93 83 93 41 l 93 83 l 93 646 q 14 725 93 694 l 14 725 l 628 726 l 628 513 q 476 572 553 572 l 476 572 l 275 572 l 275 452 l 460 452 q 549 486 500 452 l 549 486 l 549 261 q 460 293 510 293 l 460 293 l 275 293 l 275 83 q 355 0 275 37 z "},"g":{"ha":720,"x_min":11,"x_max":644,"o":"m 12 725 l 644 725 l 644 513 q 475 572 572 572 l 475 572 l 271 572 l 273 183 l 390 183 q 464 293 464 231 l 464 293 q 399 407 464 349 l 399 407 l 642 407 l 642 -160 q 585 -62 621 -109 l 585 -62 q 497 0 538 0 l 497 0 l 11 0 q 92 83 92 41 l 92 83 l 92 646 q 12 725 92 694 l 12 725 z "},"h":{"ha":927,"x_min":13,"x_max":994,"o":"m 445 0 l 445 0 q 525 83 525 42 l 525 83 l 525 293 l 275 293 l 275 83 q 356 0 275 37 l 356 0 l 13 0 q 93 83 93 42 l 93 83 l 93 646 q 13 724 93 686 l 13 724 l 356 724 q 275 646 275 690 l 275 646 l 275 452 l 525 452 l 525 646 q 446 724 525 688 l 446 724 l 789 724 q 707 646 707 690 l 707 646 l 707 81 q 829 -54 707 34 l 829 -54 q 994 -158 907 -111 l 994 -158 q 737 -76 913 -155 l 737 -76 q 445 0 568 0 z "},"i":{"ha":363,"x_min":0,"x_max":343,"o":"m 261 646 l 261 646 l 261 83 q 343 0 261 37 l 343 0 l 0 0 q 50 35 26 14 l 50 35 q 81 83 81 62 l 81 83 l 81 646 q 0 724 81 699 l 0 724 l 343 724 q 261 646 261 690 z "},"j":{"ha":727,"x_min":18,"x_max":696,"o":"m 119 -150 l 119 -150 l 18 262 q 97 203 70 216 l 97 203 q 193 184 134 184 l 193 184 l 314 184 q 405 247 370 184 l 405 247 q 435 358 435 300 l 435 358 l 433 646 q 353 724 433 699 l 353 724 l 696 724 q 615 646 615 690 l 615 646 q 617 551 615 614 l 617 551 q 619 457 619 488 l 619 457 q 390 4 619 32 l 390 4 q 192 0 356 0 l 192 0 q 119 -150 119 -48 z "},"k":{"ha":818,"x_min":26,"x_max":819,"o":"m 819 86 l 558 -150 q 571 -79 571 -114 l 571 -79 q 466 120 571 6 l 466 120 q 297 294 437 149 l 297 294 l 297 83 q 378 0 297 35 l 378 0 l 26 3 l 79 37 q 115 83 115 60 l 115 83 l 115 646 q 35 725 115 696 l 35 725 l 297 725 l 297 452 l 408 559 q 496 671 496 644 l 496 671 q 496 671 496 671 l 496 671 q 473 729 494 707 l 473 729 l 692 558 l 660 564 q 549 487 621 564 l 549 487 q 457 385 527 463 l 457 385 q 602 199 534 283 l 602 199 q 771 68 707 68 l 771 68 q 819 86 799 68 l 819 86 z "},"l":{"ha":700,"x_min":11,"x_max":642,"o":"m 12 725 l 355 725 q 275 646 275 691 l 275 646 l 275 183 l 642 183 l 640 -171 q 614 -115 630 -156 l 614 -115 q 586 -61 600 -76 l 586 -61 q 497 0 530 0 l 497 0 l 11 0 q 92 83 92 41 l 92 83 l 92 646 q 12 725 92 694 l 12 725 z "},"m":{"ha":883,"x_min":-170,"x_max":865,"o":"m 29 725 l 29 725 l 322 725 l 293 710 l 277 677 q 353 519 287 633 l 353 519 l 447 358 l 543 515 q 618 677 604 617 l 618 677 l 600 711 l 571 725 l 865 725 q 785 646 785 692 l 785 646 l 785 83 q 865 0 785 34 l 865 0 l 521 0 q 603 83 603 41 l 603 83 l 603 233 l 446 -94 l 292 233 l 292 83 q 323 35 292 62 l 323 35 q 372 0 347 13 l 372 0 q 156 -20 238 0 l 156 -20 q 15 -76 101 -34 l 15 -76 q -170 -157 -95 -130 l -170 -157 q -9 -47 -97 -115 l -9 -47 q 110 83 110 44 l 110 83 l 109 646 q 29 725 109 684 z "},"n":{"ha":988,"x_min":78,"x_max":1059,"o":"m 510 0 l 510 0 q 590 97 590 41 l 590 97 q 590 98 590 98 l 590 98 l 340 376 l 340 83 q 421 0 340 37 l 421 0 l 78 0 q 158 83 158 42 l 158 83 l 158 646 q 78 724 158 686 l 78 724 l 421 724 q 340 627 340 690 l 340 627 q 340 625 340 626 l 340 625 l 590 347 l 590 646 q 511 724 590 688 l 511 724 l 854 724 q 772 646 772 690 l 772 646 l 772 81 q 894 -54 772 34 l 894 -54 q 1059 -158 972 -111 l 1059 -158 q 802 -76 978 -155 l 802 -76 q 510 0 633 0 z "},"o":{"ha":747,"x_min":40,"x_max":718,"o":"m 379 -5 l 379 -5 q 115 89 196 -5 l 115 89 q 40 363 40 176 l 40 363 q 114 637 40 551 l 114 637 q 379 730 194 730 l 379 730 q 644 637 564 730 l 644 637 q 718 363 718 551 l 718 363 q 644 88 718 175 l 644 88 q 379 -5 564 -5 z m 379 122 l 379 122 q 508 199 479 122 l 508 199 q 524 363 524 240 l 524 363 q 509 529 524 490 l 509 529 q 379 607 481 607 l 379 607 q 249 530 277 607 l 249 530 q 235 363 235 491 l 235 363 q 250 199 235 241 l 250 199 q 379 122 279 122 z m 282 350 l 379 461 l 476 350 l 379 241 q 282 350 347 277 l 282 350 z "},"p":{"ha":711,"x_min":33,"x_max":713,"o":"m 532 513 l 532 513 q 503 558 532 541 l 503 558 q 447 572 477 572 l 447 572 l 296 572 l 296 452 l 447 452 q 503 467 478 452 l 503 467 q 532 513 532 484 z m 376 0 l 376 0 l 33 0 q 115 83 115 41 l 115 83 l 115 646 q 35 725 115 696 l 35 725 l 526 725 q 661 656 605 725 l 661 656 q 713 510 713 591 l 713 510 q 618 338 713 386 l 618 338 q 415 304 551 304 l 415 304 q 353 304 382 304 l 353 304 l 296 306 l 296 85 q 376 0 296 36 z "},"q":{"ha":988,"x_min":40,"x_max":1059,"o":"m 590 -8 l 557 25 q 379 -5 474 -5 l 379 -5 q 115 89 196 -5 l 115 89 q 40 363 40 176 l 40 363 q 115 637 40 549 l 115 637 q 379 730 195 730 l 379 730 q 644 637 563 730 l 644 637 q 718 363 718 549 l 718 363 q 661 110 718 195 l 661 110 q 847 -90 818 -62 l 847 -90 q 1059 -252 919 -159 l 1059 -252 q 791 -146 848 -165 l 791 -146 q 510 -92 627 -92 l 510 -92 q 590 -8 574 -58 l 590 -8 z m 441 353 l 519 267 q 524 363 524 309 l 524 363 q 509 529 524 490 l 509 529 q 379 607 481 607 l 379 607 q 249 529 277 607 l 249 529 q 235 363 235 490 l 235 363 q 250 198 235 239 l 250 198 q 379 122 279 122 l 379 122 q 450 135 416 122 l 450 135 q 345 241 415 171 l 345 241 l 441 353 z "},"r":{"ha":1028,"x_min":33,"x_max":1101,"o":"m 532 513 l 532 513 q 503 558 532 541 l 503 558 q 447 572 477 572 l 447 572 l 296 572 l 296 452 l 447 452 q 503 467 478 452 l 503 467 q 532 513 532 484 z m 359 306 l 359 306 l 296 306 l 296 85 q 376 0 296 36 l 376 0 l 33 0 q 115 83 115 41 l 115 83 l 115 646 q 35 725 115 686 l 35 725 l 526 725 q 661 656 605 725 l 661 656 q 713 510 713 591 l 713 510 q 672 389 713 443 q 567 314 631 336 l 567 314 q 819 52 783 85 l 819 52 q 1101 -158 945 -67 l 1101 -158 q 918 -109 1018 -151 l 918 -109 l 748 -37 q 518 0 660 0 l 518 0 q 583 57 577 31 l 583 57 q 477 182 580 73 l 477 182 q 359 306 444 216 z "},"s":{"ha":800,"x_min":-131,"x_max":786,"o":"m 408 -32 l 408 -32 q 324 -21 380 -32 q 240 -9 269 -9 l 240 -9 q 58 -70 189 -9 l 58 -70 l -131 -157 q 92 9 -15 -89 l 92 9 q 269 221 208 116 l 269 221 q 336 140 286 170 l 336 140 q 439 114 381 114 l 439 114 q 558 193 558 114 l 558 193 l 545 235 q 385 302 506 277 l 385 302 q 197 355 238 333 l 197 355 q 106 510 106 402 l 106 510 q 197 704 106 636 l 197 704 q 408 765 278 765 l 408 765 q 540 734 454 765 q 671 704 626 704 l 671 704 q 726 711 690 704 q 782 718 763 718 l 782 718 l 786 717 l 782 711 l 553 510 q 408 618 549 618 l 408 618 q 334 602 365 618 l 334 602 q 293 543 293 582 l 293 543 q 414 470 293 496 l 414 470 q 639 409 592 431 l 639 409 q 760 235 760 353 l 760 235 q 408 -32 760 -32 z "},"t":{"ha":718,"x_min":-4,"x_max":694,"o":"m 517 0 l 517 0 l 174 0 q 223 35 200 14 l 223 35 q 254 83 254 62 l 254 83 l 254 567 l 134 567 q -4 488 64 567 l -4 488 l 50 725 l 640 724 l 694 488 q 541 567 609 567 l 541 567 l 436 567 l 436 83 q 517 0 436 36 z "},"u":{"ha":847,"x_min":16,"x_max":829,"o":"m 325 350 l 422 461 l 519 350 l 422 241 l 325 350 z m 422 -5 l 422 -5 q 154 90 230 -5 l 154 90 q 96 310 96 163 l 96 310 q 101 424 96 348 q 106 537 106 499 l 106 537 q 16 724 106 693 l 16 724 l 358 724 q 278 646 278 690 l 278 646 l 278 363 q 294 199 278 240 l 294 199 q 422 122 323 122 l 422 122 q 574 373 574 122 l 574 373 q 570 464 574 404 q 567 554 567 524 l 567 554 q 568 583 567 564 l 568 583 q 568 612 568 602 l 568 612 q 550 684 568 660 q 486 724 532 709 l 486 724 l 829 724 q 741 529 741 687 l 741 529 q 746 419 741 492 q 750 310 750 347 l 750 310 q 693 90 750 161 l 693 90 q 422 -5 617 -5 z "},"v":{"ha":893,"x_min":29,"x_max":865,"o":"m 785 646 l 447 -94 l 110 646 q 29 725 83 704 l 29 725 l 323 725 q 277 677 284 710 l 277 677 q 353 501 297 604 l 353 501 l 447 330 l 542 500 q 618 677 599 603 l 618 677 l 602 711 q 571 725 589 719 l 571 725 l 865 725 q 815 697 829 711 q 785 646 802 683 l 785 646 z "},"w":{"ha":1143,"x_min":-12,"x_max":1116,"o":"m 743 646 l 406 -94 l 68 646 q -12 725 41 703 l -12 725 l 282 725 q 235 677 243 709 l 235 677 q 313 501 256 606 l 313 501 l 406 330 l 496 502 q 578 677 549 604 l 578 677 q 562 709 573 699 l 562 709 q 529 725 555 714 l 529 725 l 823 725 q 773 697 786 709 q 743 646 761 684 l 743 646 z m 1035 646 l 697 -94 l 359 646 q 279 725 333 703 l 279 725 l 574 725 q 526 677 534 709 l 526 677 q 605 501 548 606 l 605 501 l 697 330 l 792 500 q 868 677 849 603 l 868 677 l 851 711 l 821 725 l 1116 725 q 1065 697 1077 709 q 1035 646 1053 685 l 1035 646 z "},"x":{"ha":949,"x_min":-7,"x_max":1017,"o":"m 484 397 l 484 397 q 734 66 604 234 l 734 66 q 1017 -158 806 -28 l 1017 -158 q 758 -73 930 -151 l 758 -73 q 469 0 595 0 l 469 0 q 550 83 528 30 l 550 83 l 397 278 q 256 79 327 182 l 256 79 q 338 0 270 31 l 338 0 l -7 0 q 169 192 69 39 l 169 192 q 302 399 205 250 l 302 399 l 180 575 q 29 725 104 686 l 29 725 l 322 725 l 293 710 l 275 677 q 389 518 278 660 l 389 518 l 482 646 q 403 724 482 688 l 403 724 l 745 724 q 594 569 680 698 l 594 569 q 484 397 573 538 z "},"y":{"ha":893,"x_min":4,"x_max":840,"o":"m 328 83 l 328 364 l 191 535 q 4 725 56 705 l 4 725 l 298 725 q 252 677 252 707 l 252 677 q 327 570 252 652 l 327 570 q 422 469 357 537 l 422 469 q 518 572 449 498 l 518 572 q 593 677 593 654 l 593 677 q 546 725 585 711 l 546 725 l 840 725 q 791 693 807 711 l 791 693 q 760 646 776 669 l 760 646 l 510 354 l 510 83 q 590 0 510 36 l 590 0 l 248 0 q 328 83 328 42 l 328 83 z "},"z":{"ha":838,"x_min":29,"x_max":839,"o":"m 75 513 l 75 513 l 75 725 l 639 725 l 639 566 l 294 184 l 585 184 q 720 202 652 184 l 720 202 q 839 262 800 223 l 839 262 l 624 -150 q 525 0 624 0 l 525 0 l 29 0 l 29 160 l 401 572 l 237 572 q 147 564 176 572 l 147 564 q 75 513 105 552 z "},"{":{"ha":417,"x_min":52,"x_max":440,"o":"m 440 -281 l 440 -281 l 322 -281 q 157 31 157 -281 l 157 31 q 162 129 157 64 q 167 228 167 195 l 167 228 q 52 309 167 309 l 52 309 l 52 437 q 167 504 167 437 l 167 504 q 162 602 167 536 q 157 701 157 668 l 157 701 q 322 1013 157 1013 l 322 1013 l 440 1013 q 374 893 374 963 l 374 893 q 375 873 374 884 l 375 873 l 349 871 q 318 766 318 842 l 318 766 q 325 661 318 730 q 332 555 332 591 l 332 555 q 193 372 332 387 l 193 372 q 340 158 340 354 l 340 158 q 332 44 340 120 q 325 -71 325 -33 l 325 -71 q 346 -135 325 -117 l 346 -135 q 440 -281 346 -240 z "},"|":{"ha":351,"x_min":139,"x_max":250,"o":"m 139 1013 l 250 1013 l 250 -281 l 139 -281 l 139 1013 z "},"}":{"ha":460,"x_min":66,"x_max":456,"o":"m 66 1013 l 66 1013 l 184 1013 q 350 701 350 1013 l 350 701 q 345 603 350 668 q 340 504 340 537 l 340 504 q 456 424 340 424 l 456 424 l 456 294 q 340 228 340 294 l 340 228 q 345 129 340 195 q 350 30 350 63 l 350 30 q 184 -281 350 -281 l 184 -281 l 66 -281 q 133 -163 133 -231 l 133 -163 q 132 -142 133 -153 l 132 -142 l 158 -139 q 189 28 189 -110 l 189 28 q 184 146 189 68 l 184 146 l 180 225 q 180 235 180 230 l 180 235 q 314 359 180 341 l 314 359 q 167 574 167 380 l 167 574 q 174 689 167 612 q 182 803 182 765 l 182 803 q 161 867 182 846 l 161 867 q 66 1013 161 970 z "},"~":{"ha":739,"x_min":83,"x_max":721,"o":"m 83 241 l 83 241 q 134 379 91 320 l 134 379 q 258 447 184 447 l 258 447 q 412 381 303 447 q 553 315 521 315 l 553 315 q 654 338 599 315 l 654 338 q 721 403 721 365 l 721 403 q 679 269 721 330 l 679 269 q 561 200 631 200 l 561 200 q 394 266 511 200 q 245 332 276 332 l 245 332 q 149 309 199 332 l 149 309 q 83 241 89 281 z "},"":{"ha":494,"x_min":null,"x_max":null,"o":""},"":{"ha":393,"x_min":92,"x_max":300,"o":"m 92 550 l 92 753 l 300 753 l 300 550 l 92 550 z m 113 247 l 147 464 l 239 464 l 276 246 q 300 32 300 108 l 300 32 l 300 -260 l 92 -260 l 92 32 q 113 247 92 108 l 113 247 z "},"":{"ha":707,"x_min":35,"x_max":694,"o":"m 304 724 l 541 724 l 642 473 q 515 533 576 533 l 515 533 l 347 533 q 256 473 292 533 l 256 473 q 227 364 227 422 l 227 364 q 313 203 227 237 l 313 203 q 515 184 356 186 l 515 184 q 519 184 517 184 l 519 184 q 615 199 566 184 l 615 199 q 694 252 680 219 l 694 252 l 526 -150 q 509 -68 522 -127 l 509 -68 q 475 0 494 0 l 475 0 q 150 67 245 0 l 150 67 q 35 368 35 149 l 35 368 q 99 605 35 504 l 99 605 q 304 724 174 724 l 304 724 z m 610 754 l 237 -139 q 178 -58 237 -73 l 178 -58 l 562 857 q 562 840 562 848 l 562 840 q 610 754 562 769 l 610 754 z "},"":{"ha":749,"x_min":-33,"x_max":746,"o":"m 521 427 l 354 361 q 367 293 367 321 l 367 293 q 313 180 367 234 l 313 180 q 212 100 302 170 l 212 100 q 378 139 307 139 l 378 139 q 565 83 440 139 q 726 27 690 27 l 726 27 q 746 29 736 27 l 746 29 q 541 -24 621 -24 l 541 -24 q 406 -5 495 -24 q 272 14 317 14 l 272 14 q 118 -22 201 14 l 118 -22 q 132 35 132 11 l 132 35 q 112 78 132 58 q 67 98 91 98 l 67 98 q 45 92 55 98 l 45 92 l 144 161 q 196 265 196 207 l 196 265 q 167 361 196 298 l 167 361 l -33 359 l 127 427 q 56 589 56 524 l 56 589 q 168 766 56 703 l 168 766 q 383 817 259 817 l 383 817 q 616 762 538 817 l 616 762 q 726 554 702 701 l 726 554 q 454 718 568 718 l 454 718 q 325 683 391 718 l 325 683 q 248 586 248 642 l 248 586 q 279 507 248 558 l 279 507 q 323 427 317 444 l 323 427 l 521 427 z "},"":{"ha":763,"x_min":82,"x_max":688,"o":"m 385 345 l 385 345 q 489 383 446 345 q 532 484 532 422 l 532 484 q 490 594 532 549 q 385 640 449 640 l 385 640 q 281 595 324 640 q 237 490 237 551 l 237 490 q 280 387 237 429 q 385 345 323 345 z m 532 730 l 688 793 l 625 635 q 671 499 671 555 l 671 499 q 621 345 671 437 l 621 345 l 677 189 l 526 254 q 388 211 451 211 l 388 211 q 244 257 302 211 l 244 257 l 82 199 l 149 349 q 98 496 98 408 l 98 496 q 146 633 98 589 l 146 633 l 86 789 l 240 728 q 385 770 294 770 l 385 770 q 532 730 481 770 l 532 730 z "},"":{"ha":731,"x_min":7,"x_max":766,"o":"m 392 625 l 766 985 l 482 489 l 688 489 l 688 406 l 472 406 l 472 332 l 688 332 l 688 249 l 472 249 l 472 0 l 310 0 l 311 249 l 96 249 l 96 332 l 311 332 l 311 406 l 96 406 l 96 489 l 301 489 l 7 985 l 392 625 z "},"":{"ha":494,"x_min":null,"x_max":null,"o":""},"":{"ha":776,"x_min":46,"x_max":720,"o":"m 469 189 l 469 189 q 551 269 551 221 l 551 269 q 433 371 551 317 l 433 371 q 275 437 426 374 l 275 437 q 212 367 212 414 l 212 367 q 261 294 212 318 l 261 294 q 469 189 365 244 z m 490 -29 l 490 -29 q 375 66 490 16 l 375 66 l 161 159 q 46 309 46 224 l 46 309 q 84 417 46 372 l 84 417 q 175 490 107 444 l 175 490 q 90 628 90 566 l 90 628 q 199 787 90 733 l 199 787 q 400 828 284 828 l 400 828 q 660 623 651 828 l 660 623 q 376 710 572 710 l 376 710 q 300 685 340 710 l 300 685 l 288 652 q 399 558 288 606 l 399 558 q 608 466 586 479 l 608 466 q 720 307 720 399 l 720 307 q 683 200 720 243 q 585 146 647 156 l 585 146 q 686 4 686 83 l 686 4 q 589 -176 686 -114 l 589 -176 q 383 -229 507 -229 l 383 -229 q 181 -178 258 -229 l 181 -178 q 90 0 90 -119 l 90 0 q 326 -107 205 -107 l 326 -107 q 490 -29 490 -107 z "},"":{"ha":334,"x_min":87,"x_max":358,"o":"m 196 922 l 142 863 l 87 922 l 142 983 l 196 922 z m 358 922 l 307 863 l 253 922 l 307 983 l 358 922 z "},"":{"ha":871,"x_min":65,"x_max":846,"o":"m 456 11 l 456 11 q 178 125 291 11 q 65 404 65 239 l 65 404 q 168 671 65 551 l 168 671 q 422 796 276 796 l 422 796 q 724 694 606 796 l 724 694 q 846 404 846 586 l 846 404 q 733 125 846 240 q 456 11 620 11 z m 456 86 l 456 86 q 682 178 589 86 q 774 404 774 271 l 774 404 q 681 629 774 536 q 456 722 587 722 l 456 722 q 230 630 323 722 q 138 404 138 537 l 138 404 q 229 177 138 269 q 456 86 320 86 z m 415 595 l 533 595 l 582 469 q 519 501 550 501 l 519 501 l 436 501 q 392 470 410 501 l 392 470 q 376 415 376 444 l 376 415 q 420 336 376 353 l 420 336 q 519 328 440 329 l 519 328 q 525 328 522 328 l 525 328 q 608 361 594 328 l 608 361 l 525 161 l 511 223 q 477 236 506 236 l 477 236 q 446 235 466 236 l 446 235 q 415 235 424 235 l 415 235 q 414 235 414 235 l 414 235 q 315 298 353 235 l 315 298 q 282 418 282 353 l 282 418 q 313 535 282 484 l 313 535 q 415 595 350 595 l 415 595 z "},"":{"ha":536,"x_min":-29,"x_max":501,"o":"m 151 509 l 197 509 l 208 478 l 216 509 l 264 509 q 235 528 243 514 l 235 528 l 235 566 l 278 566 q 298 536 286 560 l 298 536 l 298 586 l 336 593 l 298 603 l 298 647 q 278 624 290 624 l 278 624 l 235 624 l 235 676 q 264 693 245 690 l 264 693 l 216 693 l 208 724 l 201 693 l 153 693 q 179 676 179 687 l 179 676 l 179 624 l 131 624 l 121 627 q 111 647 114 633 l 111 647 l 111 603 l 82 593 l 111 587 l 111 536 q 131 566 117 566 l 131 566 l 179 566 l 179 528 q 151 509 170 515 l 151 509 z m 501 424 l 501 424 q 358 519 435 519 l 358 519 q 281 483 351 519 q 160 447 212 447 l 160 447 q 75 488 108 447 l 75 488 q 43 580 43 527 l 43 580 q 115 709 43 676 l 115 709 q 249 738 127 715 l 249 738 q 321 802 321 751 l 321 802 q 244 842 321 842 l 244 842 q 57 768 158 842 l 57 768 q 113 895 57 859 l 113 895 q 253 925 158 925 l 253 925 q 401 877 362 925 l 401 877 q 431 757 431 841 l 431 757 q 431 707 431 740 l 431 707 q 429 656 429 673 l 429 656 q 446 535 429 584 l 446 535 q 501 424 458 497 z m 339 269 l 339 269 l -29 269 q 123 355 104 300 l 123 355 q 130 380 130 371 l 130 380 q 126 392 130 388 l 126 392 l 494 392 q 496 380 496 388 l 496 380 q 437 303 496 340 l 437 303 q 339 269 382 269 z "},"":{"ha":704,"x_min":122,"x_max":650,"o":"m 650 265 l 650 102 l 419 387 l 650 672 l 650 513 l 511 387 l 650 265 z m 353 98 l 122 385 l 353 669 l 353 510 l 214 385 l 353 262 l 353 98 z "},"":{"ha":815,"x_min":-1,"x_max":755,"o":"m 755 570 l 755 85 q 619 267 722 267 l 619 267 l 619 447 l -1 447 q 155 558 146 482 l 155 558 q 156 564 156 562 l 156 564 q 154 570 156 568 l 154 570 l 755 570 z "},"":{"ha":871,"x_min":65,"x_max":846,"o":"m 456 11 l 456 11 q 178 125 291 11 q 65 404 65 239 l 65 404 q 168 671 65 551 l 168 671 q 422 796 276 796 l 422 796 q 724 694 606 796 l 724 694 q 846 404 846 586 l 846 404 q 733 125 846 240 q 456 11 620 11 z m 456 86 l 456 86 q 682 178 589 86 q 774 404 774 271 l 774 404 q 681 629 774 536 q 456 722 587 722 l 456 722 q 230 630 323 722 q 138 404 138 537 l 138 404 q 229 177 138 269 q 456 86 320 86 z m 463 507 l 463 507 q 424 534 463 534 l 424 534 l 355 534 l 355 479 l 424 479 q 449 488 435 479 q 463 507 463 496 z m 385 414 l 385 414 l 355 414 l 355 315 q 392 277 355 292 l 392 277 l 237 277 q 275 315 275 296 l 275 315 l 275 568 q 237 604 275 591 l 237 604 l 460 604 q 520 572 496 604 l 520 572 q 543 505 543 542 l 543 505 q 478 418 543 441 l 478 418 q 590 300 576 314 l 590 300 q 718 205 654 239 l 718 205 l 715 205 q 589 253 652 230 q 456 277 526 277 l 456 277 q 485 302 482 291 l 485 302 q 385 414 484 307 z "},"":{"ha":439,"x_min":-1,"x_max":471,"o":"m 330 825 l 330 825 l -1 825 q 136 911 118 855 l 136 911 q 142 938 142 928 l 142 938 q 139 947 142 945 l 139 947 l 469 947 q 471 936 471 943 l 471 936 q 420 859 471 895 l 420 859 q 330 825 373 825 z "},"":{"ha":571,"x_min":69,"x_max":486,"o":"m 486 799 l 486 799 q 426 651 486 711 q 278 590 366 590 l 278 590 q 130 650 190 590 q 69 799 69 711 l 69 799 q 130 947 69 886 q 278 1007 191 1007 l 278 1007 q 426 946 365 1007 q 486 799 486 886 z m 403 799 l 403 799 q 367 888 403 853 q 277 924 331 924 l 277 924 q 189 887 225 924 q 153 799 153 850 l 153 799 q 189 710 153 746 q 278 673 225 673 l 278 673 q 367 710 330 673 q 403 799 403 746 z "},"":{"ha":709,"x_min":68,"x_max":703,"o":"m 317 562 l 317 433 l 322 431 l 325 422 l 454 422 l 456 431 l 461 433 l 461 562 l 457 564 l 456 567 l 323 567 l 322 564 l 317 562 z m 389 211 l 368 283 l 252 283 q 317 336 317 309 l 317 336 l 317 422 l 199 422 q 149 357 164 422 l 149 357 l 149 478 l 77 497 l 149 517 l 149 632 q 199 567 170 567 l 199 567 l 317 567 l 317 696 q 253 746 317 730 l 253 746 l 371 746 l 389 818 l 408 746 l 526 746 q 461 696 461 724 l 461 696 l 463 567 l 558 567 q 611 631 591 567 l 611 631 l 611 522 l 703 497 l 611 473 l 611 357 q 558 422 596 398 l 558 422 l 461 422 l 461 336 q 525 283 461 306 l 525 283 l 410 283 l 389 211 z m 436 86 l 436 86 l 68 86 q 227 197 227 122 l 227 197 q 225 208 227 206 l 225 208 l 593 208 l 593 197 q 534 119 593 157 l 534 119 q 436 86 481 86 z "},"":{"ha":494,"x_min":null,"x_max":null,"o":""},"":{"ha":494,"x_min":null,"x_max":null,"o":""},"":{"ha":410,"x_min":168,"x_max":439,"o":"m 264 827 l 168 827 l 267 1035 l 439 1035 l 264 827 z "},"":{"ha":843,"x_min":16,"x_max":829,"o":"m 325 350 l 422 461 l 519 350 l 422 241 l 325 350 z m 278 -183 l 96 -183 l 96 446 q 100 522 96 471 q 104 598 104 572 l 104 598 q 16 724 104 682 l 16 724 l 358 724 q 278 646 278 690 l 278 646 l 278 363 q 294 199 278 240 l 294 199 q 422 122 323 122 l 422 122 q 574 373 574 122 l 574 373 q 570 464 574 404 q 567 554 567 524 l 567 554 q 568 583 567 564 l 568 583 q 568 611 568 602 l 568 611 q 550 684 568 659 q 486 724 532 709 l 486 724 l 829 724 q 741 529 741 687 l 741 529 q 746 419 741 492 q 750 309 750 346 l 750 309 q 693 90 750 161 l 693 90 q 422 -5 616 -5 l 422 -5 q 349 4 397 -5 q 278 14 301 13 l 278 14 l 278 -183 z "},"":{"ha":730,"x_min":28,"x_max":734,"o":"m 629 914 l 629 -154 q 529 -222 566 -168 l 529 -222 l 529 913 l 412 913 l 412 -187 q 313 -271 350 -205 l 313 -271 l 314 368 q 101 469 176 382 l 101 469 q 28 694 28 554 l 28 694 q 104 906 28 807 l 104 906 q 294 1013 185 1013 l 294 1013 l 734 1013 l 629 914 z "},"":{"ha":281,"x_min":60,"x_max":253,"o":"m 253 422 l 157 314 l 60 422 l 157 533 l 253 422 z "},"":{"ha":381,"x_min":37,"x_max":408,"o":"m 170 -144 l 221 -12 l 281 -12 l 256 -83 q 311 -75 303 -75 l 311 -75 q 408 -178 408 -75 l 408 -178 q 232 -306 408 -306 l 232 -306 q 37 -264 143 -306 l 37 -264 l 65 -191 q 182 -237 170 -237 l 182 -237 q 244 -224 207 -237 l 244 -224 q 289 -186 289 -208 l 289 -186 q 225 -127 289 -127 l 225 -127 q 170 -144 215 -127 l 170 -144 z "},"":{"ha":494,"x_min":null,"x_max":null,"o":""},"":{"ha":563,"x_min":-29,"x_max":496,"o":"m 339 269 l 339 269 l -29 269 q 123 355 104 300 l 123 355 q 130 380 130 371 l 130 380 q 126 392 130 388 l 126 392 l 494 392 q 496 380 496 388 l 496 380 q 437 303 496 340 l 437 303 q 339 269 382 269 z m 257 453 l 257 453 q 92 511 141 453 l 92 511 q 46 684 46 566 l 46 684 q 93 854 46 799 l 93 854 q 257 913 144 913 l 257 913 q 422 854 372 913 l 422 854 q 469 684 469 800 l 469 684 q 423 511 469 566 l 423 511 q 257 453 373 453 z m 257 532 l 257 532 q 338 580 320 532 l 338 580 q 347 684 347 606 l 347 684 q 338 787 347 763 l 338 787 q 257 836 321 836 l 257 836 q 176 787 194 836 l 176 787 q 167 684 167 762 l 167 684 q 176 581 167 606 l 176 581 q 257 532 195 532 z m 197 675 l 257 745 l 318 675 l 257 607 q 197 675 229 638 l 197 675 z "},"":{"ha":655,"x_min":122,"x_max":642,"o":"m 122 669 l 353 385 l 122 98 l 122 262 l 261 385 l 122 510 l 122 669 z m 411 669 l 642 385 l 411 98 l 411 262 l 550 385 l 411 510 l 411 669 z "},"":{"ha":494,"x_min":null,"x_max":null,"o":""},"":{"ha":494,"x_min":null,"x_max":null,"o":""},"":{"ha":494,"x_min":null,"x_max":null,"o":""},"":{"ha":797,"x_min":61,"x_max":817,"o":"m 497 726 l 400 615 l 302 726 l 400 836 q 497 726 432 800 l 497 726 z m 494 623 l 494 623 q 501 583 501 603 l 501 583 q 439 469 501 517 l 439 469 q 326 382 408 445 l 326 382 q 264 275 264 335 l 264 275 q 311 194 264 224 l 311 194 q 404 167 351 167 l 404 167 q 488 189 444 167 l 488 189 q 539 252 539 215 l 539 252 q 534 289 539 264 q 528 323 528 313 l 528 323 l 817 249 q 671 165 728 226 l 671 165 q 581 68 651 144 l 581 68 q 415 22 522 22 l 415 22 q 182 78 281 22 l 182 78 q 61 271 61 146 l 61 271 q 163 455 61 393 l 163 455 q 360 529 199 477 l 360 529 q 494 623 475 566 z "},"":{"ha":986,"x_min":36,"x_max":977,"o":"m 389 1013 l 629 1013 l 977 0 l 764 0 l 694 203 l 319 203 l 249 0 l 36 0 l 389 1013 z m 644 376 l 510 770 l 385 376 l 644 376 z m 475 1092 l 298 1300 l 472 1300 l 571 1092 l 475 1092 z "},"":{"ha":812,"x_min":8,"x_max":833,"o":"m 450 214 l 415 353 l 380 214 l 450 214 z m 833 -102 l 833 -102 l 488 -102 q 541 -40 522 -89 l 541 -40 l 514 54 l 315 54 l 289 -40 l 300 -74 q 338 -102 319 -93 l 338 -102 l 8 -100 q 126 85 88 -37 l 126 85 q 229 411 155 175 l 229 411 q 302 732 302 645 l 302 732 q 273 804 302 779 l 273 804 l 550 804 q 519 726 519 779 l 519 726 q 595 408 519 632 l 595 408 q 704 85 626 319 l 704 85 q 833 -102 748 -48 z m 612 1018 l 340 851 l 439 1018 l 612 1018 z "},"":{"ha":812,"x_min":8,"x_max":833,"o":"m 450 214 l 415 353 l 380 214 l 450 214 z m 833 -102 l 833 -102 l 488 -102 q 541 -40 522 -89 l 541 -40 l 514 54 l 315 54 l 289 -40 l 300 -74 q 338 -102 319 -93 l 338 -102 l 8 -100 q 126 85 88 -37 l 126 85 q 229 411 155 175 l 229 411 q 302 732 302 645 l 302 732 q 273 804 302 779 l 273 804 l 550 804 q 519 726 519 779 l 519 726 q 595 408 519 632 l 595 408 q 704 85 626 319 l 704 85 q 833 -102 748 -48 z m 632 823 l 410 929 l 192 823 l 340 986 l 489 986 l 632 823 z "},"":{"ha":986,"x_min":36,"x_max":977,"o":"m 389 1013 l 629 1013 l 977 0 l 764 0 l 694 203 l 319 203 l 249 0 l 36 0 l 389 1013 z m 644 376 l 510 770 l 385 376 l 644 376 z m 693 1278 l 693 1278 l 754 1278 q 704 1162 741 1208 l 704 1162 q 595 1107 660 1107 l 595 1107 q 495 1137 561 1107 q 396 1168 430 1168 l 396 1168 q 323 1092 336 1168 l 323 1092 l 262 1092 q 317 1211 292 1179 l 317 1211 q 436 1260 358 1260 l 436 1260 q 530 1234 468 1260 q 624 1207 593 1207 l 624 1207 q 693 1278 682 1207 z "},"":{"ha":986,"x_min":36,"x_max":977,"o":"m 389 1013 l 629 1013 l 977 0 l 764 0 l 694 203 l 319 203 l 249 0 l 36 0 l 389 1013 z m 644 376 l 510 770 l 385 376 l 644 376 z m 453 1111 l 300 1111 l 300 1280 l 453 1280 l 453 1111 z m 558 1111 l 558 1280 l 711 1280 l 711 1111 l 558 1111 z "},"":{"ha":812,"x_min":8,"x_max":833,"o":"m 306 940 l 306 940 q 335 1011 306 982 q 406 1040 363 1040 l 406 1040 q 476 1011 447 1040 q 505 940 505 981 l 505 940 q 476 868 505 898 q 406 839 448 839 l 406 839 q 335 868 364 839 q 306 940 306 898 z m 350 940 l 350 940 q 406 885 350 885 l 406 885 q 461 940 461 885 l 461 940 q 406 996 461 996 l 406 996 q 350 940 350 996 z m 450 214 l 415 353 l 380 214 l 450 214 z m 833 -102 l 833 -102 l 488 -102 q 541 -40 522 -89 l 541 -40 l 514 54 l 315 54 l 289 -40 l 300 -74 q 338 -102 319 -93 l 338 -102 l 8 -100 q 126 85 88 -37 l 126 85 q 229 411 155 175 l 229 411 q 302 732 302 645 l 302 732 q 273 804 302 779 l 273 804 l 550 804 q 519 726 519 779 l 519 726 q 595 408 519 632 l 595 408 q 704 85 626 319 l 704 85 q 833 -102 748 -48 z "},"":{"ha":1253,"x_min":7,"x_max":1240,"o":"m 449 214 l 415 353 l 379 214 l 449 214 z m 272 804 l 1126 804 l 1128 526 q 975 604 1046 604 l 975 604 l 774 604 l 774 449 l 958 449 q 1047 493 998 449 l 1047 493 l 1047 237 q 958 281 1007 281 l 958 281 l 774 281 l 774 140 l 987 140 q 1126 165 1053 140 l 1126 165 q 1240 241 1211 195 l 1240 241 l 1026 -296 q 1016 -176 1026 -209 l 1016 -176 q 933 -105 997 -115 l 933 -105 q 785 -102 917 -102 l 785 -102 l 482 -100 l 528 -71 l 539 -40 l 514 54 l 315 54 l 288 -40 l 298 -74 q 336 -102 318 -93 l 336 -102 l 7 -100 q 125 86 85 -39 l 125 86 q 231 409 155 176 l 231 409 q 301 732 301 623 l 301 732 q 272 804 301 779 l 272 804 z "},"":{"ha":705,"x_min":35,"x_max":694,"o":"m 258 -221 l 310 -87 l 370 -87 l 345 -160 q 400 -151 382 -151 l 400 -151 q 496 -254 496 -151 l 496 -254 q 319 -382 496 -382 l 319 -382 q 125 -340 232 -382 l 125 -340 l 153 -267 q 269 -314 252 -314 l 269 -314 q 332 -300 296 -314 l 332 -300 q 376 -261 376 -283 l 376 -261 q 314 -203 376 -203 l 314 -203 q 258 -221 302 -203 l 258 -221 z m 304 804 l 541 804 l 642 479 q 515 557 575 557 l 515 557 l 347 557 q 261 486 300 557 l 261 486 q 227 374 227 422 l 227 374 q 296 177 227 221 l 296 177 q 515 143 347 144 l 515 143 q 519 143 517 143 l 519 143 q 619 161 574 143 l 619 161 q 694 228 680 183 l 694 228 l 526 -330 l 512 -207 q 475 -98 501 -115 l 475 -98 l 302 -100 q 301 -100 302 -100 l 301 -100 q 92 84 167 -100 l 92 84 q 35 379 35 226 l 35 379 q 97 648 35 522 l 97 648 q 304 804 174 804 l 304 804 z "},"":{"ha":844,"x_min":110,"x_max":867,"o":"m 110 0 l 110 1013 l 843 1013 l 843 839 l 318 839 l 318 608 l 803 608 l 803 435 l 318 435 l 318 174 l 867 174 l 867 0 l 110 0 z m 461 1092 l 285 1300 l 458 1300 l 557 1092 l 461 1092 z "},"":{"ha":844,"x_min":110,"x_max":867,"o":"m 110 0 l 110 1013 l 843 1013 l 843 839 l 318 839 l 318 608 l 803 608 l 803 435 l 318 435 l 318 174 l 867 174 l 867 0 l 110 0 z m 525 1092 l 429 1092 l 528 1300 l 701 1300 l 525 1092 z "},"":{"ha":844,"x_min":110,"x_max":867,"o":"m 110 0 l 110 1013 l 843 1013 l 843 839 l 318 839 l 318 608 l 803 608 l 803 435 l 318 435 l 318 174 l 867 174 l 867 0 l 110 0 z m 272 1096 l 422 1300 l 571 1300 l 714 1096 l 606 1096 l 492 1227 l 378 1096 l 272 1096 z "},"":{"ha":844,"x_min":110,"x_max":867,"o":"m 110 0 l 110 1013 l 843 1013 l 843 839 l 318 839 l 318 608 l 803 608 l 803 435 l 318 435 l 318 174 l 867 174 l 867 0 l 110 0 z m 439 1111 l 286 1111 l 286 1280 l 439 1280 l 439 1111 z m 545 1111 l 545 1280 l 697 1280 l 697 1111 l 545 1111 z "},"":{"ha":397,"x_min":-14,"x_max":296,"o":"m 87 1013 l 296 1013 l 296 0 l 87 0 l 87 1013 z m 163 1092 l -14 1300 l 160 1300 l 258 1092 l 163 1092 z "},"":{"ha":357,"x_min":0,"x_max":346,"o":"m 261 701 l 261 701 l 261 8 q 343 -100 261 -54 l 343 -100 l 0 -100 q 52 -53 28 -81 l 52 -53 q 81 8 81 -18 l 81 8 l 81 701 q 0 804 81 763 l 0 804 l 343 804 q 261 701 261 762 z m 346 1018 l 74 851 l 172 1018 l 346 1018 z "},"":{"ha":370,"x_min":-47,"x_max":393,"o":"m 261 701 l 261 701 l 261 8 q 343 -100 261 -54 l 343 -100 l 0 -100 q 52 -53 28 -81 l 52 -53 q 81 8 81 -18 l 81 8 l 81 701 q 0 804 81 763 l 0 804 l 343 804 q 261 701 261 762 z m 393 835 l 171 940 l -47 835 l 102 997 l 250 997 l 393 835 z "},"":{"ha":357,"x_min":0,"x_max":343,"o":"m 261 701 l 261 701 l 261 8 q 343 -100 261 -54 l 343 -100 l 0 -100 q 52 -53 28 -81 l 52 -53 q 81 8 81 -18 l 81 8 l 81 701 q 0 804 81 763 l 0 804 l 343 804 q 261 701 261 762 z m 146 922 l 92 863 l 37 922 l 92 983 l 146 922 z m 309 922 l 257 863 l 203 922 l 257 983 l 309 922 z "},"":{"ha":494,"x_min":null,"x_max":null,"o":""},"":{"ha":1019,"x_min":94,"x_max":918,"o":"m 94 0 l 94 1013 l 300 1013 l 710 317 l 710 1013 l 918 1013 l 918 0 l 713 0 l 302 705 l 302 0 l 94 0 z m 697 1278 l 697 1278 l 758 1278 q 707 1162 747 1211 l 707 1162 q 599 1107 662 1107 l 599 1107 q 499 1137 565 1107 q 400 1168 434 1168 l 400 1168 q 328 1092 342 1168 l 328 1092 l 267 1092 q 321 1211 292 1175 l 321 1211 q 440 1260 363 1260 l 440 1260 q 534 1234 472 1260 q 628 1207 597 1207 l 628 1207 q 697 1278 686 1207 z "},"":{"ha":758,"x_min":40,"x_max":718,"o":"m 379 -103 l 379 -103 q 99 47 179 -103 l 99 47 q 40 378 40 157 l 40 378 q 379 810 40 810 l 379 810 q 718 378 718 810 l 718 378 q 660 47 718 157 l 660 47 q 379 -103 581 -103 z m 379 65 l 379 65 q 501 144 468 65 l 501 144 q 524 305 524 198 l 524 305 l 524 343 q 524 343 524 343 l 524 343 q 524 364 524 343 l 524 364 q 524 378 524 364 l 524 378 q 508 555 524 507 l 508 555 q 379 648 478 648 l 379 648 q 257 576 290 648 l 257 576 q 235 427 235 527 l 235 427 l 235 366 q 247 173 235 219 l 247 173 q 379 65 275 65 z m 282 361 l 379 505 l 476 361 l 379 220 q 282 361 347 267 l 282 361 z m 415 1006 l 513 839 l 241 1006 l 415 1006 z "},"":{"ha":746,"x_min":40,"x_max":718,"o":"m 379 -103 l 379 -103 q 99 47 179 -103 l 99 47 q 40 378 40 157 l 40 378 q 379 810 40 810 l 379 810 q 718 378 718 810 l 718 378 q 660 47 718 157 l 660 47 q 379 -103 581 -103 z m 379 65 l 379 65 q 501 144 468 65 l 501 144 q 524 305 524 198 l 524 305 l 524 343 q 524 343 524 343 l 524 343 q 524 364 524 343 l 524 364 q 524 378 524 364 l 524 378 q 508 555 524 507 l 508 555 q 379 648 478 648 l 379 648 q 257 576 290 648 l 257 576 q 235 427 235 527 l 235 427 l 235 366 q 247 173 235 219 l 247 173 q 379 65 275 65 z m 282 361 l 379 505 l 476 361 l 379 220 q 282 361 347 267 l 282 361 z m 555 1006 l 285 839 l 382 1006 l 555 1006 z "},"":{"ha":758,"x_min":40,"x_max":718,"o":"m 379 -103 l 379 -103 q 99 47 179 -103 l 99 47 q 40 378 40 157 l 40 378 q 379 810 40 810 l 379 810 q 718 378 718 810 l 718 378 q 660 47 718 157 l 660 47 q 379 -103 581 -103 z m 379 65 l 379 65 q 501 144 468 65 l 501 144 q 524 305 524 198 l 524 305 l 524 343 q 524 343 524 343 l 524 343 q 524 364 524 343 l 524 364 q 524 378 524 364 l 524 378 q 508 555 524 507 l 508 555 q 379 648 478 648 l 379 648 q 257 576 290 648 l 257 576 q 235 427 235 527 l 235 427 l 235 366 q 247 173 235 219 l 247 173 q 379 65 275 65 z m 282 361 l 379 505 l 476 361 l 379 220 q 282 361 347 267 l 282 361 z m 600 823 l 378 929 l 158 823 l 309 986 l 457 986 l 600 823 z "},"":{"ha":1084,"x_min":56,"x_max":1031,"o":"m 1031 498 l 1031 498 q 905 121 1031 266 l 905 121 q 543 -32 772 -32 l 543 -32 q 181 121 314 -32 l 181 121 q 56 498 56 266 l 56 498 q 181 877 56 732 l 181 877 q 543 1029 313 1029 l 543 1029 q 905 876 772 1029 l 905 876 q 1031 498 1031 732 z m 543 150 l 543 150 q 763 256 686 150 l 763 256 q 831 498 831 350 l 831 498 q 763 741 831 647 l 763 741 q 543 847 686 847 l 543 847 q 323 741 401 847 l 323 741 q 256 498 256 647 l 256 498 q 324 257 256 351 l 324 257 q 543 150 401 150 z m 728 1278 l 728 1278 l 789 1278 q 738 1162 774 1207 l 738 1162 q 629 1107 694 1107 l 629 1107 q 530 1137 595 1107 q 431 1168 465 1168 l 431 1168 q 358 1092 372 1168 l 358 1092 l 297 1092 q 352 1211 322 1175 l 352 1211 q 471 1260 394 1260 l 471 1260 q 565 1234 503 1260 q 659 1207 627 1207 l 659 1207 q 728 1278 717 1207 z "},"":{"ha":1084,"x_min":56,"x_max":1031,"o":"m 1031 498 l 1031 498 q 905 121 1031 266 l 905 121 q 543 -32 772 -32 l 543 -32 q 181 121 314 -32 l 181 121 q 56 498 56 266 l 56 498 q 181 877 56 732 l 181 877 q 543 1029 313 1029 l 543 1029 q 905 876 772 1029 l 905 876 q 1031 498 1031 732 z m 543 150 l 543 150 q 763 256 686 150 l 763 256 q 831 498 831 350 l 831 498 q 763 741 831 647 l 763 741 q 543 847 686 847 l 543 847 q 323 741 401 847 l 323 741 q 256 498 256 647 l 256 498 q 324 257 256 351 l 324 257 q 543 150 401 150 z m 488 1111 l 335 1111 l 335 1280 l 488 1280 l 488 1111 z m 593 1111 l 593 1280 l 746 1280 l 746 1111 l 593 1111 z "},"":{"ha":848,"x_min":5,"x_max":818,"o":"m 419 -26 l 419 -26 q 146 96 227 -26 l 146 96 q 82 397 82 194 l 82 397 q 146 701 82 602 l 146 701 q 419 822 226 822 l 419 822 q 694 701 614 822 l 694 701 q 758 397 758 602 l 758 397 q 692 95 758 194 l 692 95 q 419 -26 612 -26 z m 28 153 l 28 153 l 818 833 q 778 730 778 770 l 778 730 l 785 704 l 798 694 l 5 -14 q 50 102 50 57 l 50 102 q 28 153 50 135 z m 419 119 l 419 119 q 551 214 524 119 l 551 214 q 564 397 564 255 l 564 397 l 564 456 q 541 608 564 559 l 541 608 q 419 676 509 676 l 419 676 q 292 583 309 676 l 292 583 q 277 489 288 562 l 277 489 q 264 353 264 410 l 264 353 q 419 119 264 119 z "},"":{"ha":1000,"x_min":106,"x_max":908,"o":"m 700 311 l 700 1013 l 908 1013 l 908 314 q 791 52 908 144 l 791 52 q 511 -32 686 -32 l 511 -32 q 231 56 346 -32 l 231 56 q 106 314 106 153 l 106 314 l 106 1013 l 314 1013 l 314 311 q 505 149 314 149 l 505 149 q 700 311 700 149 l 700 311 z m 475 1092 l 298 1300 l 472 1300 l 571 1092 l 475 1092 z "},"":{"ha":828,"x_min":16,"x_max":829,"o":"m 325 359 l 422 504 l 519 359 l 422 220 q 325 359 391 267 l 325 359 z m 749 347 l 749 347 q 696 33 749 129 l 696 33 q 422 -103 623 -103 l 422 -103 q 155 18 230 -103 l 155 18 q 100 295 100 108 l 100 295 q 103 419 100 336 l 103 419 q 106 543 106 501 l 106 543 q 16 804 106 753 l 16 804 l 358 804 q 278 701 278 762 l 278 701 l 278 376 q 290 177 278 224 l 290 177 q 422 64 317 64 l 422 64 q 545 145 511 64 l 545 145 q 568 310 568 201 l 568 310 l 568 349 q 568 349 568 349 l 568 349 q 567 370 568 349 l 567 370 q 567 383 567 370 l 567 383 l 567 549 q 569 606 567 568 q 571 662 571 643 l 571 662 q 486 804 571 758 l 486 804 l 829 804 q 736 585 736 755 l 736 585 q 743 466 736 545 q 749 347 749 387 z m 689 1018 l 415 851 l 515 1018 l 689 1018 z "},"":{"ha":1000,"x_min":106,"x_max":908,"o":"m 700 311 l 700 1013 l 908 1013 l 908 314 q 791 52 908 144 l 791 52 q 511 -32 686 -32 l 511 -32 q 231 56 346 -32 l 231 56 q 106 314 106 153 l 106 314 l 106 1013 l 314 1013 l 314 311 q 505 149 314 149 l 505 149 q 700 311 700 149 l 700 311 z m 286 1096 l 436 1300 l 585 1300 l 728 1096 l 619 1096 l 505 1227 l 392 1096 l 286 1096 z "},"":{"ha":1000,"x_min":106,"x_max":908,"o":"m 700 311 l 700 1013 l 908 1013 l 908 314 q 791 52 908 144 l 791 52 q 511 -32 686 -32 l 511 -32 q 231 56 346 -32 l 231 56 q 106 314 106 153 l 106 314 l 106 1013 l 314 1013 l 314 311 q 505 149 314 149 l 505 149 q 700 311 700 149 l 700 311 z m 453 1111 l 300 1111 l 300 1280 l 453 1280 l 453 1111 z m 558 1111 l 558 1280 l 711 1280 l 711 1111 l 558 1111 z "},"":{"ha":494,"x_min":null,"x_max":null,"o":""},"":{"ha":494,"x_min":null,"x_max":null,"o":""},"":{"ha":823,"x_min":93,"x_max":799,"o":"m 395 -11 l 395 -11 q 532 96 463 10 l 532 96 q 603 254 603 184 l 603 254 q 395 397 603 397 l 395 397 l 395 507 q 541 611 541 507 l 541 611 q 492 682 541 656 l 492 682 q 404 703 453 703 l 404 703 q 288 602 288 703 l 288 602 l 288 86 q 93 0 147 86 l 93 0 l 93 637 q 209 790 93 736 l 209 790 q 411 832 299 832 l 411 832 q 623 789 532 832 l 623 789 q 739 627 739 734 l 739 627 q 707 526 739 570 l 707 526 q 619 471 673 479 l 619 471 l 619 468 q 750 409 701 465 q 799 269 799 353 l 799 269 q 711 58 799 136 l 711 58 q 492 -18 626 -18 l 492 -18 q 494 -18 494 -18 l 494 -18 q 395 -11 494 -17 z "},"":{"ha":745,"x_min":37,"x_max":728,"o":"m 728 26 l 728 0 l 522 0 q 501 75 501 29 l 501 75 q 260 -32 386 -32 l 260 -32 q 37 200 37 -32 l 37 200 q 157 407 37 355 l 157 407 q 380 453 175 414 l 380 453 q 500 557 500 475 l 500 557 q 372 625 500 625 l 372 625 q 278 597 307 625 q 244 503 250 568 l 244 503 l 61 503 q 372 765 63 765 l 372 765 q 632 680 557 765 l 632 680 q 691 479 691 614 l 691 479 q 682 337 691 431 q 672 195 672 242 l 672 195 q 728 26 672 75 l 728 26 z m 500 307 l 500 354 q 395 326 473 337 l 395 326 q 283 300 312 313 l 283 300 q 231 218 231 275 l 231 218 q 328 126 231 126 l 328 126 q 500 307 500 126 l 500 307 z m 355 827 l 179 1035 l 353 1035 l 452 827 l 355 827 z "},"":{"ha":821,"x_min":8,"x_max":833,"o":"m 450 268 l 415 387 l 380 268 l 450 268 z m 833 0 l 833 0 l 488 0 q 541 52 522 9 l 541 52 l 514 132 l 315 132 l 289 52 q 338 0 294 9 l 338 0 l 8 0 q 126 158 85 52 l 126 158 q 227 415 155 229 l 227 415 q 302 665 302 609 l 302 665 q 273 726 302 704 l 273 726 l 550 726 q 519 661 519 704 l 519 661 q 595 410 519 584 l 595 410 q 704 158 625 340 l 704 158 q 751 64 734 87 l 751 64 q 833 0 779 28 z m 596 952 l 323 785 l 422 952 l 596 952 z "},"":{"ha":756,"x_min":37,"x_max":728,"o":"m 728 26 l 728 0 l 522 0 q 501 75 501 29 l 501 75 q 260 -32 386 -32 l 260 -32 q 37 200 37 -32 l 37 200 q 157 407 37 355 l 157 407 q 380 453 175 414 l 380 453 q 500 557 500 475 l 500 557 q 372 625 500 625 l 372 625 q 278 597 307 625 q 244 503 250 568 l 244 503 l 61 503 q 372 765 63 765 l 372 765 q 632 680 557 765 l 632 680 q 691 479 691 614 l 691 479 q 682 337 691 431 q 672 195 672 242 l 672 195 q 728 26 672 75 l 728 26 z m 500 307 l 500 354 q 395 326 473 337 l 395 326 q 283 300 312 313 l 283 300 q 231 218 231 275 l 231 218 q 328 126 231 126 l 328 126 q 500 307 500 126 l 500 307 z m 167 831 l 317 1035 l 465 1035 l 608 831 l 500 831 l 386 962 l 272 831 l 167 831 z "},"":{"ha":755,"x_min":37,"x_max":728,"o":"m 728 26 l 728 0 l 522 0 q 501 75 501 29 l 501 75 q 260 -32 386 -32 l 260 -32 q 37 200 37 -32 l 37 200 q 157 407 37 355 l 157 407 q 380 453 175 414 l 380 453 q 500 557 500 475 l 500 557 q 372 625 500 625 l 372 625 q 278 597 307 625 q 244 503 250 568 l 244 503 l 61 503 q 372 765 63 765 l 372 765 q 632 680 557 765 l 632 680 q 691 479 691 614 l 691 479 q 682 337 691 431 q 672 195 672 242 l 672 195 q 728 26 672 75 l 728 26 z m 500 307 l 500 354 q 395 326 473 337 l 395 326 q 283 300 312 313 l 283 300 q 231 218 231 275 l 231 218 q 328 126 231 126 l 328 126 q 500 307 500 126 l 500 307 z m 574 1013 l 574 1013 l 635 1013 q 583 897 623 945 l 583 897 q 475 842 538 842 l 475 842 q 376 872 441 842 q 277 903 311 903 l 277 903 q 204 827 216 903 l 204 827 l 143 827 q 199 945 171 911 l 199 945 q 317 994 241 994 l 317 994 q 411 968 349 994 q 504 942 473 942 l 504 942 q 574 1013 562 942 z "},"":{"ha":825,"x_min":8,"x_max":833,"o":"m 385 827 l 330 766 l 277 827 l 330 888 l 385 827 z m 547 827 l 496 766 l 441 827 l 496 888 l 547 827 z m 450 268 l 415 387 l 380 268 l 450 268 z m 833 0 l 833 0 l 488 0 q 541 52 522 9 l 541 52 l 514 132 l 315 132 l 289 52 q 338 0 294 9 l 338 0 l 8 0 q 126 158 85 52 l 126 158 q 227 415 155 229 l 227 415 q 302 665 302 609 l 302 665 q 273 726 302 704 l 273 726 l 550 726 q 519 661 519 704 l 519 661 q 595 410 519 584 l 595 410 q 704 158 625 340 l 704 158 q 751 64 734 87 l 751 64 q 833 0 779 28 z "},"":{"ha":809,"x_min":8,"x_max":833,"o":"m 306 766 l 306 766 q 335 838 306 808 q 406 867 363 867 l 406 867 q 476 837 447 867 q 505 766 505 808 l 505 766 q 476 695 505 724 q 406 665 448 665 l 406 665 q 335 695 364 665 q 306 766 306 724 z m 350 766 l 350 766 q 406 711 350 711 l 406 711 q 461 766 461 711 l 461 766 q 406 822 461 822 l 406 822 q 350 766 350 822 z m 450 171 l 415 282 l 380 171 l 450 171 z m 833 -81 l 833 -81 l 488 -81 q 541 -32 528 -69 l 541 -32 l 514 43 l 315 43 l 289 -32 l 300 -58 q 338 -81 319 -77 l 338 -81 l 8 -81 q 126 68 89 -29 l 126 68 q 228 328 155 140 l 228 328 q 302 585 302 521 l 302 585 q 273 643 302 623 l 273 643 l 550 643 q 519 581 519 623 l 519 581 q 595 326 519 508 l 595 326 q 704 68 626 254 l 704 68 q 833 -81 749 -41 z "},"":{"ha":1255,"x_min":7,"x_max":1240,"o":"m 449 171 l 415 282 l 379 171 l 449 171 z m 272 643 l 1126 643 l 1128 422 q 975 484 1040 484 l 975 484 l 774 484 l 774 358 l 958 358 q 1047 395 996 358 l 1047 395 l 1047 191 q 958 224 1008 224 l 958 224 l 774 224 l 774 111 l 994 111 q 1125 131 1057 111 l 1125 131 q 1240 193 1204 154 l 1240 193 l 1026 -237 q 990 -105 1026 -138 l 990 -105 q 883 -79 962 -79 l 883 -79 q 834 -80 867 -79 l 834 -80 q 785 -81 801 -81 l 785 -81 l 488 -81 l 528 -57 l 539 -32 l 514 41 l 315 41 l 288 -32 l 298 -58 q 336 -81 318 -77 l 336 -81 l 7 -81 q 125 66 86 -31 l 125 66 q 229 326 154 138 l 229 326 q 301 585 301 507 l 301 585 q 272 643 301 623 l 272 643 z "},"":{"ha":697,"x_min":35,"x_max":694,"o":"m 258 -117 l 310 16 l 370 16 l 345 -57 q 400 -49 389 -49 l 400 -49 q 496 -150 496 -49 l 496 -150 q 319 -279 496 -279 l 319 -279 q 125 -236 232 -279 l 125 -236 l 153 -164 q 210 -191 158 -166 l 210 -191 q 269 -210 248 -210 l 269 -210 q 332 -197 296 -210 l 332 -197 q 376 -158 376 -180 l 376 -158 q 314 -100 376 -100 l 314 -100 q 258 -117 304 -100 l 258 -117 z m 304 724 l 541 724 l 642 473 q 515 533 576 533 l 515 533 l 347 533 q 256 473 292 533 l 256 473 q 227 364 227 422 l 227 364 q 259 251 227 307 l 259 251 q 351 186 297 186 l 351 186 l 515 186 q 614 199 566 186 l 614 199 q 694 252 680 218 l 694 252 l 526 -150 q 509 -68 522 -127 l 509 -68 q 475 0 494 0 l 475 0 q 150 67 245 0 l 150 67 q 35 368 35 149 l 35 368 q 99 605 35 504 l 99 605 q 304 724 174 724 l 304 724 z "},"":{"ha":738,"x_min":32,"x_max":729,"o":"m 729 371 l 728 315 l 228 315 l 227 282 q 227 275 227 279 l 227 275 q 271 170 227 212 l 271 170 q 385 125 317 125 l 385 125 q 470 149 427 125 l 470 149 q 528 212 519 175 l 528 212 l 720 212 q 587 37 696 111 l 587 37 q 376 -32 484 -32 l 376 -32 q 135 60 235 -32 l 135 60 q 32 296 32 155 l 32 296 q 93 623 32 516 l 93 623 q 378 765 174 765 l 378 765 q 642 650 546 765 l 642 650 q 729 386 729 546 l 729 386 q 729 371 729 378 l 729 371 z m 228 446 l 228 446 l 526 446 q 382 603 526 603 l 382 603 q 271 558 314 603 q 228 446 228 514 z m 355 827 l 179 1035 l 353 1035 l 452 827 l 355 827 z "},"":{"ha":745,"x_min":12,"x_max":742,"o":"m 428 0 l 12 0 q 93 83 93 41 l 93 83 l 93 646 q 14 726 93 684 l 14 726 l 628 726 l 628 513 q 476 572 553 572 l 476 572 l 275 572 l 275 452 l 460 452 q 549 486 500 452 l 549 486 l 549 261 q 460 293 510 293 l 460 293 l 275 293 l 275 184 l 494 184 q 626 203 559 184 l 626 203 q 742 262 707 225 l 742 262 l 526 -150 q 428 0 526 0 l 428 0 z m 547 952 l 275 785 l 374 952 l 547 952 z "},"":{"ha":738,"x_min":32,"x_max":729,"o":"m 729 371 l 728 315 l 228 315 l 227 282 q 227 275 227 279 l 227 275 q 271 170 227 212 l 271 170 q 385 125 317 125 l 385 125 q 470 149 427 125 l 470 149 q 528 212 519 175 l 528 212 l 720 212 q 587 37 696 111 l 587 37 q 376 -32 484 -32 l 376 -32 q 135 60 235 -32 l 135 60 q 32 296 32 155 l 32 296 q 93 623 32 516 l 93 623 q 378 765 174 765 l 378 765 q 642 650 546 765 l 642 650 q 729 386 729 546 l 729 386 q 729 371 729 378 l 729 371 z m 228 446 l 228 446 l 526 446 q 382 603 526 603 l 382 603 q 271 558 314 603 q 228 446 228 514 z m 167 831 l 317 1035 l 465 1035 l 608 831 l 500 831 l 386 962 l 272 831 l 167 831 z "},"":{"ha":744,"x_min":12,"x_max":742,"o":"m 313 827 l 258 766 l 204 827 l 258 888 l 313 827 z m 475 827 l 424 766 l 370 827 l 424 888 l 475 827 z m 428 0 l 12 0 q 93 83 93 41 l 93 83 l 93 646 q 14 725 93 694 l 14 725 l 628 726 l 628 513 q 476 572 553 572 l 476 572 l 275 572 l 275 452 l 460 452 q 549 486 500 452 l 549 486 l 549 261 q 460 293 510 293 l 460 293 l 275 293 l 275 184 l 494 184 q 626 203 559 184 l 626 203 q 742 262 707 225 l 742 262 l 526 -150 q 428 0 526 0 l 428 0 z "},"":{"ha":370,"x_min":-14,"x_max":288,"o":"m 93 0 l 93 753 l 288 753 l 288 0 l 93 0 z m 163 827 l -14 1035 l 160 1035 l 258 827 l 163 827 z "},"":{"ha":357,"x_min":0,"x_max":343,"o":"m 261 646 l 261 646 l 261 83 q 343 0 261 37 l 343 0 l 0 0 q 50 35 26 14 l 50 35 q 81 83 81 62 l 81 83 l 81 646 q 0 724 81 699 l 0 724 l 343 724 q 261 646 261 690 z m 336 952 l 63 785 l 162 952 l 336 952 z "},"":{"ha":387,"x_min":-26,"x_max":415,"o":"m 93 0 l 93 753 l 288 753 l 288 0 l 93 0 z m -26 831 l 123 1035 l 272 1035 l 415 831 l 307 831 l 193 962 l 79 831 l -26 831 z "},"":{"ha":362,"x_min":0,"x_max":343,"o":"m 151 827 l 97 766 l 43 827 l 97 888 l 151 827 z m 314 827 l 262 766 l 208 827 l 262 888 l 314 827 z m 261 646 l 261 646 l 261 83 q 343 0 261 37 l 343 0 l 0 0 q 50 35 26 14 l 50 35 q 81 83 81 62 l 81 83 l 81 646 q 0 724 81 699 l 0 724 l 343 724 q 261 646 261 690 z "},"":{"ha":494,"x_min":null,"x_max":null,"o":""},"":{"ha":842,"x_min":89,"x_max":760,"o":"m 283 0 l 89 0 l 89 753 l 283 753 l 283 639 l 286 639 q 471 765 346 765 l 471 765 q 760 504 760 765 l 760 504 l 760 0 l 567 0 l 567 447 q 535 559 567 525 q 425 593 503 593 l 425 593 q 283 467 283 593 l 283 467 l 283 0 z m 621 1013 l 621 1013 l 684 1013 q 522 842 644 842 l 522 842 q 423 872 488 842 q 323 903 358 903 l 323 903 q 252 827 264 903 l 252 827 l 191 827 q 245 945 220 914 l 245 945 q 364 994 286 994 l 364 994 q 458 968 395 994 q 551 942 521 942 l 551 942 q 621 1013 608 942 z "},"":{"ha":807,"x_min":49,"x_max":790,"o":"m 419 -32 l 419 -32 q 142 79 239 -32 l 142 79 q 49 367 49 184 l 49 367 q 142 654 49 549 l 142 654 q 419 765 239 765 l 419 765 q 697 654 600 765 l 697 654 q 790 367 790 550 l 790 367 q 697 79 790 184 l 697 79 q 419 -32 600 -32 z m 419 599 l 419 599 q 286 522 335 599 l 286 522 q 243 367 243 456 l 243 367 q 286 212 243 278 l 286 212 q 419 135 335 135 l 419 135 q 553 211 504 135 l 553 211 q 595 367 595 277 l 595 367 q 553 522 595 456 l 553 522 q 419 599 504 599 z m 393 827 l 215 1035 l 390 1035 l 489 827 l 393 827 z "},"":{"ha":736,"x_min":40,"x_max":718,"o":"m 379 -5 l 379 -5 q 115 89 196 -5 l 115 89 q 40 363 40 176 l 40 363 q 114 637 40 551 l 114 637 q 379 730 194 730 l 379 730 q 644 637 564 730 l 644 637 q 718 363 718 551 l 718 363 q 644 88 718 175 l 644 88 q 379 -5 564 -5 z m 379 122 l 379 122 q 508 199 479 122 l 508 199 q 524 363 524 240 l 524 363 q 509 529 524 490 l 509 529 q 379 607 481 607 l 379 607 q 249 530 277 607 l 249 530 q 235 363 235 491 l 235 363 q 250 199 235 241 l 250 199 q 379 122 279 122 z m 282 350 l 379 461 l 476 350 l 379 241 q 282 350 347 277 l 282 350 z m 547 952 l 275 785 l 374 952 l 547 952 z "},"":{"ha":808,"x_min":49,"x_max":790,"o":"m 419 -32 l 419 -32 q 142 79 239 -32 l 142 79 q 49 367 49 184 l 49 367 q 142 654 49 549 l 142 654 q 419 765 239 765 l 419 765 q 697 654 600 765 l 697 654 q 790 367 790 550 l 790 367 q 697 79 790 184 l 697 79 q 419 -32 600 -32 z m 419 599 l 419 599 q 286 522 335 599 l 286 522 q 243 367 243 456 l 243 367 q 286 212 243 278 l 286 212 q 419 135 335 135 l 419 135 q 553 211 504 135 l 553 211 q 595 367 595 277 l 595 367 q 553 522 595 456 l 553 522 q 419 599 504 599 z m 203 831 l 354 1035 l 503 1035 l 646 831 l 538 831 l 424 962 l 310 831 l 203 831 z "},"":{"ha":808,"x_min":49,"x_max":790,"o":"m 419 -32 l 419 -32 q 142 79 239 -32 l 142 79 q 49 367 49 184 l 49 367 q 142 654 49 549 l 142 654 q 419 765 239 765 l 419 765 q 697 654 600 765 l 697 654 q 790 367 790 550 l 790 367 q 697 79 790 184 l 697 79 q 419 -32 600 -32 z m 419 599 l 419 599 q 286 522 335 599 l 286 522 q 243 367 243 456 l 243 367 q 286 212 243 278 l 286 212 q 419 135 335 135 l 419 135 q 553 211 504 135 l 553 211 q 595 367 595 277 l 595 367 q 553 522 595 456 l 553 522 q 419 599 504 599 z m 611 1013 l 611 1013 l 672 1013 q 513 842 634 842 l 513 842 q 413 872 479 842 q 314 903 348 903 l 314 903 q 241 827 256 903 l 241 827 l 179 827 q 235 945 203 909 l 235 945 q 354 994 278 994 l 354 994 q 449 968 386 994 q 542 942 511 942 l 542 942 q 611 1013 600 942 z "},"":{"ha":745,"x_min":40,"x_max":718,"o":"m 346 827 l 292 766 l 237 827 l 292 888 l 346 827 z m 509 827 l 457 766 l 403 827 l 457 888 l 509 827 z m 379 -5 l 379 -5 q 115 89 196 -5 l 115 89 q 40 363 40 176 l 40 363 q 114 637 40 551 l 114 637 q 379 730 194 730 l 379 730 q 644 637 564 730 l 644 637 q 718 363 718 551 l 718 363 q 644 88 718 175 l 644 88 q 379 -5 564 -5 z m 379 122 l 379 122 q 508 199 479 122 l 508 199 q 524 363 524 240 l 524 363 q 509 529 524 490 l 509 529 q 379 607 481 607 l 379 607 q 249 530 277 607 l 249 530 q 235 363 235 491 l 235 363 q 250 199 235 241 l 250 199 q 379 122 279 122 z m 282 350 l 379 461 l 476 350 l 379 241 q 282 350 347 277 l 282 350 z "},"":{"ha":526,"x_min":-1,"x_max":524,"o":"m 400 165 l 302 57 l 207 165 l 302 277 l 400 165 z m 367 336 l 367 336 l -1 336 q 155 447 155 372 l 155 447 q 154 458 155 456 l 154 458 l 522 458 q 524 447 524 454 l 524 447 q 464 370 524 408 l 464 370 q 367 336 410 336 z m 400 614 l 302 505 l 207 614 l 302 725 l 400 614 z "},"":{"ha":866,"x_min":16,"x_max":831,"o":"m 675 685 l 675 685 l 768 779 l 831 722 l 730 621 q 793 371 793 524 l 793 371 q 700 83 793 189 l 700 83 q 422 -28 602 -28 l 422 -28 q 174 53 265 -28 l 174 53 l 75 -47 l 16 4 l 121 111 q 52 371 52 212 l 52 371 q 144 659 52 554 l 144 659 q 422 770 241 770 l 422 770 q 675 685 576 770 z m 583 471 l 583 471 l 307 191 q 422 139 351 139 l 422 139 q 555 216 507 139 l 555 216 q 597 371 597 282 l 597 371 q 583 471 597 406 z m 264 261 l 264 261 l 543 545 q 422 603 498 603 l 422 603 q 289 526 338 603 l 289 526 q 248 371 248 461 l 248 371 q 264 261 248 325 z "},"":{"ha":838,"x_min":89,"x_max":760,"o":"m 567 753 l 760 753 l 760 0 l 567 0 l 567 93 l 564 93 q 379 -32 489 -32 l 379 -32 q 89 229 89 -32 l 89 229 l 89 753 l 283 753 l 283 286 q 314 174 283 207 q 424 140 345 140 l 424 140 q 522 175 480 140 l 522 175 q 567 267 567 212 l 567 267 l 567 753 z m 393 827 l 216 1035 l 390 1035 l 489 827 l 393 827 z "},"":{"ha":823,"x_min":16,"x_max":829,"o":"m 325 350 l 422 461 l 519 350 l 422 241 l 325 350 z m 422 -5 l 422 -5 q 154 90 230 -5 l 154 90 q 96 310 96 163 l 96 310 q 101 424 96 348 q 106 537 106 499 l 106 537 q 16 724 106 693 l 16 724 l 358 724 q 278 646 278 690 l 278 646 l 278 363 q 294 199 278 240 l 294 199 q 422 122 323 122 l 422 122 q 574 373 574 122 l 574 373 q 570 464 574 404 q 567 554 567 524 l 567 554 q 568 583 567 564 l 568 583 q 568 612 568 602 l 568 612 q 550 684 568 660 q 486 724 532 709 l 486 724 l 829 724 q 741 529 741 687 l 741 529 q 746 419 741 492 q 750 310 750 347 l 750 310 q 693 90 750 161 l 693 90 q 422 -5 617 -5 z m 596 952 l 323 785 l 422 952 l 596 952 z "},"":{"ha":838,"x_min":89,"x_max":760,"o":"m 567 753 l 760 753 l 760 0 l 567 0 l 567 93 l 564 93 q 379 -32 489 -32 l 379 -32 q 89 229 89 -32 l 89 229 l 89 753 l 283 753 l 283 286 q 314 174 283 207 q 424 140 345 140 l 424 140 q 522 175 480 140 l 522 175 q 567 267 567 212 l 567 267 l 567 753 z m 204 831 l 354 1035 l 503 1035 l 646 831 l 539 831 l 424 962 l 310 831 l 204 831 z "},"":{"ha":828,"x_min":16,"x_max":829,"o":"m 396 827 l 342 766 l 288 827 l 342 888 l 396 827 z m 558 827 l 507 766 l 453 827 l 507 888 l 558 827 z m 325 350 l 422 461 l 519 350 l 422 241 l 325 350 z m 422 -5 l 422 -5 q 154 90 230 -5 l 154 90 q 96 310 96 163 l 96 310 q 101 424 96 348 q 106 537 106 499 l 106 537 q 16 724 106 693 l 16 724 l 358 724 q 278 646 278 690 l 278 646 l 278 363 q 294 199 278 240 l 294 199 q 422 122 323 122 l 422 122 q 574 373 574 122 l 574 373 q 570 464 574 404 q 567 554 567 524 l 567 554 q 568 583 567 564 l 568 583 q 568 612 568 602 l 568 612 q 550 684 568 660 q 486 724 532 709 l 486 724 l 829 724 q 741 529 741 687 l 741 529 q 746 419 741 492 q 750 310 750 347 l 750 310 q 693 90 750 161 l 693 90 q 422 -5 617 -5 z "},"":{"ha":494,"x_min":null,"x_max":null,"o":""},"":{"ha":832,"x_min":4,"x_max":840,"o":"m 390 827 l 336 766 l 282 827 l 336 888 l 390 827 z m 553 827 l 501 766 l 447 827 l 501 888 l 553 827 z m 328 83 l 328 364 l 191 535 q 4 725 56 705 l 4 725 l 298 725 q 252 677 252 707 l 252 677 q 327 570 252 652 l 327 570 q 422 469 357 537 l 422 469 q 518 572 449 498 l 518 572 q 593 677 593 654 l 593 677 q 546 725 585 711 l 546 725 l 840 725 q 791 693 807 711 l 791 693 q 760 646 776 669 l 760 646 l 510 354 l 510 83 q 590 0 510 36 l 590 0 l 248 0 q 328 83 328 42 l 328 83 z "},"":{"ha":389,"x_min":93,"x_max":288,"o":"m 93 0 l 93 753 l 288 753 l 288 0 l 93 0 z "},"":{"ha":494,"x_min":null,"x_max":null,"o":""},"":{"ha":494,"x_min":null,"x_max":null,"o":""},"":{"ha":1190,"x_min":24,"x_max":1177,"o":"m 363 65 l 363 65 q 485 143 452 65 l 485 143 q 508 304 508 197 l 508 304 l 508 342 q 508 342 508 342 l 508 342 q 507 363 508 342 l 507 363 q 507 378 507 363 l 507 378 q 492 555 507 507 l 492 555 q 363 648 462 648 l 363 648 q 233 556 263 648 l 233 556 q 218 378 218 510 l 218 378 q 218 363 218 363 l 218 363 q 218 340 218 340 l 218 340 q 218 340 218 340 l 218 340 l 218 300 q 241 142 218 195 l 241 142 q 363 65 274 65 z m 265 361 l 363 505 l 460 361 l 363 220 q 265 361 349 241 l 265 361 z m 24 378 l 24 378 q 363 810 24 810 l 363 810 q 713 807 363 810 l 713 807 l 1063 804 l 1063 526 q 909 604 981 604 l 909 604 l 708 604 l 708 449 l 893 449 q 983 493 934 449 l 983 493 l 983 237 q 893 281 941 281 l 893 281 l 708 281 l 708 140 l 922 140 q 1061 165 991 140 l 1061 165 q 1177 241 1143 195 l 1177 241 l 961 -296 q 863 -100 961 -100 l 863 -100 q 661 -105 795 -100 l 661 -105 q 460 -111 527 -111 l 460 -111 q 140 -26 231 -111 l 140 -26 q 24 378 24 81 z "},"":{"ha":1192,"x_min":24,"x_max":1177,"o":"m 363 54 l 363 54 q 494 137 465 54 l 494 137 q 507 310 507 176 l 507 310 q 488 464 507 421 l 488 464 q 363 532 458 532 l 363 532 q 237 465 267 532 l 237 465 q 218 310 218 424 l 218 310 q 232 137 218 177 l 232 137 q 363 54 260 54 z m 265 296 l 363 414 l 460 296 l 363 180 q 265 296 336 214 l 265 296 z m 24 310 l 24 310 q 359 664 24 664 l 359 664 q 363 664 361 664 l 363 664 l 1063 660 l 1063 432 q 909 496 975 496 l 909 496 l 708 496 l 708 368 l 893 368 q 983 404 933 368 l 983 404 l 983 195 q 893 231 942 231 l 893 231 l 708 231 l 708 115 l 922 115 q 1059 134 991 115 l 1059 134 q 1177 199 1141 157 l 1177 199 l 961 -243 q 863 -82 961 -82 l 863 -82 l 446 -82 q 121 -10 206 -82 l 121 -10 q 24 310 24 72 z "},"":{"ha":494,"x_min":null,"x_max":null,"o":""},"":{"ha":494,"x_min":null,"x_max":null,"o":""},"":{"ha":842,"x_min":37,"x_max":903,"o":"m 475 576 l 669 1013 l 903 1013 l 729 694 q 579 375 614 483 l 579 375 l 579 0 l 371 0 l 371 375 q 216 692 338 474 l 216 692 l 37 1013 l 269 1013 l 475 576 z m 410 1111 l 257 1111 l 257 1280 l 410 1280 l 410 1111 z m 515 1111 l 515 1280 l 668 1280 l 668 1111 l 515 1111 z "},"":{"ha":494,"x_min":null,"x_max":null,"o":""},"":{"ha":494,"x_min":null,"x_max":null,"o":""},"":{"ha":739,"x_min":3,"x_max":761,"o":"m 525 668 l 761 668 l 504 532 l 418 -20 q 150 -307 373 -307 l 150 -307 q 3 -256 86 -307 l 3 -256 q 172 -154 119 -238 l 172 -154 q 229 40 208 -95 l 229 40 l 306 533 l 57 533 l 338 668 q 404 916 368 848 l 404 916 q 612 1035 469 1035 l 612 1035 q 743 1011 657 1035 l 743 1011 q 525 668 567 979 l 525 668 z "},"":{"ha":812,"x_min":-123,"x_max":809,"o":"m 149 29 l 149 29 l 171 109 q 176 112 172 112 l 176 112 q 220 112 176 112 q 309 112 264 112 l 309 112 l 353 112 q 355 111 355 112 l 355 111 l 378 26 q 378 24 378 25 l 378 24 q 374 12 375 18 l 374 12 q 368 -2 372 6 l 368 -2 q 352 -18 366 -8 l 352 -18 q 334 -29 343 -24 l 334 -29 q 332 -31 332 -29 l 332 -31 q 332 -31 332 -31 l 332 -31 q 333 -32 332 -32 l 333 -32 q 412 -36 381 -31 l 412 -36 q 600 -123 517 -56 l 600 -123 q 660 -170 635 -151 l 660 -170 q 663 -172 661 -171 q 666 -174 665 -173 l 666 -174 q 808 -287 672 -178 l 808 -287 q 808 -287 808 -287 q 808 -286 808 -286 l 808 -286 q 796 -273 801 -279 l 796 -273 q 785 -259 787 -262 l 785 -259 q 665 -119 722 -187 l 665 -119 q 635 -77 646 -94 l 635 -77 q 604 -32 629 -69 l 604 -32 q 604 -29 604 -31 l 604 -29 q 604 -28 604 -29 l 604 -28 q 604 -27 604 -28 l 604 -27 q 565 45 582 4 l 565 45 q 540 110 553 75 l 540 110 q 538 115 538 113 q 536 119 538 117 l 536 119 q 517 178 528 144 l 517 178 q 435 437 487 273 l 435 437 q 400 557 414 504 l 400 557 q 380 635 393 583 l 380 635 q 367 728 370 682 l 367 728 q 389 799 364 773 l 389 799 q 392 800 391 800 l 392 800 q 395 802 394 800 q 393 803 395 803 l 393 803 l 140 803 q 140 800 136 803 l 140 800 q 154 784 148 795 q 162 764 160 773 l 162 764 q 165 710 168 739 l 165 710 q 146 602 160 657 l 146 602 q 123 520 134 556 l 123 520 q 88 414 106 466 l 88 414 q -5 134 75 374 l -5 134 q -24 90 -11 117 l -24 90 q -77 8 -45 43 l -77 8 q -114 -26 -87 -3 l -114 -26 q -115 -26 -115 -26 l -115 -26 l -117 -26 q -118 -26 -117 -25 l -118 -26 l -118 -28 q -119 -28 -118 -28 l -119 -28 q -121 -28 -120 -28 l -121 -28 q -122 -29 -122 -28 l -122 -29 l -123 -30 l -123 -31 q -121 -32 -123 -32 l -121 -32 l 193 -32 q 193 -28 199 -32 l 193 -28 q 174 -16 180 -22 l 174 -16 q 149 26 157 1 l 149 26 q 149 29 148 28 z m 235 214 l 271 353 l 305 214 l 235 214 z "},"":{"ha":814,"x_min":39,"x_max":909,"o":"m 583 417 q 584 415 583 416 q 586 415 585 414 q 588 414 587 415 q 589 412 588 412 l 589 412 q 591 412 591 412 l 591 412 q 644 378 627 393 l 644 378 q 689 303 678 347 l 689 303 q 696 259 694 283 l 696 259 q 699 185 701 220 l 699 185 q 656 60 694 117 l 656 60 q 655 49 652 56 l 655 49 q 659 40 656 46 q 664 30 662 33 l 664 30 q 734 -80 701 -41 l 734 -80 q 771 -120 734 -80 l 771 -120 q 903 -264 811 -164 l 903 -264 q 909 -271 906 -267 l 909 -271 q 909 -272 909 -272 l 909 -272 q 908 -273 909 -273 l 908 -273 q 908 -273 908 -273 l 908 -273 q 904 -271 905 -273 l 904 -271 q 888 -259 895 -264 l 888 -259 q 667 -105 718 -138 l 667 -105 q 507 -38 591 -56 l 507 -38 q 444 -30 473 -31 l 444 -30 q 434 -29 439 -30 l 434 -29 q 425 -28 427 -28 l 425 -28 q 43 -28 68 -28 l 43 -28 q 43 -26 39 -29 l 43 -26 q 92 10 70 -12 q 118 58 115 33 l 118 58 q 119 93 119 62 l 119 93 q 119 709 119 699 l 119 709 q 83 780 119 753 l 83 780 q 56 798 66 793 l 56 798 l 56 798 l 53 798 q 52 799 52 798 l 52 799 q 53 800 53 800 q 52 800 52 800 l 52 800 l 45 800 q 45 801 45 800 l 45 801 l 45 803 q 45 804 45 804 l 45 804 q 492 804 315 804 l 492 804 q 524 801 511 804 l 524 801 q 607 750 571 792 l 607 750 q 667 623 656 693 l 667 623 q 659 504 676 560 l 659 504 q 593 422 644 453 l 593 422 q 591 422 593 422 l 591 422 q 588 420 589 422 q 586 419 587 419 l 586 419 l 584 419 q 583 418 583 419 l 583 418 q 583 417 583 417 l 583 417 z m 300 614 l 300 614 l 300 485 q 298 484 300 484 l 298 484 l 437 485 q 494 503 472 485 l 494 503 q 517 547 517 521 l 517 547 l 517 553 q 494 596 517 578 l 494 596 q 439 614 471 614 l 439 614 l 300 614 q 300 614 300 614 z m 303 298 l 303 298 l 302 162 q 303 161 302 161 l 303 161 l 440 161 q 496 180 474 160 l 496 180 q 520 227 520 199 l 520 227 l 520 231 q 497 278 520 258 l 497 278 q 460 298 474 298 l 460 298 l 323 298 q 303 298 303 299 z "},"":{"ha":699,"x_min":68,"x_max":859,"o":"m 572 -72 l 572 -72 q 566 -81 567 -78 l 566 -81 q 522 -227 545 -151 l 522 -227 q 522 -231 522 -227 l 522 -231 q 518 -235 522 -233 l 518 -235 q 517 -234 517 -235 l 517 -234 q 519 -226 519 -228 q 517 -218 519 -224 q 516 -212 516 -213 l 516 -212 q 505 -114 509 -149 l 505 -114 q 498 -73 502 -90 l 498 -73 q 488 -43 494 -54 l 488 -43 q 472 -32 485 -36 l 472 -32 q 454 -27 458 -28 l 454 -27 q 392 -21 426 -22 l 392 -21 q 293 -20 361 -20 l 293 -20 q 269 -16 286 -21 l 269 -16 q 185 39 221 -4 l 185 39 q 135 115 155 73 l 135 115 q 75 320 90 212 l 75 320 q 71 372 71 348 l 71 372 q 71 372 71 372 l 71 372 l 70 373 q 68 375 68 374 l 68 375 q 68 456 68 416 l 68 456 q 70 458 68 457 l 70 458 q 71 460 71 459 l 71 460 q 73 496 70 471 l 73 496 q 120 654 85 578 l 120 654 q 283 806 182 787 l 283 806 q 326 809 298 809 l 326 809 q 530 809 360 809 l 530 809 q 530 809 530 809 l 530 809 q 534 804 535 808 l 534 804 q 534 803 534 804 l 534 803 q 535 800 534 802 l 535 800 q 536 797 536 798 l 536 797 q 623 519 566 702 l 623 519 q 623 517 623 518 l 623 517 q 625 514 625 516 l 625 514 q 626 505 623 509 l 626 505 q 627 505 627 505 l 627 505 q 626 504 627 504 l 626 504 q 625 505 625 504 l 625 505 l 623 506 q 621 508 621 507 l 621 508 q 616 517 619 514 l 616 517 q 592 541 605 530 l 592 541 q 565 561 574 555 l 565 561 q 503 578 537 578 l 503 578 q 368 578 458 578 l 368 578 q 338 574 348 578 l 338 574 q 307 553 322 569 l 307 553 q 264 487 286 532 l 264 487 q 246 391 243 444 l 246 391 q 252 333 248 359 l 252 333 q 277 267 259 296 l 277 267 q 336 222 297 234 l 336 222 q 386 211 360 214 l 386 211 q 439 205 417 207 l 439 205 q 459 205 445 205 l 459 205 q 460 204 460 205 l 460 204 l 461 203 q 463 203 461 203 l 463 203 q 528 203 516 202 l 528 203 q 578 210 549 204 l 578 210 q 641 238 614 218 l 641 238 q 667 265 655 248 l 667 265 q 669 266 668 266 l 669 266 l 670 266 q 670 265 670 266 l 670 265 q 668 259 669 263 q 667 254 667 255 l 667 254 q 620 99 620 100 l 620 99 q 608 54 615 84 l 608 54 q 610 42 607 47 l 610 42 q 625 14 614 34 l 625 14 q 665 -50 644 -21 l 665 -50 q 701 -92 676 -65 l 701 -92 q 850 -254 754 -149 l 850 -254 q 856 -261 853 -256 l 856 -261 q 854 -262 858 -264 l 854 -262 q 849 -260 852 -262 q 843 -255 846 -258 q 839 -252 840 -252 l 839 -252 q 604 -88 713 -161 l 604 -88 q 574 -71 593 -81 l 574 -71 q 572 -72 572 -71 z "},"":{"ha":720,"x_min":37,"x_max":852,"o":"m 572 51 l 572 51 q 581 28 574 39 l 581 28 q 589 14 585 24 q 596 1 594 5 l 596 1 q 644 -72 626 -48 l 644 -72 q 705 -141 652 -83 l 705 -141 q 840 -287 777 -218 l 840 -287 q 850 -299 843 -290 l 850 -299 q 848 -301 852 -303 l 848 -301 q 842 -298 845 -300 q 837 -294 840 -296 q 832 -290 833 -291 l 832 -290 q 624 -143 731 -217 l 624 -143 q 581 -115 583 -116 l 581 -115 q 437 -50 515 -71 l 437 -50 q 362 -35 400 -39 l 362 -35 q 309 -31 332 -31 l 309 -31 l 40 -31 q 39 -30 37 -31 l 39 -30 q 108 41 90 1 l 108 41 q 113 80 113 54 l 113 80 q 113 707 114 253 l 113 707 q 90 762 113 739 l 90 762 q 45 797 73 779 l 45 797 q 41 798 44 798 l 41 798 q 39 799 39 798 l 39 799 l 39 800 q 41 801 39 801 l 41 801 q 396 801 218 801 l 396 801 q 446 798 432 801 l 446 798 q 529 755 492 790 q 591 673 566 720 l 591 673 q 634 575 618 621 l 634 575 q 655 494 647 536 l 655 494 q 663 435 661 464 l 663 435 q 663 431 663 434 q 664 427 664 428 l 664 427 q 664 357 665 417 l 664 357 q 663 349 664 355 l 663 349 q 663 341 663 347 l 663 341 q 618 142 655 237 l 618 142 q 572 54 602 100 l 572 54 q 572 51 572 52 z m 385 566 l 385 566 l 286 566 l 286 153 l 391 153 q 417 168 397 156 l 417 168 q 511 376 511 222 l 511 376 q 475 492 511 427 l 475 492 q 385 566 433 566 z "},"":{"ha":755,"x_min":79,"x_max":845,"o":"m 553 -193 q 551 -191 552 -191 q 550 -190 550 -191 l 550 -190 q 538 -98 551 -144 l 538 -98 q 526 -82 535 -86 l 526 -82 q 377 -33 455 -46 l 377 -33 q 329 -30 355 -30 l 329 -30 q 85 -30 203 -30 l 85 -30 q 83 -31 83 -30 l 83 -31 l 81 -31 q 80 -31 79 -33 l 80 -31 q 85 -24 82 -27 l 85 -24 q 91 -21 91 -21 q 99 -15 91 -21 l 99 -15 q 152 56 144 18 l 152 56 q 153 83 153 64 l 153 83 q 153 685 153 392 l 153 685 q 150 729 153 717 l 150 729 q 85 799 138 769 l 85 799 q 80 799 84 800 l 80 799 q 79 800 79 799 l 79 800 l 79 802 q 79 802 79 802 l 79 802 l 644 802 q 646 802 646 802 l 646 802 l 646 547 q 645 547 646 547 l 645 547 q 644 547 644 545 l 644 547 q 632 560 639 554 l 632 560 q 609 578 623 568 l 609 578 q 499 615 561 615 l 499 615 q 322 615 328 615 l 322 615 q 321 614 321 615 l 321 614 l 321 479 q 322 477 321 477 l 322 477 q 486 477 390 477 l 486 477 q 543 496 517 477 l 543 496 q 570 515 553 503 l 570 515 q 574 514 573 517 l 574 514 q 574 509 574 512 l 574 509 q 574 283 574 475 l 574 283 q 572 282 574 282 l 572 282 q 572 282 572 282 l 572 282 q 541 307 557 296 l 541 307 q 510 318 530 314 l 510 318 q 477 321 500 321 l 477 321 q 322 321 454 321 l 322 321 q 321 319 321 321 l 321 319 l 321 195 q 322 193 321 193 l 322 193 q 534 194 494 193 l 534 194 q 541 195 536 194 l 541 195 q 548 195 545 195 l 548 195 q 663 224 608 201 l 663 224 q 743 275 715 245 l 743 275 q 746 274 749 281 l 746 274 q 745 270 746 273 l 745 270 q 621 -38 729 231 l 621 -38 q 621 -41 621 -39 l 621 -41 q 622 -46 621 -43 l 622 -46 q 656 -90 639 -71 l 656 -90 q 838 -288 667 -102 l 838 -288 q 844 -296 842 -292 l 844 -296 q 845 -296 845 -296 l 845 -296 q 844 -298 845 -298 l 844 -298 q 843 -298 843 -298 l 843 -298 q 837 -295 840 -297 q 831 -290 834 -292 q 826 -286 827 -287 l 826 -286 q 635 -151 726 -214 l 635 -151 q 615 -137 630 -149 q 591 -121 600 -126 l 591 -121 q 591 -120 591 -120 l 591 -120 q 588 -121 589 -119 l 588 -121 l 588 -121 q 562 -188 579 -141 l 562 -188 q 558 -197 558 -196 l 558 -197 q 557 -199 559 -198 l 557 -199 q 556 -202 555 -199 l 556 -202 q 555 -203 557 -203 q 552 -205 554 -203 l 552 -205 q 551 -205 551 -206 l 551 -205 q 551 -205 551 -205 l 551 -205 q 551 -205 551 -205 l 551 -205 q 553 -193 553 -201 l 553 -193 z "},"":{"ha":699,"x_min":33,"x_max":600,"o":"m 274 318 l 274 318 q 274 66 274 213 l 274 66 q 282 35 274 54 l 282 35 q 290 20 284 29 l 290 20 q 296 11 292 18 q 300 2 299 4 l 300 2 q 332 -49 319 -30 l 332 -49 q 374 -102 347 -73 l 374 -102 q 550 -294 545 -288 l 550 -294 q 555 -299 553 -296 l 555 -299 q 553 -301 557 -304 l 553 -301 q 538 -291 550 -300 l 538 -291 q 304 -127 497 -260 l 304 -127 q 94 -38 204 -58 l 94 -38 q 35 -31 85 -37 l 35 -31 q 35 -29 33 -31 l 35 -29 q 56 -14 41 -24 l 56 -14 q 104 50 94 14 l 104 50 q 107 85 107 60 l 107 85 q 107 702 107 288 l 107 702 q 91 754 107 732 q 45 794 75 775 l 45 794 q 43 795 43 795 l 43 795 q 41 796 41 795 l 41 796 q 39 798 40 798 l 39 798 l 33 798 q 33 798 33 798 l 33 798 l 33 800 q 33 801 33 801 l 33 801 l 598 801 q 599 800 599 801 l 599 800 l 599 547 q 597 546 599 543 l 597 546 q 581 563 591 553 l 581 563 q 488 610 534 602 l 488 610 q 437 613 473 613 l 437 613 q 275 613 408 614 l 275 613 q 274 612 274 613 l 274 612 l 274 477 q 275 476 274 476 l 275 476 q 429 476 307 476 l 429 476 q 464 479 453 476 l 464 479 q 526 514 489 486 l 526 514 q 527 514 526 514 l 527 514 q 528 513 528 514 l 528 513 l 528 279 q 528 279 528 279 l 528 279 q 526 279 526 278 l 526 279 q 513 292 520 287 l 513 292 q 462 317 487 313 l 462 317 q 426 319 452 319 l 426 319 q 275 319 351 319 l 275 319 q 274 318 274 319 z "},"":{"ha":735,"x_min":22,"x_max":788,"o":"m 261 616 l 261 616 l 261 412 q 262 411 261 412 l 262 411 q 264 406 264 410 l 264 406 q 264 195 264 256 l 264 195 q 265 193 264 193 l 265 193 q 366 193 351 193 l 366 193 q 376 198 372 193 l 376 198 q 421 256 404 224 l 421 256 q 438 309 436 283 l 438 309 q 427 382 442 346 l 427 382 q 378 457 409 426 l 378 457 q 378 458 378 458 l 378 458 q 379 459 378 459 l 379 459 l 603 459 q 604 458 604 459 l 604 458 q 604 -85 604 353 l 604 -85 q 608 -99 604 -94 l 608 -99 q 614 -106 610 -101 q 621 -115 618 -112 l 621 -115 q 774 -281 658 -155 l 774 -281 q 779 -287 776 -283 q 783 -292 781 -290 l 783 -292 q 782 -295 788 -297 l 782 -295 q 777 -292 779 -294 q 772 -289 774 -291 q 768 -285 770 -286 l 768 -285 q 608 -171 696 -233 l 608 -171 q 604 -173 604 -168 l 604 -173 l 604 -218 q 603 -219 604 -219 l 603 -219 l 602 -219 q 601 -218 601 -219 l 601 -218 q 600 -213 600 -214 l 600 -213 q 585 -170 595 -195 l 585 -170 q 559 -138 577 -151 l 559 -138 q 506 -102 532 -118 l 506 -102 q 307 -30 414 -45 l 307 -30 q 271 -28 298 -28 l 271 -28 q 28 -28 191 -27 l 28 -28 q 25 -28 26 -28 l 25 -28 l 24 -29 q 23 -28 22 -31 l 23 -28 q 28 -22 25 -25 l 28 -22 q 35 -18 35 -18 q 42 -13 35 -18 l 42 -13 q 95 58 87 20 l 95 58 q 96 85 96 66 l 96 85 q 96 687 96 393 l 96 687 q 93 731 96 719 l 93 731 q 28 801 81 772 l 28 801 q 23 801 27 802 l 23 801 q 22 802 22 801 l 22 802 l 22 804 q 23 804 22 804 l 23 804 l 606 804 q 606 804 606 804 l 606 804 l 606 546 q 605 545 606 545 l 605 545 q 604 545 605 545 q 604 546 604 545 l 604 546 q 600 553 602 550 l 600 553 q 568 580 585 568 l 568 580 q 488 613 533 606 l 488 613 q 444 616 464 616 l 444 616 q 262 617 381 617 l 262 617 q 261 616 261 617 z "},"":{"ha":916,"x_min":-60,"x_max":981,"o":"m 787 -187 l 981 -399 q 726 -219 852 -305 q 442 -134 600 -134 l 442 -134 q 522 -40 522 -86 l 522 -40 l 522 326 l 273 326 l 273 -5 q 353 -100 273 -62 l 353 -100 l 10 -100 q 90 -7 90 -51 l 90 -7 l 90 717 q 35 784 90 763 l 35 784 q -60 804 15 791 l -60 804 l 353 804 q 273 717 273 770 l 273 717 l 273 501 l 522 501 l 522 717 q 496 770 522 748 l 496 770 l 444 804 l 856 804 q 721 757 809 792 l 721 757 q 705 717 705 730 l 705 717 l 705 -45 q 739 -117 705 -59 l 739 -117 q 787 -187 772 -171 l 787 -187 z "},"":{"ha":369,"x_min":20,"x_max":574,"o":"m 265 724 q 266 726 265 725 q 267 726 267 726 l 267 726 q 284 764 271 747 l 284 764 q 326 798 300 783 l 326 798 q 329 800 327 798 q 334 803 332 802 q 338 803 336 804 l 338 803 q 339 804 339 803 l 339 804 l 339 806 q 338 806 339 806 l 338 806 l 26 806 q 26 804 20 806 l 26 804 q 64 781 45 795 l 64 781 q 100 710 100 751 l 100 710 q 100 85 100 377 l 100 85 q 98 54 100 64 l 98 54 q 63 1 90 25 l 63 1 q 30 -22 54 -7 l 30 -22 q 28 -22 29 -22 l 28 -22 q 24 -24 24 -22 l 24 -24 q 24 -26 23 -26 l 24 -26 q 99 -26 37 -26 l 99 -26 q 118 -26 111 -26 l 118 -26 q 130 -27 122 -26 q 144 -28 138 -27 l 144 -28 q 363 -118 267 -41 l 363 -118 q 421 -163 409 -154 l 421 -163 q 428 -168 423 -165 q 434 -172 432 -170 l 434 -172 q 574 -283 548 -263 l 574 -283 q 574 -283 574 -283 q 574 -283 574 -283 q 574 -283 574 -283 l 574 -283 q 562 -270 566 -275 l 562 -270 q 551 -256 553 -258 l 551 -256 q 402 -79 452 -143 l 402 -79 q 318 62 354 -18 l 318 62 q 309 83 313 72 q 301 103 304 94 q 295 125 298 112 q 290 145 292 138 q 285 167 288 152 q 281 187 282 182 q 277 210 280 193 q 274 231 275 227 q 271 255 273 235 q 267 277 268 275 l 267 277 q 265 314 265 296 l 265 314 q 265 718 264 621 l 265 718 q 265 724 265 722 l 265 724 z "},"":{"ha":712,"x_min":48,"x_max":816,"o":"m 363 796 l 363 796 q 356 797 360 798 l 356 797 q 355 798 355 797 l 355 798 l 355 800 q 356 800 355 800 l 356 800 l 670 800 q 671 799 672 800 l 671 799 q 667 797 669 798 l 667 797 q 665 796 666 797 l 665 796 q 616 749 633 777 l 616 749 q 599 699 602 728 l 599 699 q 598 690 599 697 q 597 680 597 684 l 597 680 q 597 441 597 663 l 597 441 q 596 439 597 439 l 596 439 l 595 439 q 594 437 594 438 l 594 437 q 594 380 595 401 l 594 380 q 593 376 594 378 q 593 373 593 374 l 593 373 q 578 228 589 296 l 578 228 q 543 102 568 164 l 543 102 q 532 73 535 83 l 532 73 q 533 52 528 62 l 533 52 q 538 43 538 43 l 538 43 q 545 30 541 38 q 552 18 550 21 l 552 18 q 559 4 555 12 l 559 4 q 606 -69 587 -43 l 606 -69 q 625 -92 610 -74 l 625 -92 q 673 -144 648 -117 l 673 -144 q 804 -286 779 -258 l 804 -286 q 813 -297 806 -288 l 813 -297 q 811 -299 816 -301 l 811 -299 q 806 -296 808 -298 q 800 -292 803 -294 q 795 -288 797 -289 l 795 -288 q 587 -141 692 -214 l 587 -141 q 545 -113 547 -114 l 545 -113 q 408 -49 481 -71 l 408 -49 q 332 -34 370 -38 l 332 -34 q 281 -32 315 -32 l 281 -32 q 209 -32 245 -32 l 209 -32 q 206 -33 207 -32 l 206 -33 q 175 -67 182 -55 l 175 -67 q 146 -146 154 -98 l 146 -146 q 142 -209 140 -181 l 142 -209 q 140 -210 142 -210 l 140 -210 l 140 -210 q 138 -209 138 -210 l 138 -209 l 138 -195 q 138 -194 138 -194 l 138 -194 l 137 -193 q 136 -192 136 -193 l 136 -192 q 135 -182 136 -187 l 135 -182 q 126 -138 132 -167 q 121 -104 121 -109 l 121 -104 q 56 237 88 66 l 56 237 q 54 252 56 239 q 50 271 52 264 l 50 271 q 49 283 49 276 l 49 283 q 50 283 49 285 l 50 283 q 56 275 51 283 l 56 275 q 63 267 60 270 l 63 267 q 110 220 104 225 l 110 220 q 177 194 140 198 l 177 194 q 185 193 180 194 q 195 192 191 192 l 195 192 q 308 191 218 191 l 308 191 q 344 195 334 191 l 344 195 q 376 217 363 202 l 376 217 q 412 281 399 243 l 412 281 q 430 357 425 321 l 430 357 q 433 408 433 379 l 433 408 q 433 691 433 461 l 433 691 q 431 704 433 696 q 430 714 430 711 l 430 714 q 410 760 428 739 l 410 760 q 367 794 390 782 l 367 794 q 365 795 366 795 l 365 795 q 364 795 365 795 q 363 795 363 795 l 363 795 l 363 796 q 363 796 363 796 z "},"":{"ha":812,"x_min":41,"x_max":816,"o":"m 290 473 l 290 473 q 292 475 291 469 l 292 475 q 293 477 292 476 l 293 477 q 300 484 298 480 l 300 484 q 307 493 303 489 l 307 493 q 317 506 308 494 l 317 506 q 392 600 330 521 l 392 600 q 447 677 425 642 l 447 677 q 467 717 460 699 l 467 717 q 460 787 479 747 l 460 787 q 457 792 460 789 q 454 798 455 795 l 454 798 q 456 800 452 803 l 456 800 q 473 783 463 795 q 485 769 483 771 l 485 769 q 541 713 507 747 l 541 713 q 556 697 546 708 q 571 680 566 686 l 571 680 q 637 612 626 625 l 637 612 q 652 595 645 604 l 652 595 q 652 595 653 595 l 652 595 l 652 594 q 651 594 652 594 l 651 594 q 647 596 650 596 l 647 596 q 645 597 646 596 l 645 597 q 638 598 643 599 l 638 598 q 636 599 637 598 l 636 599 q 593 591 616 606 l 593 591 q 586 585 590 589 l 586 585 q 582 579 585 583 q 577 574 578 575 l 577 574 q 444 397 501 474 l 444 397 q 444 394 442 396 l 444 394 q 479 342 467 357 l 479 342 q 526 273 500 313 l 526 273 q 603 160 543 248 l 603 160 q 680 61 640 106 l 680 61 q 741 11 708 31 l 741 11 q 814 10 777 -10 l 814 10 q 815 9 815 11 q 814 7 816 8 l 814 7 q 701 -125 714 -111 l 701 -125 q 559 -291 610 -233 l 559 -291 q 556 -289 553 -299 l 556 -289 q 557 -286 556 -288 q 559 -281 559 -283 l 559 -281 q 559 -124 578 -197 l 559 -124 q 529 -47 549 -85 l 529 -47 q 484 24 507 -7 l 484 24 q 416 108 477 33 l 416 108 q 342 196 411 113 l 342 196 q 340 199 341 197 q 338 201 339 201 l 338 201 q 292 256 307 239 l 292 256 q 290 256 290 258 l 290 256 q 290 60 290 201 l 290 60 q 292 47 290 54 l 292 47 q 296 35 294 37 l 296 35 q 312 7 302 18 l 312 7 q 351 -27 329 -14 l 351 -27 q 353 -27 351 -27 l 353 -27 l 353 -27 q 354 -28 353 -27 l 354 -28 q 356 -30 354 -31 l 356 -30 q 358 -31 357 -30 l 358 -31 l 363 -36 q 364 -37 364 -37 l 364 -37 q 363 -38 364 -38 q 361 -37 362 -38 l 361 -37 q 359 -36 360 -36 l 359 -36 l 229 -36 q 228 -35 228 -36 l 228 -35 q 227 -33 228 -33 l 227 -33 q 42 -34 121 -33 l 42 -34 l 42 -34 q 41 -33 41 -34 l 41 -33 q 41 -33 41 -33 l 41 -33 q 49 -25 43 -31 q 58 -18 54 -20 l 58 -18 q 90 8 81 1 l 90 8 q 121 52 116 31 l 121 52 q 123 78 123 60 l 123 78 q 123 693 123 385 l 123 693 q 120 724 123 713 l 120 724 q 75 780 109 758 l 75 780 q 56 792 72 782 l 56 792 q 50 793 54 793 l 50 793 q 49 793 49 793 l 49 793 l 49 796 q 49 796 49 796 l 49 796 l 289 796 q 290 795 290 796 l 290 795 q 290 473 290 440 l 290 473 l 290 473 z "},"":{"ha":688,"x_min":29,"x_max":629,"o":"m 275 191 l 275 191 l 627 191 q 629 190 629 191 l 629 190 l 629 -281 q 627 -282 629 -282 l 627 -282 q 625 -281 626 -282 l 625 -281 q 576 -157 607 -234 l 576 -157 q 554 -113 566 -132 q 526 -80 542 -94 l 526 -80 q 491 -55 513 -69 l 491 -55 q 449 -32 473 -43 l 449 -32 q 441 -30 445 -30 l 441 -30 q 35 -30 378 -30 l 35 -30 q 33 -31 34 -30 l 33 -31 l 32 -31 q 31 -31 30 -33 l 31 -31 q 36 -24 33 -27 l 36 -24 q 42 -20 41 -21 l 42 -20 q 49 -16 44 -18 l 49 -16 q 102 53 92 15 l 102 53 q 104 85 104 63 l 104 85 q 104 682 104 384 l 104 682 q 100 728 104 716 l 100 728 q 38 798 90 766 l 38 798 q 31 799 35 800 l 31 799 q 30 800 30 799 l 30 800 l 30 802 q 31 802 30 802 l 31 802 l 345 802 q 345 800 353 802 l 345 800 q 328 790 339 798 l 328 790 q 277 728 288 764 l 277 728 q 274 696 274 718 l 274 696 q 274 193 274 271 l 274 193 q 275 191 274 191 z "},"":{"ha":872,"x_min":-165,"x_max":935,"o":"m 935 -395 l 935 -395 q 792 -241 854 -311 l 792 -241 q 659 -54 659 -95 l 659 -54 l 661 717 q 718 783 661 762 l 718 783 l 810 804 l 447 804 q 492 751 479 788 l 492 751 q 417 571 477 681 l 417 571 l 322 396 l 227 571 q 151 751 168 678 l 151 751 l 169 787 l 198 804 l -165 804 l -98 784 q -33 755 -58 772 l -33 755 l -16 717 l -16 -7 q -96 -100 -16 -62 l -96 -100 l 248 -100 q 166 -7 166 -55 l 166 -7 l 166 257 l 323 -109 l 477 257 l 477 -54 q 448 -104 477 -81 l 448 -104 q 397 -134 439 -109 l 397 -134 q 687 -219 566 -136 l 687 -219 q 935 -395 755 -268 z "},"":{"ha":988,"x_min":78,"x_max":1059,"o":"m 510 -100 l 510 -100 q 590 14 590 -51 l 590 14 q 590 16 590 15 l 590 16 l 340 340 l 340 -3 q 421 -100 340 -60 l 421 -100 l 78 -100 q 158 -3 158 -51 l 158 -3 l 158 713 q 78 804 158 756 l 78 804 l 421 804 q 340 690 340 766 l 340 690 q 340 689 340 690 l 340 689 l 590 363 l 590 713 q 511 804 590 758 l 511 804 l 854 804 q 772 713 772 767 l 772 713 l 772 -7 q 1059 -286 772 -88 l 1059 -286 q 880 -210 1000 -265 l 880 -210 q 701 -134 764 -155 l 701 -134 q 510 -100 601 -100 z "},"":{"ha":762,"x_min":55,"x_max":900,"o":"m 682 338 l 682 338 q 682 339 682 338 l 682 339 q 683 340 683 339 l 683 340 l 683 451 q 682 452 683 452 l 682 452 l 682 453 q 681 453 681 453 l 681 453 q 651 616 678 542 l 651 616 q 587 720 629 677 l 587 720 q 512 773 558 751 l 512 773 q 406 799 469 793 l 406 799 q 404 800 405 799 l 404 800 q 401 800 403 800 l 401 800 q 337 800 358 800 l 337 800 q 335 799 336 800 q 332 798 333 798 l 332 798 q 245 781 290 797 l 245 781 q 130 696 174 755 l 130 696 q 107 661 119 680 l 107 661 q 90 623 98 645 l 90 623 q 62 507 69 569 l 62 507 q 57 452 57 468 l 57 452 q 56 450 57 450 l 56 450 q 56 444 56 448 l 56 444 q 56 345 56 395 l 56 345 q 57 342 56 343 l 57 342 q 58 339 58 340 l 58 339 q 58 315 58 326 l 58 315 q 66 241 58 294 l 66 241 q 92 137 73 188 l 92 137 q 256 -27 136 12 l 256 -27 q 307 -38 279 -34 l 307 -38 q 414 -40 358 -45 l 414 -40 q 448 -37 431 -38 l 448 -37 q 500 -41 473 -36 l 500 -41 q 688 -125 607 -60 l 688 -125 q 748 -173 721 -152 l 748 -173 q 758 -180 755 -178 l 758 -180 q 899 -292 775 -193 l 899 -292 q 900 -292 899 -292 q 900 -292 900 -292 q 900 -292 900 -292 l 900 -292 q 888 -279 893 -286 l 888 -279 q 876 -264 878 -267 l 876 -264 q 756 -123 814 -193 l 756 -123 q 726 -82 736 -98 l 726 -82 q 653 119 667 13 l 653 119 q 652 138 652 132 l 652 138 q 654 156 651 145 l 654 156 q 663 197 656 163 l 663 197 q 675 258 673 242 l 675 258 q 676 269 675 267 l 676 269 q 677 280 677 277 l 677 280 q 679 298 677 288 l 679 298 q 680 317 680 309 l 680 317 q 681 338 680 322 l 681 338 q 682 338 681 338 z m 362 69 l 362 69 q 240 148 282 69 l 240 148 q 217 309 217 191 l 217 309 l 217 347 q 217 347 217 347 l 217 347 q 218 368 217 347 l 218 368 q 218 382 218 368 l 218 382 q 233 559 218 511 l 233 559 q 362 652 263 652 l 362 652 q 484 580 460 652 l 484 580 q 507 431 507 510 l 507 431 l 507 370 q 494 177 507 224 l 494 177 q 362 69 466 69 z m 457 363 l 360 507 l 263 363 l 360 222 q 457 363 392 269 l 457 363 z "},"":{"ha":738,"x_min":45,"x_max":675,"o":"m 418 304 l 418 304 q 418 303 418 304 q 418 303 418 303 l 418 303 l 289 303 q 288 302 288 303 l 288 302 q 288 113 288 253 l 288 113 q 288 103 288 113 l 288 103 q 288 96 288 100 q 288 90 288 91 l 288 90 q 288 65 288 79 l 288 65 q 290 51 287 60 l 290 51 q 305 16 300 24 l 305 16 q 358 -68 334 -36 l 358 -68 q 395 -109 369 -81 l 395 -109 q 429 -145 416 -132 l 429 -145 q 552 -279 510 -235 l 552 -279 q 557 -286 554 -281 q 562 -292 561 -290 l 562 -292 q 560 -294 566 -296 l 560 -294 q 555 -291 557 -293 q 549 -286 552 -289 q 545 -283 546 -283 l 545 -283 q 315 -121 448 -213 l 315 -121 q 223 -68 267 -88 l 223 -68 q 92 -30 161 -40 l 92 -30 q 68 -28 82 -28 l 68 -28 q 47 -26 50 -26 l 47 -26 q 47 -25 45 -26 l 47 -25 q 92 9 69 -13 l 92 9 q 123 78 123 42 l 123 78 q 123 695 123 189 l 123 695 q 119 733 123 722 l 119 733 q 96 771 113 755 l 96 771 q 67 794 79 788 l 67 794 q 57 800 60 798 l 57 800 q 50 802 54 803 l 50 802 q 49 802 49 802 l 49 802 l 49 805 q 50 806 49 806 l 50 806 q 509 806 172 806 l 509 806 q 520 804 516 806 l 520 804 q 528 803 523 804 q 535 801 533 802 l 535 801 q 602 755 575 788 l 602 755 q 640 693 625 727 l 640 693 q 673 561 669 629 l 673 561 q 669 477 675 524 l 669 477 q 643 399 663 437 l 643 399 q 598 350 627 371 q 536 320 570 330 l 536 320 q 456 307 494 308 l 456 307 q 418 305 436 305 l 418 305 q 418 304 418 305 z m 532 528 l 532 528 q 506 583 532 561 q 447 606 481 606 l 447 606 l 296 606 l 296 449 l 447 449 q 507 471 481 449 q 532 528 532 494 z "},"":{"ha":988,"x_min":40,"x_max":1059,"o":"m 590 -110 l 557 -65 q 379 -106 471 -106 l 379 -106 q 99 43 178 -106 l 99 43 q 40 375 40 154 l 40 375 q 379 810 40 810 l 379 810 q 718 375 718 810 l 718 375 q 661 46 718 151 l 661 46 q 836 -214 747 -85 l 836 -214 q 1059 -424 887 -288 l 1059 -424 q 871 -340 977 -399 l 871 -340 q 709 -257 754 -275 l 709 -257 q 510 -218 614 -218 l 510 -218 q 590 -110 574 -173 l 590 -110 z m 441 361 l 519 249 q 524 375 524 302 l 524 375 q 509 555 524 508 l 509 555 q 379 648 479 648 l 379 648 q 250 555 279 648 l 250 555 q 235 375 235 508 l 235 375 q 245 175 235 220 l 245 175 q 379 61 273 61 l 379 61 q 450 78 416 61 l 450 78 q 345 216 416 121 l 345 216 l 441 361 z "},"":{"ha":1028,"x_min":33,"x_max":1101,"o":"m 532 528 l 532 528 q 506 583 532 561 q 447 606 481 606 l 447 606 l 296 606 l 296 449 l 447 449 q 507 471 481 449 q 532 528 532 494 z m 481 107 l 359 258 l 296 258 l 296 8 q 376 -100 296 -53 l 376 -100 l 33 -100 q 115 8 115 -47 l 115 8 l 115 701 q 35 804 115 753 l 35 804 l 526 804 q 667 701 612 804 l 667 701 q 713 522 713 616 l 713 522 q 677 373 713 441 l 677 373 q 567 269 637 299 l 567 269 l 775 12 q 1002 -231 893 -134 l 1002 -231 q 1101 -307 1036 -254 l 1101 -307 q 899 -211 1013 -274 l 899 -211 q 735 -132 790 -151 l 735 -132 q 518 -100 641 -100 l 518 -100 q 583 -28 576 -60 l 583 -28 q 481 107 582 -19 l 481 107 z "},"":{"ha":814,"x_min":125,"x_max":843,"o":"m 627 -28 l 627 -28 q 620 -28 623 -26 l 620 -28 q 509 -75 568 -63 l 509 -75 q 389 -87 450 -88 l 389 -87 q 347 -81 370 -86 l 347 -81 q 335 -77 341 -80 q 320 -71 328 -75 q 308 -66 312 -68 l 308 -66 q 243 -57 277 -54 l 243 -57 q 217 -62 240 -57 l 217 -62 q 192 -70 203 -64 l 192 -70 q 162 -86 172 -79 l 162 -86 q 155 -90 156 -90 l 155 -90 q 153 -92 154 -91 l 153 -92 l 152 -94 q 150 -96 151 -96 l 150 -96 q 145 -100 147 -96 l 145 -100 q 144 -100 145 -101 q 143 -97 142 -99 l 143 -97 q 153 -69 146 -86 l 153 -69 q 262 201 239 144 l 262 201 q 263 203 262 202 l 263 203 q 264 207 264 204 l 264 207 q 264 208 264 207 l 264 208 q 264 209 264 208 l 264 209 l 266 211 q 267 212 267 211 l 267 212 q 266 213 267 212 l 266 213 q 264 214 264 214 l 264 214 l 264 214 q 264 215 264 215 l 264 215 l 265 215 q 269 214 267 214 l 269 214 q 269 212 269 213 l 269 212 l 269 206 q 271 205 269 205 l 271 205 l 271 205 q 272 205 272 205 l 272 205 l 272 199 q 273 198 272 198 l 273 198 q 273 198 273 198 l 273 198 q 275 197 275 198 l 275 197 l 275 192 l 275 192 q 275 191 275 191 l 275 191 l 277 191 q 277 190 277 190 l 277 190 q 279 186 277 186 l 279 186 q 279 184 279 185 l 279 184 q 316 132 290 157 l 316 132 q 387 93 347 102 l 387 93 q 464 92 426 84 l 464 92 q 507 112 490 98 l 507 112 q 534 171 531 134 l 534 171 q 530 212 536 193 l 530 212 q 501 250 522 233 q 456 276 480 267 l 456 276 q 373 304 427 287 l 373 304 q 245 348 298 328 l 245 348 q 162 402 196 366 q 126 486 129 439 l 126 486 q 125 524 125 498 l 125 524 q 132 576 126 534 l 132 576 q 153 654 138 617 l 153 654 q 311 786 197 760 l 311 786 q 408 793 361 798 l 408 793 q 459 782 431 791 l 459 782 q 543 751 490 772 l 543 751 q 607 728 587 734 l 607 728 q 667 726 637 720 l 667 726 q 707 734 680 728 l 707 734 q 745 739 726 738 l 745 739 l 745 739 q 747 737 747 739 l 747 737 q 746 736 747 736 l 746 736 l 531 486 q 531 486 531 486 l 531 486 q 530 487 530 486 l 530 487 q 525 526 530 505 l 525 526 q 492 584 517 562 q 430 612 468 606 l 430 612 q 357 609 388 618 l 357 609 q 308 579 326 600 q 290 526 290 557 l 290 526 q 291 515 290 520 l 291 515 q 302 491 295 499 l 302 491 q 336 465 318 474 l 336 465 q 390 446 361 452 l 390 446 q 481 425 471 427 l 481 425 q 559 404 534 412 l 559 404 q 607 387 588 396 l 607 387 q 714 250 694 345 l 714 250 q 718 231 717 239 l 718 231 q 719 220 718 229 q 720 205 720 211 l 720 205 q 720 163 720 172 l 720 163 q 713 107 719 139 l 713 107 q 708 85 712 99 q 702 64 705 72 q 699 42 700 56 q 702 20 698 28 l 702 20 q 705 7 703 16 q 708 -6 707 -1 l 708 -6 q 718 -33 717 -31 l 718 -33 q 734 -68 720 -42 l 734 -68 q 736 -75 735 -70 q 739 -82 738 -80 l 739 -82 q 756 -117 754 -112 l 756 -117 q 770 -146 757 -119 l 770 -146 q 780 -170 771 -149 l 780 -170 q 791 -193 785 -181 l 791 -193 q 797 -205 794 -197 q 801 -216 800 -213 l 801 -216 q 812 -239 808 -231 l 812 -239 q 817 -249 814 -241 q 821 -260 819 -256 l 821 -260 q 842 -303 833 -282 l 842 -303 q 840 -305 843 -307 l 840 -305 q 834 -299 836 -302 l 834 -299 q 824 -285 831 -294 l 824 -285 q 640 -43 734 -163 l 640 -43 q 627 -28 633 -34 z m 597 141 q 594 141 594 142 q 597 140 594 140 q 600 140 600 140 q 597 141 600 141 z "},"":{"ha":725,"x_min":-29,"x_max":672,"o":"m 209 608 l 209 608 q 209 73 209 138 l 209 73 q 206 45 209 55 l 206 45 q 140 -28 193 4 l 140 -28 q 136 -29 138 -29 l 136 -29 q 135 -30 135 -29 l 135 -30 l 135 -32 q 136 -33 135 -33 l 136 -33 q 249 -35 220 -32 l 249 -35 q 431 -102 349 -47 l 431 -102 q 473 -133 448 -113 l 473 -133 q 523 -172 511 -163 l 523 -172 q 527 -175 524 -174 q 531 -178 530 -176 l 531 -178 q 672 -290 572 -211 l 672 -290 l 672 -290 l 672 -290 l 672 -290 q 659 -275 667 -283 l 659 -275 q 657 -272 658 -274 q 655 -269 656 -270 l 655 -269 q 515 -104 583 -188 l 515 -104 q 484 -64 495 -79 l 484 -64 q 423 40 450 -16 l 423 40 q 388 140 401 84 l 388 140 q 376 223 376 185 l 376 223 q 376 609 376 245 l 376 609 q 377 610 376 610 l 377 610 q 487 610 481 610 l 487 610 q 543 592 517 609 l 543 592 q 578 562 563 578 l 578 562 q 610 518 595 543 l 610 518 q 614 516 612 517 l 614 516 q 615 517 615 515 l 615 517 l 566 798 q 564 800 566 800 l 564 800 l 21 800 q 20 799 20 800 l 20 799 q 20 792 20 794 l 20 792 q -28 519 -22 552 l -28 519 q -28 513 -29 517 l -28 513 q -28 513 -28 513 l -28 513 q -27 513 -27 513 l -27 513 q -21 522 -23 518 l -21 522 q -7 538 -21 522 l -7 538 q 3 549 2 549 l 3 549 q 61 595 32 578 l 61 595 q 115 610 85 609 l 115 610 q 208 610 125 610 l 208 610 q 209 608 209 610 z "},"":{"ha":844,"x_min":22,"x_max":964,"o":"m 693 395 l 693 395 l 693 468 q 692 469 693 469 l 692 469 q 691 468 691 468 q 690 469 690 469 l 690 469 q 690 593 690 579 l 690 593 q 691 603 690 596 q 692 614 692 610 l 692 614 q 707 703 695 660 l 707 703 q 732 758 715 733 l 732 758 q 762 791 742 773 l 762 791 q 772 795 766 794 l 772 795 q 772 796 772 795 l 772 796 l 772 798 q 772 798 772 798 l 772 798 l 460 798 q 459 795 453 798 l 459 795 q 481 783 469 791 l 481 783 q 528 725 517 758 l 528 725 q 531 705 531 717 l 531 705 q 531 319 531 692 l 531 319 q 530 318 531 319 l 530 318 l 530 317 q 528 315 528 317 l 528 315 q 523 236 529 279 l 523 236 q 492 161 516 193 q 429 121 469 129 l 429 121 q 340 131 378 111 l 340 131 q 288 189 306 148 l 288 189 q 277 220 281 206 l 277 220 q 271 249 276 227 l 271 249 q 267 292 269 260 l 267 292 q 266 334 266 311 l 266 334 q 266 606 266 451 l 266 606 q 264 606 266 607 l 264 606 q 264 606 264 606 l 264 606 q 263 607 263 606 l 263 607 q 263 673 263 627 l 263 673 q 271 722 263 698 l 271 722 q 315 780 283 756 l 315 780 q 333 794 329 791 l 333 794 q 335 795 334 795 l 335 795 l 340 795 q 340 795 340 795 l 340 795 l 340 798 q 339 798 340 798 l 339 798 l 26 798 q 26 797 22 798 l 26 797 q 67 762 50 785 l 67 762 q 96 706 87 734 l 96 706 q 109 615 109 664 l 109 615 q 109 547 109 578 l 109 547 q 108 536 109 541 l 108 536 q 106 526 106 530 l 106 526 q 106 502 106 513 l 106 502 q 104 483 104 486 l 104 483 q 102 464 104 473 l 102 464 q 101 443 101 454 l 101 443 q 101 422 101 437 l 101 422 q 100 420 101 420 l 100 420 q 99 419 100 420 l 99 419 q 99 418 99 419 l 99 418 q 99 318 98 368 l 99 318 q 100 314 99 315 l 100 314 q 101 312 101 313 l 101 312 q 102 277 101 290 l 102 277 q 111 203 104 239 l 111 203 q 130 125 117 161 l 130 125 q 174 46 144 81 q 243 -7 203 12 l 243 -7 q 321 -33 279 -25 l 321 -33 q 450 -37 377 -43 l 450 -37 q 490 -34 480 -34 l 490 -34 q 557 -42 510 -35 l 557 -42 q 700 -92 634 -54 l 700 -92 q 786 -155 732 -111 l 786 -155 q 810 -173 799 -165 l 810 -173 q 834 -191 825 -184 l 834 -191 q 963 -294 885 -231 l 963 -294 q 963 -294 963 -294 q 964 -294 964 -294 q 964 -294 964 -294 l 964 -294 q 951 -281 957 -288 l 951 -281 q 941 -267 943 -269 l 941 -267 q 806 -109 873 -191 l 806 -109 q 775 -68 787 -85 l 775 -68 q 720 25 747 -29 l 720 25 q 681 130 694 73 l 681 130 q 678 157 676 146 l 678 157 q 682 176 682 176 l 682 176 q 692 241 688 205 l 692 241 q 694 272 694 257 l 694 272 q 694 272 694 272 l 694 272 l 694 273 q 695 275 695 273 l 695 275 l 695 394 q 694 395 695 395 l 694 395 q 693 394 694 394 q 693 395 693 395 z m 496 370 l 398 514 l 301 370 l 398 230 q 496 370 430 277 l 496 370 z "},"":{"ha":876,"x_min":-35,"x_max":833,"o":"m 612 326 l 612 326 q 611 331 613 328 l 611 331 q 611 333 610 332 l 611 333 q 611 340 613 336 l 611 340 q 611 342 610 341 l 611 342 q 611 346 612 345 l 611 346 q 612 348 610 347 l 612 348 q 610 354 614 351 l 610 354 q 610 355 610 355 l 610 355 q 611 356 611 356 l 611 356 q 612 357 612 357 l 612 357 q 610 362 612 359 l 610 362 q 610 365 610 363 l 610 365 q 611 365 610 365 l 611 365 q 612 368 612 366 l 612 368 q 611 374 609 371 l 611 374 q 610 377 612 376 l 610 377 q 610 382 609 380 l 610 382 q 610 385 611 383 l 610 385 q 610 391 609 389 l 610 391 q 610 393 610 392 l 610 393 q 610 396 609 395 q 611 398 611 397 l 611 398 l 610 402 q 610 404 609 404 l 610 404 q 610 410 611 407 l 610 410 q 610 413 608 412 l 610 413 q 610 415 610 414 l 610 415 l 609 418 q 610 421 609 420 l 610 421 q 609 425 610 422 l 609 425 q 609 426 609 425 l 609 426 l 613 457 q 614 458 614 458 l 614 458 q 614 463 615 460 l 614 463 q 615 468 614 465 l 615 468 q 616 470 616 469 l 616 470 q 616 474 614 473 l 616 474 q 616 476 616 475 l 616 476 l 621 510 q 622 512 621 511 q 622 515 622 513 q 622 518 622 516 q 622 520 622 519 l 622 520 q 629 569 625 551 l 629 569 q 644 631 637 604 l 644 631 q 650 651 646 636 q 656 675 654 667 l 656 675 q 667 708 664 700 l 667 708 q 705 783 682 749 l 705 783 q 716 798 710 791 l 716 798 q 717 798 717 798 l 717 798 q 716 800 717 800 l 716 800 q 715 800 716 800 l 715 800 l 466 800 q 465 798 465 800 l 465 798 q 473 790 468 794 l 473 790 q 492 780 484 783 l 492 780 q 496 772 494 779 l 496 772 q 500 764 499 766 l 500 764 q 511 740 505 755 l 511 740 q 511 737 512 739 l 511 737 q 510 726 511 734 q 509 715 509 719 l 509 715 q 500 670 501 678 l 500 670 q 488 587 495 621 l 488 587 q 480 553 481 555 l 480 553 q 476 522 478 543 q 474 499 474 500 l 474 499 q 469 451 474 499 l 469 451 q 465 402 466 423 l 465 402 q 467 304 463 351 l 467 304 q 464 303 468 298 l 464 303 q 326 490 392 394 l 326 490 q 233 646 274 565 l 233 646 q 200 739 212 690 l 200 739 q 200 745 199 742 l 200 745 q 207 768 203 756 l 207 768 q 209 772 208 768 q 211 777 210 776 q 213 781 212 779 q 217 785 214 783 l 217 785 q 234 795 224 789 l 234 795 q 238 797 236 796 l 238 797 q 239 798 239 797 l 239 798 l 239 799 q 238 800 239 800 l 238 800 l -32 800 q -33 798 -34 800 l -33 798 q -30 797 -33 797 l -30 797 q -27 795 -28 797 l -27 795 q -13 787 -20 791 l -13 787 q 12 766 -6 784 l 12 766 q 20 753 17 761 l 20 753 q 33 732 21 752 l 33 732 q 56 672 36 724 l 56 672 q 63 657 58 667 q 71 642 68 647 l 71 642 q 113 551 93 588 l 113 551 q 161 467 127 524 l 161 467 q 216 382 188 420 l 216 382 q 245 340 234 357 l 245 340 q 304 260 272 300 l 304 260 q 398 147 368 181 l 398 147 q 467 71 450 90 l 467 71 q 589 -56 515 18 l 589 -56 q 803 -271 669 -139 l 803 -271 q 831 -298 821 -289 l 831 -298 q 831 -298 831 -298 l 831 -298 q 832 -297 833 -298 l 832 -297 l 821 -279 q 821 -279 821 -279 l 821 -279 q 819 -273 821 -278 l 819 -273 q 719 -73 766 -179 l 719 -73 q 694 -16 700 -31 l 694 -16 q 692 -8 692 -10 l 692 -8 q 690 -6 691 -7 l 690 -6 q 689 -3 689 -5 l 689 -3 q 688 -1 689 -1 l 688 -1 q 683 13 685 5 l 683 13 q 680 22 681 20 q 677 28 678 24 l 677 28 q 675 32 677 29 l 675 32 q 674 34 675 33 l 674 34 q 671 45 674 37 l 671 45 q 670 47 671 46 l 670 47 q 669 52 669 49 q 667 56 669 54 l 667 56 q 666 58 666 57 l 666 58 q 665 64 667 61 l 665 64 q 663 66 663 64 l 663 66 q 659 76 661 73 l 659 76 q 659 79 658 77 l 659 79 q 658 83 659 81 l 658 83 q 656 85 657 83 l 656 85 l 650 109 q 650 111 650 110 l 650 111 q 650 113 651 112 l 650 113 q 649 114 649 113 l 649 114 l 638 151 q 638 153 638 152 l 638 153 q 637 159 638 156 l 637 159 q 636 161 636 160 l 636 161 q 633 169 636 165 l 633 169 q 634 170 633 170 l 634 170 l 635 170 q 635 171 635 171 l 635 171 q 633 176 634 172 l 633 176 q 632 180 633 176 l 632 180 q 631 184 632 182 l 631 184 q 630 187 630 186 l 630 187 q 628 199 630 194 l 628 199 q 627 201 627 200 l 627 201 q 625 208 628 205 l 625 208 q 625 211 625 210 l 625 211 q 624 216 626 214 l 624 216 q 623 219 624 218 l 623 219 l 619 251 q 619 252 619 252 l 619 252 q 618 257 620 254 l 618 257 q 618 259 617 258 l 618 259 q 616 267 618 263 l 616 267 q 616 269 616 269 l 616 269 q 615 274 618 271 l 615 274 q 615 277 614 275 l 615 277 q 613 284 616 281 l 613 284 q 613 287 612 286 l 613 287 q 612 292 614 289 l 612 292 q 612 294 612 293 l 612 294 q 612 300 614 297 l 612 300 q 612 301 612 300 l 612 301 q 613 302 613 302 l 613 302 q 613 302 614 302 l 613 302 q 612 309 612 307 l 612 309 q 612 315 613 312 l 612 315 q 612 318 612 317 l 612 318 q 612 323 613 321 l 612 323 q 612 326 611 325 z "},"":{"ha":1124,"x_min":27,"x_max":1070,"o":"m 611 168 l 611 168 q 614 169 611 174 l 614 169 q 655 108 635 137 l 655 108 q 718 26 669 87 l 718 26 q 751 -12 732 8 l 751 -12 q 854 -121 811 -80 l 854 -121 q 948 -205 927 -189 l 948 -205 q 1030 -273 1023 -267 l 1030 -273 q 1031 -271 1035 -277 l 1031 -271 q 1024 -261 1028 -268 q 1019 -252 1021 -254 l 1019 -252 q 922 -58 960 -161 l 922 -58 q 903 0 918 -48 l 903 0 q 893 37 897 19 l 893 37 q 886 76 888 66 l 886 76 q 880 115 882 95 l 880 115 q 878 135 880 122 q 876 154 876 148 l 876 154 q 873 203 875 167 l 873 203 q 874 250 873 229 l 874 250 q 876 298 876 274 l 876 298 q 883 338 878 313 l 883 338 q 895 414 887 354 l 895 414 q 902 449 898 435 l 902 449 q 908 470 904 456 q 914 494 911 484 l 914 494 q 926 538 919 511 l 926 538 q 950 612 930 551 l 950 612 q 994 736 982 707 l 994 736 q 1008 770 996 744 l 1008 770 q 1026 792 1013 781 l 1026 792 q 1065 821 1044 809 l 1065 821 q 1063 825 1070 825 l 1063 825 l 29 825 q 28 823 27 825 l 28 823 q 32 821 30 822 l 32 821 q 33 821 33 821 l 33 821 q 58 804 50 812 l 58 804 q 90 762 79 788 l 90 762 q 109 710 102 734 l 109 710 q 118 684 111 701 q 127 658 124 667 l 127 658 q 137 628 131 646 l 137 628 q 143 609 139 622 q 151 589 148 596 l 151 589 q 182 506 156 576 l 182 506 q 212 425 190 483 l 212 425 q 231 378 224 394 l 231 378 q 261 308 249 336 l 261 308 q 311 204 271 285 l 311 204 q 359 117 327 174 l 359 117 q 395 58 385 73 l 395 58 q 478 -56 432 3 l 478 -56 q 498 -80 486 -67 l 498 -80 q 518 -103 515 -100 l 518 -103 q 593 -182 568 -159 l 593 -182 q 648 -235 640 -227 l 648 -235 q 650 -235 650 -235 l 650 -235 q 651 -234 652 -236 l 651 -234 q 649 -229 650 -232 q 649 -223 649 -227 q 648 -218 648 -220 l 648 -218 q 638 -155 646 -208 l 638 -155 q 633 -122 635 -140 l 633 -122 q 629 -88 633 -108 l 629 -88 q 629 -80 629 -85 q 628 -71 629 -74 l 628 -71 q 624 -43 625 -53 l 624 -43 q 622 -16 623 -24 l 622 -16 q 613 90 616 31 l 613 90 q 611 168 611 137 z m 709 319 l 709 319 q 709 317 709 317 q 709 315 709 316 q 709 313 709 313 l 709 313 q 707 313 709 309 l 707 313 l 642 441 q 641 446 640 444 l 641 446 q 649 483 644 459 q 656 511 654 506 l 656 511 q 670 569 666 556 q 688 623 673 581 l 688 623 q 703 671 690 632 l 703 671 q 734 758 716 715 l 734 758 q 762 795 746 783 l 762 795 q 793 819 779 810 l 793 819 q 802 819 798 823 l 802 819 q 813 810 802 819 l 813 810 q 822 800 819 806 l 822 800 q 836 766 825 794 l 836 766 q 836 761 836 764 l 836 761 q 785 592 817 675 l 785 592 q 769 543 775 563 l 769 543 q 740 452 762 522 l 740 452 q 736 440 739 448 q 732 427 733 431 l 732 427 q 726 401 730 419 q 720 371 722 383 l 720 371 q 714 340 715 355 l 714 340 q 709 319 713 336 z m 438 333 l 438 333 q 437 328 439 330 l 437 328 q 435 328 436 327 l 435 328 q 380 434 388 416 l 380 434 q 330 546 356 487 l 330 546 q 281 671 303 604 l 281 671 q 256 766 266 716 l 256 766 q 257 768 256 767 l 257 768 q 270 800 269 798 l 270 800 q 274 806 271 803 q 279 810 277 809 q 287 815 281 812 q 294 820 293 819 l 294 820 q 303 820 299 823 l 303 820 q 336 796 323 808 q 356 766 349 784 l 356 766 q 372 720 362 751 q 385 679 381 689 l 385 679 q 406 621 393 657 l 406 621 q 438 530 422 569 l 438 530 q 448 504 441 522 q 460 475 455 485 l 460 475 q 469 449 463 468 l 469 449 q 469 446 469 448 l 469 446 l 438 334 q 438 333 438 334 q 438 333 438 333 z m 526 755 l 526 755 q 524 768 523 765 l 524 768 q 542 806 531 788 l 542 806 q 547 808 544 810 l 547 808 q 568 763 556 804 l 568 763 q 568 761 569 762 l 568 761 l 549 682 q 547 682 548 680 l 547 682 q 541 699 541 695 l 541 699 q 526 755 529 742 z "},"":{"ha":949,"x_min":-7,"x_max":1017,"o":"m 484 395 l 484 395 l 679 64 q 917 -235 787 -118 l 917 -235 q 1017 -307 952 -256 l 1017 -307 q 840 -222 956 -284 q 662 -138 724 -161 l 662 -138 q 469 -100 561 -100 l 469 -100 q 550 8 524 -64 l 550 8 l 397 248 q 256 1 256 6 l 256 1 q 338 -100 256 -54 l 338 -100 l -7 -100 q 172 146 66 -51 l 172 146 q 302 396 208 216 l 302 396 q 182 610 243 505 l 182 610 q 29 804 97 760 l 29 804 l 322 804 l 293 783 l 275 742 q 325 642 277 715 l 325 642 q 389 543 332 630 l 389 543 q 486 715 437 621 l 486 715 q 403 804 470 760 l 403 804 l 745 804 q 590 599 685 774 l 590 599 q 484 395 568 558 z "},"":{"ha":852,"x_min":-2,"x_max":783,"o":"m 387 500 l 387 500 q 387 500 387 500 l 387 500 q 283 647 303 618 l 283 647 q 239 722 256 688 l 239 722 q 240 775 224 753 l 240 775 q 267 800 249 788 l 267 800 q 273 802 268 801 l 273 802 q 275 803 275 802 l 275 803 l 275 804 q 273 805 275 805 l 273 805 q 3 805 138 805 l 3 805 q 1 805 1 805 l 1 805 q 1 803 -2 804 l 1 803 q 41 774 24 793 l 41 774 q 55 751 47 767 l 55 751 q 97 677 71 717 l 97 677 q 192 533 126 633 l 192 533 q 218 494 213 500 l 218 494 q 290 386 245 453 l 290 386 q 307 340 307 361 l 307 340 q 307 74 307 327 l 307 74 q 288 18 307 44 l 288 18 q 237 -24 272 -3 l 237 -24 q 236 -24 237 -24 q 235 -24 235 -24 l 235 -24 q 235 -27 231 -27 l 235 -27 q 312 -27 279 -27 l 312 -27 q 549 -101 443 -29 l 549 -101 q 591 -134 563 -111 q 633 -167 619 -157 l 633 -167 q 652 -180 645 -175 l 652 -180 q 783 -285 709 -226 l 783 -285 l 783 -285 q 768 -269 771 -272 l 768 -269 q 767 -267 768 -268 q 766 -264 766 -265 l 766 -264 q 609 -79 672 -158 l 609 -79 q 549 14 579 -41 l 549 14 q 491 180 505 95 l 491 180 q 477 272 487 205 l 477 272 q 474 315 474 294 l 474 315 q 474 359 474 353 l 474 359 q 482 386 474 373 l 482 386 q 529 464 498 412 q 586 558 560 515 q 633 634 612 601 l 633 634 q 675 697 643 651 l 675 697 q 722 758 701 735 l 722 758 q 754 791 730 768 l 754 791 q 760 796 756 793 q 766 801 764 799 l 766 801 q 768 802 767 802 l 768 802 l 772 802 q 773 803 773 802 l 773 803 l 773 804 q 772 805 773 805 l 772 805 l 499 805 q 498 804 498 805 l 498 804 l 498 803 q 499 802 498 802 l 499 802 q 506 800 503 802 l 506 800 q 531 778 519 792 l 531 778 q 538 766 534 774 q 543 754 543 758 l 543 754 q 539 729 542 735 l 539 729 q 517 685 528 703 l 517 685 q 479 627 496 651 l 479 627 q 401 519 454 591 l 401 519 q 387 500 392 507 z "},"":{"ha":837,"x_min":56,"x_max":811,"o":"m 650 -118 l 650 -118 q 643 -115 644 -113 l 643 -115 q 612 -193 627 -154 l 612 -193 q 611 -195 612 -194 l 611 -195 q 610 -201 609 -197 l 610 -201 q 609 -202 610 -202 l 609 -202 q 608 -202 608 -202 l 608 -202 q 607 -203 607 -202 l 607 -203 l 607 -205 q 606 -207 607 -207 l 606 -207 l 605 -207 q 604 -205 604 -207 l 604 -205 q 601 -138 605 -172 l 601 -138 q 543 -34 589 -52 l 543 -34 q 515 -28 528 -28 l 515 -28 q 58 -28 142 -28 l 58 -28 q 56 -27 56 -28 l 56 -27 q 56 151 56 79 l 56 151 q 58 165 56 160 l 58 165 q 66 178 61 172 l 66 178 q 366 573 324 518 l 366 573 q 399 615 398 614 l 399 615 q 399 616 399 616 l 399 616 q 398 616 399 616 l 398 616 q 240 616 305 616 l 240 616 q 193 612 224 616 l 193 612 q 115 569 142 606 l 115 569 q 106 557 110 562 l 106 557 q 106 555 106 555 l 106 555 q 106 554 106 555 l 106 554 q 106 553 106 554 l 106 553 l 100 549 q 98 550 98 547 l 98 550 q 99 551 98 550 l 99 551 q 100 553 100 551 l 100 553 l 100 803 q 101 804 100 804 l 101 804 l 619 804 q 620 803 620 804 l 620 803 q 620 650 620 749 l 620 650 q 620 639 620 648 q 621 626 621 630 q 619 614 621 621 q 614 603 617 608 l 614 603 q 602 586 608 592 l 602 586 q 336 239 536 500 l 336 239 q 304 196 306 199 l 304 196 q 304 195 303 195 l 304 195 q 341 195 312 195 q 375 195 371 195 l 375 195 q 564 195 425 195 l 564 195 q 616 199 588 195 l 616 199 q 703 220 656 203 l 703 220 q 765 252 737 233 l 765 252 q 798 281 782 264 l 798 281 q 799 281 798 281 l 799 281 l 800 281 q 801 281 801 281 l 801 281 q 801 280 801 280 l 801 280 q 799 276 800 279 q 798 272 798 273 l 798 272 q 671 -43 704 38 l 671 -43 q 670 -52 671 -45 l 670 -52 q 671 -54 670 -53 l 671 -54 q 677 -66 673 -58 q 684 -78 682 -75 l 684 -78 q 700 -102 689 -85 l 700 -102 q 703 -107 701 -103 q 707 -114 705 -112 l 707 -114 q 725 -143 714 -126 q 737 -164 735 -161 l 737 -164 q 750 -185 747 -180 l 750 -185 q 765 -209 754 -192 q 781 -236 776 -226 l 781 -236 q 796 -260 786 -244 l 796 -260 q 803 -272 799 -264 q 808 -282 808 -280 l 808 -282 q 807 -283 810 -286 l 807 -283 q 806 -283 806 -283 l 806 -283 q 791 -267 795 -271 l 791 -267 q 679 -149 750 -222 l 679 -149 q 650 -118 665 -134 z "},"":{"ha":422,"x_min":11,"x_max":453,"o":"m 11 831 l 161 1035 l 310 1035 l 453 831 l 345 831 l 231 962 l 117 831 l 11 831 z "},"":{"ha":424,"x_min":12,"x_max":454,"o":"m 163 831 l 12 1035 l 118 1035 l 232 903 l 346 1035 l 454 1035 l 311 831 l 163 831 z "},"":{"ha":439,"x_min":-1,"x_max":471,"o":"m 330 825 l 330 825 l -1 825 q 136 911 118 855 l 136 911 q 142 938 142 928 l 142 938 q 139 947 142 945 l 139 947 l 469 947 q 471 936 471 943 l 471 936 q 420 859 471 895 l 420 859 q 330 825 373 825 z "},"":{"ha":386,"x_min":49,"x_max":414,"o":"m 49 1022 l 49 1022 l 87 1022 q 218 930 102 930 l 218 930 q 372 1022 358 930 l 372 1022 l 414 1022 q 366 882 414 937 l 366 882 q 232 823 316 823 l 232 823 q 98 882 149 823 l 98 882 q 49 1022 49 937 z "},"":{"ha":304,"x_min":60,"x_max":253,"o":"m 253 800 l 157 692 l 60 800 l 157 911 l 253 800 z "},"":{"ha":332,"x_min":107,"x_max":355,"o":"m 107 909 l 107 909 q 143 999 107 963 q 232 1035 178 1035 l 232 1035 q 320 999 286 1035 q 355 909 355 963 l 355 909 q 320 821 355 857 q 232 785 285 785 l 232 785 q 143 821 180 785 q 107 909 107 857 z m 163 909 l 163 909 q 232 840 163 840 l 232 840 q 281 860 262 840 q 300 909 300 880 l 300 909 q 281 959 300 939 q 232 979 262 979 l 232 979 q 163 909 163 979 z "},"":{"ha":347,"x_min":62,"x_max":372,"o":"m 117 53 l 117 53 l 229 53 l 202 -15 q 186 -86 186 -56 l 186 -86 q 273 -157 186 -157 l 273 -157 q 372 -127 337 -157 l 372 -127 l 372 -241 q 240 -271 289 -271 l 240 -271 q 118 -233 168 -271 l 118 -233 q 62 -122 62 -192 l 62 -122 q 117 53 62 -82 z "},"":{"ha":448,"x_min":-12,"x_max":479,"o":"m 479 1013 l 479 1013 q 429 897 466 943 l 429 897 q 319 842 385 842 l 319 842 q 220 872 285 842 q 121 903 155 903 l 121 903 q 41 884 81 903 l 41 884 q -12 827 -7 861 l -12 827 q 43 945 17 914 l 43 945 q 161 994 83 994 l 161 994 q 255 968 193 994 q 349 942 318 942 l 349 942 q 427 960 385 942 l 427 960 q 479 1013 475 981 z "},"":{"ha":439,"x_min":-61,"x_max":471,"o":"m -61 827 l 37 1035 l 210 1035 l 35 827 l -61 827 z m 200 827 l 298 1035 l 471 1035 l 296 827 l 200 827 z "},"":{"ha":494,"x_min":null,"x_max":null,"o":""},"":{"ha":756,"x_min":34,"x_max":732,"o":"m 555 0 l 555 0 l 212 0 q 261 35 238 14 l 261 35 q 292 83 292 62 l 292 83 l 292 567 l 172 567 q 34 488 102 567 l 34 488 l 88 725 l 678 724 l 732 488 q 578 567 647 567 l 578 567 l 474 567 l 474 83 q 555 0 474 36 z "},"":{"ha":494,"x_min":null,"x_max":null,"o":""},"":{"ha":843,"x_min":16,"x_max":829,"o":"m 325 350 l 422 461 l 519 350 l 422 241 l 325 350 z m 278 -183 l 96 -183 l 96 446 q 100 522 96 471 q 104 598 104 572 l 104 598 q 16 724 104 682 l 16 724 l 358 724 q 278 646 278 690 l 278 646 l 278 363 q 294 199 278 240 l 294 199 q 422 122 323 122 l 422 122 q 574 373 574 122 l 574 373 q 570 464 574 404 q 567 554 567 524 l 567 554 q 568 583 567 564 l 568 583 q 568 611 568 602 l 568 611 q 550 684 568 659 q 486 724 532 709 l 486 724 l 829 724 q 741 529 741 687 l 741 529 q 746 419 741 492 q 750 309 750 346 l 750 309 q 693 90 750 161 l 693 90 q 422 -5 616 -5 l 422 -5 q 349 4 397 -5 q 278 14 301 13 l 278 14 l 278 -183 z "},"":{"ha":494,"x_min":null,"x_max":null,"o":""},"":{"ha":553,"x_min":-1,"x_max":524,"o":"m 367 336 l 367 336 l -1 336 q 155 447 155 372 l 155 447 q 154 458 155 456 l 154 458 l 522 458 q 524 447 524 454 l 524 447 q 464 370 524 408 l 464 370 q 367 336 410 336 z "},"":{"ha":1143,"x_min":-2,"x_max":1114,"o":"m 957 336 l 957 336 l -2 336 q 84 369 77 366 l 84 369 q 165 437 165 406 l 165 437 q 154 458 165 448 l 154 458 l 1112 458 l 1114 447 q 1054 370 1114 408 l 1054 370 q 957 336 1000 336 z "},"":{"ha":866,"x_min":-2,"x_max":836,"o":"m 679 336 l 679 336 l -2 336 q 85 366 40 349 l 85 366 q 152 424 145 388 l 152 424 q 155 452 155 442 l 155 452 q 154 458 155 457 l 154 458 l 835 458 l 836 447 q 777 370 836 408 l 777 370 q 679 336 722 336 z "},"":{"ha":290,"x_min":29,"x_max":243,"o":"m 29 625 l 243 880 q 187 722 187 794 l 187 722 q 222 625 187 654 l 222 625 l 125 514 l 29 625 z "},"":{"ha":337,"x_min":66,"x_max":281,"o":"m 281 770 l 66 514 q 122 672 122 600 l 122 672 q 87 770 122 732 l 87 770 l 183 880 l 281 770 z "},"":{"ha":302,"x_min":39,"x_max":253,"o":"m 253 5 l 39 -250 q 94 -92 94 -164 l 94 -92 q 60 5 94 -29 l 60 5 l 157 117 l 253 5 z "},"":{"ha":545,"x_min":29,"x_max":498,"o":"m 283 625 l 498 880 q 443 722 443 794 l 443 722 q 478 625 443 654 l 478 625 l 380 514 l 283 625 z m 29 625 l 244 880 q 189 722 189 794 l 189 722 q 224 625 189 654 l 224 625 l 125 514 l 29 625 z "},"":{"ha":592,"x_min":66,"x_max":536,"o":"m 282 770 l 66 514 q 122 672 122 600 l 122 672 q 87 770 122 732 l 87 770 l 183 880 l 282 770 z m 536 770 l 321 514 q 376 672 376 600 l 376 672 q 343 770 376 733 l 343 770 l 439 880 l 536 770 z "},"":{"ha":574,"x_min":66,"x_max":536,"o":"m 282 -3 l 66 -258 q 122 -100 122 -172 l 122 -100 q 87 -3 122 -37 l 87 -3 l 183 109 l 282 -3 z m 536 -3 l 321 -258 q 376 -100 376 -172 l 376 -100 q 343 -3 376 -37 l 343 -3 l 439 109 l 536 -3 z "},"":{"ha":721,"x_min":43,"x_max":726,"o":"m 389 854 l 484 538 l 726 538 l 726 408 l 484 408 l 484 -216 l 294 -216 l 294 408 l 43 408 l 43 538 l 294 538 l 389 854 z "},"":{"ha":766,"x_min":39,"x_max":722,"o":"m 39 551 l 290 551 l 385 868 l 479 551 l 722 551 l 722 419 l 479 419 l 479 170 l 722 170 l 722 37 l 479 37 l 479 -222 l 290 -222 l 290 37 l 39 37 l 39 170 l 290 170 l 290 419 l 39 419 l 39 551 z "},"":{"ha":446,"x_min":69,"x_max":416,"o":"m 416 416 l 416 416 q 367 293 416 342 q 243 243 317 243 l 243 243 q 120 294 171 243 q 69 416 69 345 l 69 416 q 118 541 69 492 q 243 590 168 590 l 243 590 q 366 539 315 590 q 416 416 416 489 z m 180 319 l 232 319 l 244 286 l 253 319 l 306 319 q 273 342 273 327 l 273 342 l 273 382 l 321 382 q 345 350 329 376 l 345 350 l 345 406 l 386 414 l 345 425 l 345 473 q 321 447 334 447 l 321 447 l 273 447 l 273 505 q 306 525 273 520 l 306 525 l 253 525 l 244 558 l 236 525 l 182 525 q 211 505 211 519 l 211 505 l 211 447 l 157 447 q 136 473 141 447 l 136 473 l 136 424 l 103 414 l 136 407 l 136 350 q 157 382 142 382 l 157 382 l 211 382 l 211 342 q 180 319 211 329 l 180 319 z "},"":{"ha":1112,"x_min":60,"x_max":1086,"o":"m 254 106 l 157 -3 l 60 106 l 157 216 l 254 106 z m 669 106 l 574 -3 l 476 106 l 574 216 l 669 106 z m 1086 106 l 989 -3 l 893 106 l 989 216 l 1086 106 z "},"":{"ha":1336,"x_min":16,"x_max":1375,"o":"m 786 1035 l 199 -28 l 106 -28 l 690 1035 l 786 1035 z m 16 827 l 16 827 q 76 975 16 915 q 224 1035 136 1035 l 224 1035 q 373 976 314 1035 q 432 827 432 917 l 432 827 q 372 679 432 739 q 224 618 311 618 l 224 618 q 76 678 136 618 q 16 827 16 739 z m 126 827 l 126 827 q 154 757 126 785 q 224 729 182 729 l 224 729 q 293 757 266 729 q 321 827 321 785 l 321 827 q 293 896 321 867 q 224 924 264 924 l 224 924 q 154 896 182 924 q 126 827 126 869 z m 446 180 l 446 180 q 506 328 446 268 q 654 389 567 389 l 654 389 q 803 329 744 389 q 863 180 863 270 l 863 180 q 802 33 863 94 q 654 -28 741 -28 l 654 -28 q 506 32 566 -28 q 446 180 446 92 z m 557 180 l 557 180 q 586 112 557 141 q 654 83 615 83 l 654 83 q 723 112 694 83 q 751 180 751 140 l 751 180 q 723 250 751 221 q 654 278 695 278 l 654 278 q 585 250 612 278 q 557 180 557 222 z m 958 180 l 958 180 q 1019 328 958 268 q 1166 389 1079 389 l 1166 389 q 1315 329 1255 389 q 1375 180 1375 269 l 1375 180 q 1315 32 1375 92 q 1166 -28 1255 -28 l 1166 -28 q 1019 33 1080 -28 q 958 180 958 94 z m 1069 180 l 1069 180 q 1099 113 1069 142 q 1166 83 1128 83 l 1166 83 q 1236 112 1207 83 q 1264 180 1264 140 l 1264 180 q 1236 250 1264 221 q 1166 278 1207 278 l 1166 278 q 1098 250 1126 278 q 1069 180 1069 221 z "},"":{"ha":401,"x_min":115,"x_max":347,"o":"m 347 102 l 115 386 l 347 661 l 347 509 l 203 386 l 347 262 l 347 102 z "},"":{"ha":357,"x_min":111,"x_max":343,"o":"m 111 661 l 343 386 l 111 102 l 111 262 l 256 386 l 111 509 l 111 661 z "},"":{"ha":437,"x_min":-239,"x_max":468,"o":"m 468 993 l -66 94 l -82 97 q -239 -28 -152 97 l -239 -28 l 278 857 q 468 993 350 857 l 468 993 z "},"":{"ha":852,"x_min":12,"x_max":790,"o":"m 272 439 l 272 439 l 100 439 q 142 482 142 462 l 142 482 l 142 724 l 81 724 q 12 684 46 724 l 12 684 l 39 803 l 334 803 l 361 684 q 283 724 317 724 l 283 724 l 232 724 l 232 482 q 272 439 232 460 z m 372 803 l 372 803 l 519 803 q 496 779 503 797 l 496 779 q 534 697 504 748 l 534 697 l 582 618 q 631 696 606 657 l 631 696 q 668 779 659 745 l 668 779 q 643 803 662 798 l 643 803 l 790 803 q 750 762 750 783 l 750 762 l 750 482 q 790 439 750 458 l 790 439 l 619 439 q 660 482 660 463 l 660 482 l 660 555 l 581 392 l 504 555 l 504 482 q 545 439 504 461 l 545 439 q 524 439 534 439 l 524 439 q 400 418 450 439 l 400 418 q 273 361 365 402 l 273 361 q 414 482 414 448 l 414 482 l 412 762 q 372 803 412 780 z "},"":{"ha":756,"x_min":34,"x_max":732,"o":"m 555 0 l 555 0 l 212 0 q 261 35 238 14 l 261 35 q 292 83 292 62 l 292 83 l 292 567 l 172 567 q 34 488 102 567 l 34 488 l 88 725 l 678 724 l 732 488 q 578 567 647 567 l 578 567 l 474 567 l 474 83 q 555 0 474 36 z "},"":{"ha":494,"x_min":null,"x_max":null,"o":""},"":{"ha":494,"x_min":null,"x_max":null,"o":""},"":{"ha":743,"x_min":-54,"x_max":717,"o":"m -54 268 l -54 268 l 289 268 q 208 191 222 241 l 208 191 l 205 193 l 204 187 q 330 103 228 103 l 330 103 q 458 133 406 103 l 458 133 q 521 240 521 169 l 521 240 q 457 338 521 305 l 457 338 q 335 365 407 365 l 335 365 q 302 363 318 365 l 302 363 l 302 468 q 498 579 498 468 l 498 579 q 445 674 498 650 l 445 674 q 329 690 410 690 l 329 690 q 56 547 136 690 l 56 547 l 56 603 q 170 766 56 707 l 170 766 q 376 814 262 814 l 376 814 q 579 771 495 814 l 579 771 q 686 608 686 717 l 686 608 q 576 433 686 499 l 576 433 q 683 356 655 392 l 683 356 q 717 229 717 312 l 717 229 q 600 39 717 104 l 600 39 q 371 -16 505 -16 l 371 -16 q 138 49 220 -16 l 138 49 q 39 176 95 82 l 39 176 q -54 268 -6 253 z "},"":{"ha":281,"x_min":60,"x_max":253,"o":"m 253 422 l 157 314 l 60 422 l 157 533 l 253 422 z "},"":{"ha":494,"x_min":null,"x_max":null,"o":""},"":{"ha":1025,"x_min":3,"x_max":1050,"o":"m 528 411 l 528 411 l 536 411 l 539 416 l 545 419 q 550 428 548 422 l 550 428 l 550 450 l 547 453 l 525 453 l 519 450 q 518 451 519 451 l 518 451 q 514 447 515 451 l 514 447 l 514 431 q 519 416 517 425 l 519 416 q 519 416 519 416 l 519 416 q 524 414 521 416 l 524 414 q 528 411 526 411 z m 539 428 l 524 428 l 524 439 l 528 441 l 539 441 l 542 439 l 542 431 l 539 428 z m 644 517 l 644 517 q 606 536 631 524 l 606 536 l 591 536 l 586 539 l 581 539 q 568 536 577 539 l 568 536 q 556 532 562 533 l 556 532 q 553 533 554 532 l 553 533 q 526 522 543 527 l 526 522 q 536 472 528 504 l 536 472 l 542 467 l 547 467 q 551 461 551 464 l 551 461 q 561 453 555 458 l 561 453 l 564 447 l 564 425 l 561 419 l 554 414 l 551 408 l 547 406 l 547 361 q 552 332 547 352 l 552 332 q 555 305 555 315 l 555 305 q 555 302 555 304 l 555 302 l 561 297 l 561 292 l 564 289 q 608 297 578 290 l 608 297 q 708 372 629 306 l 708 372 q 742 439 722 395 l 742 439 q 766 536 751 484 l 766 536 l 766 547 q 761 564 763 553 l 761 564 q 672 550 731 557 l 672 550 q 644 517 665 538 z m 612 554 l 612 554 l 628 558 l 627 566 l 623 571 q 612 554 619 566 z m 633 545 l 614 542 l 636 526 l 636 538 l 633 545 z m 653 559 l 635 574 l 637 558 l 653 559 z m 661 550 l 640 546 l 647 528 q 661 550 653 543 l 661 550 z m 504 669 l 504 669 l 519 686 q 528 676 522 684 l 528 676 l 513 660 l 538 664 l 538 654 q 511 650 529 652 l 511 650 l 532 644 l 529 635 l 509 640 q 522 542 513 608 l 522 542 l 533 542 q 597 553 541 543 l 597 553 q 628 583 604 564 l 628 583 q 664 561 646 578 l 664 561 q 747 575 692 568 l 747 575 q 757 581 749 579 l 757 581 l 757 591 l 754 597 q 754 600 754 599 l 754 600 q 753 614 754 606 l 753 614 q 739 642 749 623 l 739 642 l 739 656 q 722 661 724 656 l 722 661 l 722 677 q 700 692 712 692 l 700 692 l 697 700 q 675 725 690 709 l 675 725 q 628 758 659 735 l 628 758 q 572 778 622 759 l 572 778 q 533 781 538 778 l 533 781 q 500 774 514 774 l 500 774 q 493 775 496 774 l 493 775 q 504 669 500 739 z m 484 918 l 478 918 l 482 904 q 515 945 493 918 l 515 945 l 476 939 l 476 937 l 478 926 l 486 937 l 489 932 l 481 925 l 489 922 l 489 920 l 488 916 l 484 918 z m 467 900 l 467 917 l 463 911 l 457 917 l 467 924 l 452 929 l 454 933 l 465 926 l 465 937 l 433 933 l 467 900 z m 83 479 l 66 492 q 69 464 69 482 l 69 464 l 83 479 z m 410 568 l 450 528 q 505 536 469 530 l 505 536 l 505 586 q 505 585 505 585 l 505 585 q 498 636 504 585 l 498 636 q 486 616 492 630 l 486 616 q 473 625 483 621 l 473 625 l 492 646 l 463 640 l 461 652 l 492 656 l 461 663 q 463 669 463 667 l 463 669 q 463 672 463 671 l 463 672 q 494 667 477 671 l 494 667 l 481 772 q 392 755 452 766 l 392 755 q 300 664 336 711 l 300 664 l 300 659 l 297 653 l 297 647 l 293 644 q 283 631 289 636 l 283 631 q 271 580 282 621 l 271 580 q 262 530 262 547 l 262 530 l 262 522 q 269 511 264 517 l 269 511 l 319 511 q 319 511 319 511 l 319 511 q 389 525 319 513 l 389 525 q 410 568 392 530 l 410 568 z m 443 513 l 412 555 l 396 504 l 443 513 z m 974 606 l 974 606 l 1031 612 q 1008 619 1018 619 l 1008 619 q 974 606 993 619 z m 1028 606 l 978 600 q 1006 591 993 591 l 1006 591 q 1028 606 1017 591 l 1028 606 z m 461 975 l 454 1025 q 441 994 450 1015 l 441 994 q 461 975 456 986 l 461 975 z m 461 1025 l 461 1025 q 468 979 467 998 l 468 979 q 478 1004 468 990 l 478 1004 q 461 1025 471 1008 z m 469 972 l 475 949 q 531 956 531 954 l 531 956 q 530 956 531 956 l 530 956 l 530 942 q 509 914 519 934 l 509 914 q 481 889 504 910 l 481 889 l 481 847 l 484 842 l 484 831 l 486 825 q 486 821 486 823 l 486 821 q 489 808 486 814 l 489 808 q 597 794 494 808 l 597 794 q 653 761 606 783 l 653 761 q 708 708 656 749 l 708 708 q 730 677 717 698 l 730 677 l 730 664 l 739 661 q 747 656 743 661 l 747 656 l 747 650 l 750 647 q 753 636 750 644 l 753 636 q 757 630 755 630 l 757 630 q 758 631 758 630 l 758 631 q 775 581 762 612 l 775 581 q 878 595 800 585 l 878 595 l 880 600 l 884 603 q 889 611 886 609 l 889 611 q 889 612 889 612 l 889 612 q 897 656 889 620 l 897 656 l 905 656 l 905 647 l 908 642 q 905 628 905 635 l 905 628 q 905 623 905 625 l 905 623 l 899 616 l 899 611 l 897 608 l 897 603 l 914 603 q 936 650 921 621 l 936 650 l 936 659 l 945 659 q 926 603 941 639 l 926 603 l 945 603 q 966 656 951 621 l 966 656 q 970 656 968 656 l 970 656 q 976 657 975 656 l 976 657 q 975 659 976 658 l 975 659 l 975 647 q 960 606 969 633 l 960 606 q 972 614 966 612 l 972 614 q 981 623 978 619 l 981 623 q 984 623 982 623 l 984 623 q 998 624 989 623 l 998 624 q 1014 625 1009 625 l 1014 625 l 1025 625 l 1031 623 l 1036 623 q 1050 616 1041 618 l 1050 616 l 1050 611 l 1046 608 q 1036 602 1040 608 q 1031 595 1031 595 l 1031 595 l 1028 589 q 1024 589 1026 589 l 1024 589 q 1017 583 1019 589 l 1017 583 l 1008 583 q 996 585 1004 583 l 996 585 q 985 586 989 586 l 985 586 q 981 586 983 586 l 981 586 l 966 595 l 956 595 q 933 542 947 573 l 933 542 l 926 542 l 926 553 l 929 558 l 933 561 l 936 567 l 936 578 l 933 583 l 933 589 l 930 589 q 920 586 922 586 l 920 586 q 905 542 913 570 l 905 542 l 897 542 q 901 581 897 557 l 901 581 l 889 581 q 872 547 884 567 l 872 547 l 872 545 l 869 539 l 869 533 l 861 533 l 861 545 q 865 564 861 551 q 869 581 869 576 l 869 581 q 781 567 840 575 l 781 567 q 779 541 781 559 l 779 541 q 778 522 778 530 l 778 522 q 778 514 778 517 l 778 514 q 755 452 767 500 l 755 452 q 733 381 743 399 l 733 381 q 665 319 711 341 l 665 319 l 661 314 l 656 311 q 643 308 643 311 l 643 308 q 644 306 643 307 l 644 306 l 640 302 l 640 300 q 610 289 630 296 l 610 289 l 608 286 q 567 275 595 283 l 567 275 l 567 250 q 567 250 567 250 l 567 250 q 582 146 568 250 l 582 146 l 602 167 l 604 160 q 582 139 596 154 l 582 139 l 586 126 l 607 146 l 607 138 l 585 114 l 587 100 l 612 122 l 612 115 q 587 93 603 109 l 587 93 l 590 81 l 614 98 q 615 87 615 95 l 615 87 l 591 69 l 597 43 l 610 50 l 612 43 l 597 33 l 621 40 l 621 33 l 602 29 l 619 20 l 615 16 q 599 25 607 22 l 599 25 l 602 4 l 593 4 l 589 22 l 579 7 q 576 11 578 9 l 576 11 q 586 26 581 16 l 586 26 l 570 21 q 568 26 568 24 l 568 26 q 568 29 568 28 l 568 29 q 585 33 575 31 l 585 33 l 568 40 l 570 47 l 586 40 l 581 65 l 545 87 l 545 100 l 579 79 l 579 90 l 541 111 l 543 118 l 578 98 l 576 113 q 542 134 567 119 l 542 134 q 541 144 541 137 l 541 144 l 576 122 l 574 136 q 536 161 561 144 l 536 161 l 539 168 q 570 149 557 155 l 570 149 q 547 269 570 155 l 547 269 q 535 269 542 269 l 535 269 q 483 273 515 269 l 483 273 q 422 289 436 279 l 422 289 l 419 289 l 414 292 l 407 292 q 336 342 355 324 l 336 342 q 286 411 307 370 l 286 411 l 289 411 q 292 408 290 408 l 292 408 q 293 408 292 408 l 293 408 q 383 319 317 367 l 383 319 l 383 314 q 500 281 471 281 l 500 281 q 545 286 526 281 l 545 286 l 545 300 q 533 389 545 350 l 533 389 q 503 414 530 393 l 503 414 l 503 416 l 500 422 l 496 425 l 496 444 l 509 464 q 519 467 519 467 l 519 467 l 519 481 q 511 525 519 509 l 511 525 l 511 528 l 454 519 q 464 510 460 516 l 464 510 l 428 503 l 431 493 l 443 496 l 443 490 l 431 488 l 431 479 l 424 475 l 422 486 l 412 484 l 410 489 l 418 492 l 421 490 l 420 491 l 420 494 l 419 501 l 376 493 l 385 513 q 300 500 328 500 l 300 500 q 293 500 296 500 l 293 500 l 283 494 l 278 494 l 272 489 l 272 461 q 286 425 277 450 l 286 425 l 281 425 l 272 439 q 258 472 271 456 l 258 472 l 258 492 q 170 484 195 484 l 170 484 q 164 484 167 484 l 164 484 q 139 472 155 480 l 139 472 l 139 461 l 136 458 l 136 453 l 139 439 q 149 433 143 436 l 149 433 l 149 441 l 144 444 l 142 443 l 147 449 l 154 444 l 158 437 l 153 428 l 144 425 q 127 441 134 436 l 127 441 l 122 453 l 122 472 l 94 472 q 81 464 89 470 l 81 464 l 81 439 l 92 431 l 92 436 q 94 441 94 437 q 100 444 95 444 l 100 444 q 106 441 104 444 l 106 441 l 106 433 q 102 429 103 432 l 102 429 q 103 428 102 429 l 103 428 l 100 422 l 89 422 l 86 419 l 81 419 q 64 450 75 429 l 64 450 l 64 467 l 62 469 l 40 468 l 47 460 l 43 457 l 31 465 q 34 452 33 459 l 34 452 q 33 447 34 450 l 33 447 l 28 450 l 28 467 l 16 452 l 11 457 l 17 468 l 3 467 l 3 475 l 18 478 l 7 489 q 12 492 12 490 l 12 492 l 25 481 l 24 498 l 29 498 l 33 478 l 45 493 l 49 490 q 39 479 45 484 l 39 479 l 60 481 q 61 502 60 481 l 61 502 q 61 512 61 507 l 61 512 q 61 522 62 517 l 61 522 q 72 536 64 527 l 72 536 l 75 533 q 89 530 87 533 l 89 530 l 90 525 q 97 519 97 521 l 97 519 l 94 517 l 94 503 l 89 503 q 83 505 85 503 l 83 505 l 83 522 l 81 522 l 75 519 q 69 511 69 519 l 69 511 l 69 509 q 92 486 73 496 l 92 486 l 109 486 q 125 489 119 486 l 125 489 q 124 490 124 490 l 124 490 q 128 493 126 491 l 128 493 q 127 494 128 494 l 127 494 l 121 500 q 114 519 114 517 l 114 519 q 127 542 114 528 l 127 542 l 142 542 q 155 536 147 538 l 155 536 l 158 533 l 158 525 q 150 518 158 518 l 150 518 q 147 532 149 520 l 147 532 l 139 534 q 122 528 128 531 l 122 528 l 125 517 q 147 497 132 509 l 147 497 l 189 497 q 253 505 230 497 l 253 505 q 258 575 256 528 l 258 575 q 275 633 263 581 l 275 633 q 289 659 279 642 l 289 659 l 290 667 q 314 692 298 677 l 314 692 l 314 700 q 349 745 326 715 l 349 745 q 382 772 372 755 l 382 772 q 472 806 412 783 l 472 806 l 472 822 q 453 897 472 873 l 453 897 q 419 928 442 907 l 419 928 q 416 936 419 935 l 416 936 l 422 939 l 431 939 q 463 947 437 943 l 463 947 q 459 965 460 958 l 459 965 q 460 970 459 968 l 460 970 q 444 983 456 978 l 444 983 l 431 983 l 433 981 l 433 975 q 435 970 435 973 l 435 970 q 434 964 435 968 q 433 958 433 960 l 433 958 l 425 958 q 419 961 421 958 l 419 961 l 419 966 l 416 970 l 416 981 q 421 990 416 984 l 421 990 q 427 994 425 994 l 427 994 q 428 994 427 994 l 428 994 l 433 997 q 453 1034 441 1020 l 453 1034 l 461 1034 l 484 1011 l 493 1011 l 500 1008 l 505 1008 q 514 983 514 1002 l 514 983 l 514 972 l 511 966 q 497 964 498 966 l 497 964 l 494 970 q 493 969 494 969 l 493 969 q 492 970 492 969 q 491 971 491 970 l 491 971 q 492 972 491 972 l 492 972 l 489 978 q 492 977 490 977 l 492 977 q 498 979 494 977 l 498 979 q 505 981 504 981 l 505 981 l 505 991 q 494 994 504 994 l 494 994 l 486 994 l 481 991 q 469 972 478 987 l 469 972 z "},"":{"ha":494,"x_min":null,"x_max":null,"o":""},"":{"ha":494,"x_min":null,"x_max":null,"o":""},"":{"ha":494,"x_min":null,"x_max":null,"o":""},"":{"ha":494,"x_min":null,"x_max":null,"o":""},"":{"ha":494,"x_min":null,"x_max":null,"o":""}}}
